<?xml version="1.0" encoding="utf-8" standalone="no"?>
<!DOCTYPE svg PUBLIC "-//W3C//DTD SVG 1.1//EN"
  "http://www.w3.org/Graphics/SVG/1.1/DTD/svg11.dtd">
<!-- Created with matplotlib (http://matplotlib.org/) -->
<svg height="360pt" version="1.1" viewBox="0 0 1296 360" width="1296pt" xmlns="http://www.w3.org/2000/svg" xmlns:xlink="http://www.w3.org/1999/xlink">
 <defs>
  <style type="text/css">
*{stroke-linecap:butt;stroke-linejoin:round;}
  </style>
 </defs>
 <g id="figure_1">
  <g id="patch_1">
   <path d="M 0 360 
L 1296 360 
L 1296 0 
L 0 0 
z
" style="fill:#ffffff;"/>
  </g>
  <g id="axes_1">
   <g id="patch_2">
    <path d="M 79.998 300.75 
L 342.879 300.75 
L 342.879 37.869 
L 79.998 37.869 
z
" style="fill:#ffffff;"/>
   </g>
   <g id="matplotlib.axis_1">
    <g id="xtick_1">
     <g id="line2d_1">
      <defs>
       <path d="M 0 0 
L 0 3.5 
" id="mb8b56b8ba1" style="stroke:#000000;stroke-width:0.8;"/>
      </defs>
      <g>
       <use style="stroke:#000000;stroke-width:0.8;" x="114.289667" xlink:href="#mb8b56b8ba1" y="300.75"/>
      </g>
     </g>
     <g id="text_1">
      <!-- −5 -->
      <defs>
       <path d="M 10.59375 35.5 
L 73.1875 35.5 
L 73.1875 27.203125 
L 10.59375 27.203125 
z
" id="DejaVuSans-2212"/>
       <path d="M 10.796875 72.90625 
L 49.515625 72.90625 
L 49.515625 64.59375 
L 19.828125 64.59375 
L 19.828125 46.734375 
Q 21.96875 47.46875 24.109375 47.828125 
Q 26.265625 48.1875 28.421875 48.1875 
Q 40.625 48.1875 47.75 41.5 
Q 54.890625 34.8125 54.890625 23.390625 
Q 54.890625 11.625 47.5625 5.09375 
Q 40.234375 -1.421875 26.90625 -1.421875 
Q 22.3125 -1.421875 17.546875 -0.640625 
Q 12.796875 0.140625 7.71875 1.703125 
L 7.71875 11.625 
Q 12.109375 9.234375 16.796875 8.0625 
Q 21.484375 6.890625 26.703125 6.890625 
Q 35.15625 6.890625 40.078125 11.328125 
Q 45.015625 15.765625 45.015625 23.390625 
Q 45.015625 31 40.078125 35.4375 
Q 35.15625 39.890625 26.703125 39.890625 
Q 22.75 39.890625 18.8125 39.015625 
Q 14.890625 38.140625 10.796875 36.28125 
z
" id="DejaVuSans-35"/>
      </defs>
      <g transform="translate(102.495917 319.9075)scale(0.16 -0.16)">
       <use xlink:href="#DejaVuSans-2212"/>
       <use x="83.789062" xlink:href="#DejaVuSans-35"/>
      </g>
     </g>
    </g>
    <g id="xtick_2">
     <g id="line2d_2">
      <g>
       <use style="stroke:#000000;stroke-width:0.8;" x="207.019963" xlink:href="#mb8b56b8ba1" y="300.75"/>
      </g>
     </g>
     <g id="text_2">
      <!-- 0 -->
      <defs>
       <path d="M 31.78125 66.40625 
Q 24.171875 66.40625 20.328125 58.90625 
Q 16.5 51.421875 16.5 36.375 
Q 16.5 21.390625 20.328125 13.890625 
Q 24.171875 6.390625 31.78125 6.390625 
Q 39.453125 6.390625 43.28125 13.890625 
Q 47.125 21.390625 47.125 36.375 
Q 47.125 51.421875 43.28125 58.90625 
Q 39.453125 66.40625 31.78125 66.40625 
z
M 31.78125 74.21875 
Q 44.046875 74.21875 50.515625 64.515625 
Q 56.984375 54.828125 56.984375 36.375 
Q 56.984375 17.96875 50.515625 8.265625 
Q 44.046875 -1.421875 31.78125 -1.421875 
Q 19.53125 -1.421875 13.0625 8.265625 
Q 6.59375 17.96875 6.59375 36.375 
Q 6.59375 54.828125 13.0625 64.515625 
Q 19.53125 74.21875 31.78125 74.21875 
z
" id="DejaVuSans-30"/>
      </defs>
      <g transform="translate(201.929963 319.9075)scale(0.16 -0.16)">
       <use xlink:href="#DejaVuSans-30"/>
      </g>
     </g>
    </g>
    <g id="xtick_3">
     <g id="line2d_3">
      <g>
       <use style="stroke:#000000;stroke-width:0.8;" x="299.750259" xlink:href="#mb8b56b8ba1" y="300.75"/>
      </g>
     </g>
     <g id="text_3">
      <!-- 5 -->
      <g transform="translate(294.660259 319.9075)scale(0.16 -0.16)">
       <use xlink:href="#DejaVuSans-35"/>
      </g>
     </g>
    </g>
   </g>
   <g id="matplotlib.axis_2">
    <g id="ytick_1">
     <g id="line2d_4">
      <defs>
       <path d="M 0 0 
L -3.5 0 
" id="m9e85e9efb7" style="stroke:#000000;stroke-width:0.8;"/>
      </defs>
      <g>
       <use style="stroke:#000000;stroke-width:0.8;" x="79.998" xlink:href="#m9e85e9efb7" y="276.996001"/>
      </g>
     </g>
     <g id="text_4">
      <!-- −6 -->
      <defs>
       <path d="M 33.015625 40.375 
Q 26.375 40.375 22.484375 35.828125 
Q 18.609375 31.296875 18.609375 23.390625 
Q 18.609375 15.53125 22.484375 10.953125 
Q 26.375 6.390625 33.015625 6.390625 
Q 39.65625 6.390625 43.53125 10.953125 
Q 47.40625 15.53125 47.40625 23.390625 
Q 47.40625 31.296875 43.53125 35.828125 
Q 39.65625 40.375 33.015625 40.375 
z
M 52.59375 71.296875 
L 52.59375 62.3125 
Q 48.875 64.0625 45.09375 64.984375 
Q 41.3125 65.921875 37.59375 65.921875 
Q 27.828125 65.921875 22.671875 59.328125 
Q 17.53125 52.734375 16.796875 39.40625 
Q 19.671875 43.65625 24.015625 45.921875 
Q 28.375 48.1875 33.59375 48.1875 
Q 44.578125 48.1875 50.953125 41.515625 
Q 57.328125 34.859375 57.328125 23.390625 
Q 57.328125 12.15625 50.6875 5.359375 
Q 44.046875 -1.421875 33.015625 -1.421875 
Q 20.359375 -1.421875 13.671875 8.265625 
Q 6.984375 17.96875 6.984375 36.375 
Q 6.984375 53.65625 15.1875 63.9375 
Q 23.390625 74.21875 37.203125 74.21875 
Q 40.921875 74.21875 44.703125 73.484375 
Q 48.484375 72.75 52.59375 71.296875 
z
" id="DejaVuSans-36"/>
      </defs>
      <g transform="translate(49.4105 283.074751)scale(0.16 -0.16)">
       <use xlink:href="#DejaVuSans-2212"/>
       <use x="83.789062" xlink:href="#DejaVuSans-36"/>
      </g>
     </g>
    </g>
    <g id="ytick_2">
     <g id="line2d_5">
      <g>
       <use style="stroke:#000000;stroke-width:0.8;" x="79.998" xlink:href="#m9e85e9efb7" y="239.903883"/>
      </g>
     </g>
     <g id="text_5">
      <!-- −4 -->
      <defs>
       <path d="M 37.796875 64.3125 
L 12.890625 25.390625 
L 37.796875 25.390625 
z
M 35.203125 72.90625 
L 47.609375 72.90625 
L 47.609375 25.390625 
L 58.015625 25.390625 
L 58.015625 17.1875 
L 47.609375 17.1875 
L 47.609375 0 
L 37.796875 0 
L 37.796875 17.1875 
L 4.890625 17.1875 
L 4.890625 26.703125 
z
" id="DejaVuSans-34"/>
      </defs>
      <g transform="translate(49.4105 245.982633)scale(0.16 -0.16)">
       <use xlink:href="#DejaVuSans-2212"/>
       <use x="83.789062" xlink:href="#DejaVuSans-34"/>
      </g>
     </g>
    </g>
    <g id="ytick_3">
     <g id="line2d_6">
      <g>
       <use style="stroke:#000000;stroke-width:0.8;" x="79.998" xlink:href="#m9e85e9efb7" y="202.811765"/>
      </g>
     </g>
     <g id="text_6">
      <!-- −2 -->
      <defs>
       <path d="M 19.1875 8.296875 
L 53.609375 8.296875 
L 53.609375 0 
L 7.328125 0 
L 7.328125 8.296875 
Q 12.9375 14.109375 22.625 23.890625 
Q 32.328125 33.6875 34.8125 36.53125 
Q 39.546875 41.84375 41.421875 45.53125 
Q 43.3125 49.21875 43.3125 52.78125 
Q 43.3125 58.59375 39.234375 62.25 
Q 35.15625 65.921875 28.609375 65.921875 
Q 23.96875 65.921875 18.8125 64.3125 
Q 13.671875 62.703125 7.8125 59.421875 
L 7.8125 69.390625 
Q 13.765625 71.78125 18.9375 73 
Q 24.125 74.21875 28.421875 74.21875 
Q 39.75 74.21875 46.484375 68.546875 
Q 53.21875 62.890625 53.21875 53.421875 
Q 53.21875 48.921875 51.53125 44.890625 
Q 49.859375 40.875 45.40625 35.40625 
Q 44.1875 33.984375 37.640625 27.21875 
Q 31.109375 20.453125 19.1875 8.296875 
z
" id="DejaVuSans-32"/>
      </defs>
      <g transform="translate(49.4105 208.890515)scale(0.16 -0.16)">
       <use xlink:href="#DejaVuSans-2212"/>
       <use x="83.789062" xlink:href="#DejaVuSans-32"/>
      </g>
     </g>
    </g>
    <g id="ytick_4">
     <g id="line2d_7">
      <g>
       <use style="stroke:#000000;stroke-width:0.8;" x="79.998" xlink:href="#m9e85e9efb7" y="165.719646"/>
      </g>
     </g>
     <g id="text_7">
      <!-- 0 -->
      <g transform="translate(62.818 171.798396)scale(0.16 -0.16)">
       <use xlink:href="#DejaVuSans-30"/>
      </g>
     </g>
    </g>
    <g id="ytick_5">
     <g id="line2d_8">
      <g>
       <use style="stroke:#000000;stroke-width:0.8;" x="79.998" xlink:href="#m9e85e9efb7" y="128.627528"/>
      </g>
     </g>
     <g id="text_8">
      <!-- 2 -->
      <g transform="translate(62.818 134.706278)scale(0.16 -0.16)">
       <use xlink:href="#DejaVuSans-32"/>
      </g>
     </g>
    </g>
    <g id="ytick_6">
     <g id="line2d_9">
      <g>
       <use style="stroke:#000000;stroke-width:0.8;" x="79.998" xlink:href="#m9e85e9efb7" y="91.53541"/>
      </g>
     </g>
     <g id="text_9">
      <!-- 4 -->
      <g transform="translate(62.818 97.61416)scale(0.16 -0.16)">
       <use xlink:href="#DejaVuSans-34"/>
      </g>
     </g>
    </g>
    <g id="ytick_7">
     <g id="line2d_10">
      <g>
       <use style="stroke:#000000;stroke-width:0.8;" x="79.998" xlink:href="#m9e85e9efb7" y="54.443292"/>
      </g>
     </g>
     <g id="text_10">
      <!-- 6 -->
      <g transform="translate(62.818 60.522042)scale(0.16 -0.16)">
       <use xlink:href="#DejaVuSans-36"/>
      </g>
     </g>
    </g>
   </g>
   <g id="line2d_11">
    <defs>
     <path d="M 0 3 
C 0.795609 3 1.55874 2.683901 2.12132 2.12132 
C 2.683901 1.55874 3 0.795609 3 0 
C 3 -0.795609 2.683901 -1.55874 2.12132 -2.12132 
C 1.55874 -2.683901 0.795609 -3 0 -3 
C -0.795609 -3 -1.55874 -2.683901 -2.12132 -2.12132 
C -2.683901 -1.55874 -3 -0.795609 -3 0 
C -3 0.795609 -2.683901 1.55874 -2.12132 2.12132 
C -1.55874 2.683901 -0.795609 3 0 3 
z
" id="mcf429ecb56" style="stroke:#1f77b4;"/>
    </defs>
    <g clip-path="url(#p8cf2a99a3c)">
     <use style="fill:#1f77b4;stroke:#1f77b4;" x="205.981822" xlink:href="#mcf429ecb56" y="49.818136"/>
    </g>
   </g>
   <g id="line2d_12">
    <defs>
     <path d="M 0 3 
C 0.795609 3 1.55874 2.683901 2.12132 2.12132 
C 2.683901 1.55874 3 0.795609 3 0 
C 3 -0.795609 2.683901 -1.55874 2.12132 -2.12132 
C 1.55874 -2.683901 0.795609 -3 0 -3 
C -0.795609 -3 -1.55874 -2.683901 -2.12132 -2.12132 
C -2.683901 -1.55874 -3 -0.795609 -3 0 
C -3 0.795609 -2.683901 1.55874 -2.12132 2.12132 
C -1.55874 2.683901 -0.795609 3 0 3 
z
" id="m7779eef983" style="stroke:#8c564b;"/>
    </defs>
    <g clip-path="url(#p8cf2a99a3c)">
     <use style="fill:#8c564b;stroke:#8c564b;" x="91.372322" xlink:href="#m7779eef983" y="215.663942"/>
    </g>
   </g>
   <g id="line2d_13">
    <defs>
     <path d="M 0 3 
C 0.795609 3 1.55874 2.683901 2.12132 2.12132 
C 2.683901 1.55874 3 0.795609 3 0 
C 3 -0.795609 2.683901 -1.55874 2.12132 -2.12132 
C 1.55874 -2.683901 0.795609 -3 0 -3 
C -0.795609 -3 -1.55874 -2.683901 -2.12132 -2.12132 
C -2.683901 -1.55874 -3 -0.795609 -3 0 
C -3 0.795609 -2.683901 1.55874 -2.12132 2.12132 
C -1.55874 2.683901 -0.795609 3 0 3 
z
" id="ma1024c98a8" style="stroke:#ff7f0e;"/>
    </defs>
    <g clip-path="url(#p8cf2a99a3c)">
     <use style="fill:#ff7f0e;stroke:#ff7f0e;" x="303.192684" xlink:href="#ma1024c98a8" y="157.696985"/>
    </g>
   </g>
   <g id="line2d_14">
    <g clip-path="url(#p8cf2a99a3c)">
     <use style="fill:#1f77b4;stroke:#1f77b4;" x="136.050119" xlink:href="#mcf429ecb56" y="67.354619"/>
    </g>
   </g>
   <g id="line2d_15">
    <g clip-path="url(#p8cf2a99a3c)">
     <use style="fill:#8c564b;stroke:#8c564b;" x="155.958934" xlink:href="#m7779eef983" y="262.579667"/>
    </g>
   </g>
   <g id="line2d_16">
    <g clip-path="url(#p8cf2a99a3c)">
     <use style="fill:#ff7f0e;stroke:#ff7f0e;" x="220.272863" xlink:href="#ma1024c98a8" y="170.247915"/>
    </g>
   </g>
   <g id="line2d_17">
    <defs>
     <path d="M 0 3 
C 0.795609 3 1.55874 2.683901 2.12132 2.12132 
C 2.683901 1.55874 3 0.795609 3 0 
C 3 -0.795609 2.683901 -1.55874 2.12132 -2.12132 
C 1.55874 -2.683901 0.795609 -3 0 -3 
C -0.795609 -3 -1.55874 -2.683901 -2.12132 -2.12132 
C -2.683901 -1.55874 -3 -0.795609 -3 0 
C -3 0.795609 -2.683901 1.55874 -2.12132 2.12132 
C -1.55874 2.683901 -0.795609 3 0 3 
z
" id="mb2a8b9840f" style="stroke:#2ca02c;"/>
    </defs>
    <g clip-path="url(#p8cf2a99a3c)">
     <use style="fill:#2ca02c;stroke:#2ca02c;" x="235.58636" xlink:href="#mb2a8b9840f" y="288.800864"/>
    </g>
   </g>
   <g id="line2d_18">
    <g clip-path="url(#p8cf2a99a3c)">
     <use style="fill:#2ca02c;stroke:#2ca02c;" x="318.858757" xlink:href="#mb2a8b9840f" y="245.397474"/>
    </g>
   </g>
   <g id="line2d_19">
    <defs>
     <path d="M 0 3 
C 0.795609 3 1.55874 2.683901 2.12132 2.12132 
C 2.683901 1.55874 3 0.795609 3 0 
C 3 -0.795609 2.683901 -1.55874 2.12132 -2.12132 
C 1.55874 -2.683901 0.795609 -3 0 -3 
C -0.795609 -3 -1.55874 -2.683901 -2.12132 -2.12132 
C -2.683901 -1.55874 -3 -0.795609 -3 0 
C -3 0.795609 -2.683901 1.55874 -2.12132 2.12132 
C -1.55874 2.683901 -0.795609 3 0 3 
z
" id="m62f08aec1e" style="stroke:#d62728;"/>
    </defs>
    <g clip-path="url(#p8cf2a99a3c)">
     <use style="fill:#d62728;stroke:#d62728;" x="98.345041" xlink:href="#m62f08aec1e" y="135.550961"/>
    </g>
   </g>
   <g id="line2d_20">
    <g clip-path="url(#p8cf2a99a3c)">
     <use style="fill:#d62728;stroke:#d62728;" x="304.580728" xlink:href="#m62f08aec1e" y="64.0859"/>
    </g>
   </g>
   <g id="patch_3">
    <path d="M 79.998 300.75 
L 79.998 37.869 
" style="fill:none;stroke:#000000;stroke-linecap:square;stroke-linejoin:miter;stroke-width:0.8;"/>
   </g>
   <g id="patch_4">
    <path d="M 342.879 300.75 
L 342.879 37.869 
" style="fill:none;stroke:#000000;stroke-linecap:square;stroke-linejoin:miter;stroke-width:0.8;"/>
   </g>
   <g id="patch_5">
    <path d="M 79.998 300.75 
L 342.879 300.75 
" style="fill:none;stroke:#000000;stroke-linecap:square;stroke-linejoin:miter;stroke-width:0.8;"/>
   </g>
   <g id="patch_6">
    <path d="M 79.998 37.869 
L 342.879 37.869 
" style="fill:none;stroke:#000000;stroke-linecap:square;stroke-linejoin:miter;stroke-width:0.8;"/>
   </g>
   <g id="text_11">
    <g id="patch_7">
     <path d="M 204.061822 55.190636 
L 282.866822 55.190636 
L 282.866822 35.740636 
L 204.061822 35.740636 
z
" style="fill:#1f77b4;opacity:0.5;"/>
    </g>
    <!-- DelayGo -->
    <defs>
     <path d="M 27.984375 58.6875 
L 27.984375 14.203125 
L 34.71875 14.203125 
Q 46.234375 14.203125 52.3125 19.921875 
Q 58.40625 25.640625 58.40625 36.53125 
Q 58.40625 47.359375 52.34375 53.015625 
Q 46.296875 58.6875 34.71875 58.6875 
z
M 9.1875 72.90625 
L 29 72.90625 
Q 45.609375 72.90625 53.734375 70.53125 
Q 61.859375 68.171875 67.671875 62.5 
Q 72.796875 57.5625 75.28125 51.109375 
Q 77.78125 44.671875 77.78125 36.53125 
Q 77.78125 28.265625 75.28125 21.796875 
Q 72.796875 15.328125 67.671875 10.40625 
Q 61.8125 4.734375 53.609375 2.359375 
Q 45.40625 0 29 0 
L 9.1875 0 
z
" id="DejaVuSans-Bold-44"/>
     <path d="M 62.984375 27.484375 
L 62.984375 22.515625 
L 22.125 22.515625 
Q 22.75 16.359375 26.5625 13.28125 
Q 30.375 10.203125 37.203125 10.203125 
Q 42.71875 10.203125 48.5 11.84375 
Q 54.296875 13.484375 60.40625 16.796875 
L 60.40625 3.328125 
Q 54.203125 0.984375 48 -0.21875 
Q 41.796875 -1.421875 35.59375 -1.421875 
Q 20.75 -1.421875 12.515625 6.125 
Q 4.296875 13.671875 4.296875 27.296875 
Q 4.296875 40.671875 12.375 48.328125 
Q 20.453125 56 34.625 56 
Q 47.515625 56 55.25 48.234375 
Q 62.984375 40.484375 62.984375 27.484375 
z
M 45.015625 33.296875 
Q 45.015625 38.28125 42.109375 41.328125 
Q 39.203125 44.390625 34.515625 44.390625 
Q 29.4375 44.390625 26.265625 41.53125 
Q 23.09375 38.671875 22.3125 33.296875 
z
" id="DejaVuSans-Bold-65"/>
     <path d="M 8.40625 75.984375 
L 25.875 75.984375 
L 25.875 0 
L 8.40625 0 
z
" id="DejaVuSans-Bold-6c"/>
     <path d="M 32.90625 24.609375 
Q 27.4375 24.609375 24.671875 22.75 
Q 21.921875 20.90625 21.921875 17.28125 
Q 21.921875 13.96875 24.140625 12.078125 
Q 26.375 10.203125 30.328125 10.203125 
Q 35.25 10.203125 38.625 13.734375 
Q 42 17.28125 42 22.609375 
L 42 24.609375 
z
M 59.625 31.203125 
L 59.625 0 
L 42 0 
L 42 8.109375 
Q 38.484375 3.125 34.078125 0.84375 
Q 29.6875 -1.421875 23.390625 -1.421875 
Q 14.890625 -1.421875 9.59375 3.53125 
Q 4.296875 8.5 4.296875 16.40625 
Q 4.296875 26.03125 10.90625 30.515625 
Q 17.53125 35.015625 31.6875 35.015625 
L 42 35.015625 
L 42 36.375 
Q 42 40.53125 38.71875 42.453125 
Q 35.453125 44.390625 28.515625 44.390625 
Q 22.90625 44.390625 18.0625 43.265625 
Q 13.234375 42.140625 9.078125 39.890625 
L 9.078125 53.21875 
Q 14.703125 54.59375 20.359375 55.296875 
Q 26.03125 56 31.6875 56 
Q 46.484375 56 53.046875 50.171875 
Q 59.625 44.34375 59.625 31.203125 
z
" id="DejaVuSans-Bold-61"/>
     <path d="M 1.21875 54.6875 
L 18.703125 54.6875 
L 33.40625 17.578125 
L 45.90625 54.6875 
L 63.375 54.6875 
L 40.375 -5.171875 
Q 36.921875 -14.3125 32.296875 -17.9375 
Q 27.6875 -21.578125 20.125 -21.578125 
L 10.015625 -21.578125 
L 10.015625 -10.109375 
L 15.484375 -10.109375 
Q 19.921875 -10.109375 21.9375 -8.6875 
Q 23.96875 -7.28125 25.09375 -3.609375 
L 25.59375 -2.09375 
z
" id="DejaVuSans-Bold-79"/>
     <path d="M 74.703125 5.421875 
Q 67.671875 2 60.109375 0.28125 
Q 52.546875 -1.421875 44.484375 -1.421875 
Q 26.265625 -1.421875 15.625 8.765625 
Q 4.984375 18.953125 4.984375 36.375 
Q 4.984375 54 15.8125 64.109375 
Q 26.65625 74.21875 45.515625 74.21875 
Q 52.78125 74.21875 59.4375 72.84375 
Q 66.109375 71.484375 72.015625 68.796875 
L 72.015625 53.71875 
Q 65.921875 57.171875 59.890625 58.875 
Q 53.859375 60.59375 47.796875 60.59375 
Q 36.578125 60.59375 30.5 54.3125 
Q 24.421875 48.046875 24.421875 36.375 
Q 24.421875 24.8125 30.28125 18.5 
Q 36.140625 12.203125 46.921875 12.203125 
Q 49.859375 12.203125 52.375 12.5625 
Q 54.890625 12.9375 56.890625 13.71875 
L 56.890625 27.875 
L 45.40625 27.875 
L 45.40625 40.484375 
L 74.703125 40.484375 
z
" id="DejaVuSans-Bold-47"/>
     <path d="M 34.421875 43.5 
Q 28.609375 43.5 25.5625 39.328125 
Q 22.515625 35.15625 22.515625 27.296875 
Q 22.515625 19.4375 25.5625 15.25 
Q 28.609375 11.078125 34.421875 11.078125 
Q 40.140625 11.078125 43.15625 15.25 
Q 46.1875 19.4375 46.1875 27.296875 
Q 46.1875 35.15625 43.15625 39.328125 
Q 40.140625 43.5 34.421875 43.5 
z
M 34.421875 56 
Q 48.53125 56 56.46875 48.375 
Q 64.40625 40.765625 64.40625 27.296875 
Q 64.40625 13.8125 56.46875 6.1875 
Q 48.53125 -1.421875 34.421875 -1.421875 
Q 20.265625 -1.421875 12.28125 6.1875 
Q 4.296875 13.8125 4.296875 27.296875 
Q 4.296875 40.765625 12.28125 48.375 
Q 20.265625 56 34.421875 56 
z
" id="DejaVuSans-Bold-6f"/>
    </defs>
    <g transform="translate(205.981822 49.818136)scale(0.16 -0.16)">
     <use xlink:href="#DejaVuSans-Bold-44"/>
     <use x="83.007812" xlink:href="#DejaVuSans-Bold-65"/>
     <use x="150.830078" xlink:href="#DejaVuSans-Bold-6c"/>
     <use x="185.107422" xlink:href="#DejaVuSans-Bold-61"/>
     <use x="252.541016" xlink:href="#DejaVuSans-Bold-79"/>
     <use x="317.726562" xlink:href="#DejaVuSans-Bold-47"/>
     <use x="399.806641" xlink:href="#DejaVuSans-Bold-6f"/>
    </g>
   </g>
   <g id="text_12">
    <g id="patch_8">
     <path d="M 89.452322 220.911442 
L 168.519822 220.911442 
L 168.519822 201.586442 
L 89.452322 201.586442 
z
" style="fill:#8c564b;opacity:0.5;"/>
    </g>
    <!-- ReactGo -->
    <defs>
     <path d="M 35.890625 40.578125 
Q 41.796875 40.578125 44.359375 42.765625 
Q 46.921875 44.96875 46.921875 50 
Q 46.921875 54.984375 44.359375 57.125 
Q 41.796875 59.28125 35.890625 59.28125 
L 27.984375 59.28125 
L 27.984375 40.578125 
z
M 27.984375 27.59375 
L 27.984375 0 
L 9.1875 0 
L 9.1875 72.90625 
L 37.890625 72.90625 
Q 52.296875 72.90625 59 68.0625 
Q 65.71875 63.234375 65.71875 52.78125 
Q 65.71875 45.5625 62.21875 40.921875 
Q 58.734375 36.28125 51.703125 34.078125 
Q 55.5625 33.203125 58.609375 30.09375 
Q 61.671875 27 64.796875 20.703125 
L 75 0 
L 54.984375 0 
L 46.09375 18.109375 
Q 43.40625 23.578125 40.640625 25.578125 
Q 37.890625 27.59375 33.296875 27.59375 
z
" id="DejaVuSans-Bold-52"/>
     <path d="M 52.59375 52.984375 
L 52.59375 38.71875 
Q 49.03125 41.15625 45.4375 42.328125 
Q 41.84375 43.5 37.984375 43.5 
Q 30.671875 43.5 26.59375 39.234375 
Q 22.515625 34.96875 22.515625 27.296875 
Q 22.515625 19.625 26.59375 15.34375 
Q 30.671875 11.078125 37.984375 11.078125 
Q 42.09375 11.078125 45.78125 12.296875 
Q 49.46875 13.53125 52.59375 15.921875 
L 52.59375 1.609375 
Q 48.484375 0.09375 44.265625 -0.65625 
Q 40.046875 -1.421875 35.796875 -1.421875 
Q 21 -1.421875 12.640625 6.171875 
Q 4.296875 13.765625 4.296875 27.296875 
Q 4.296875 40.828125 12.640625 48.40625 
Q 21 56 35.796875 56 
Q 40.09375 56 44.265625 55.25 
Q 48.4375 54.5 52.59375 52.984375 
z
" id="DejaVuSans-Bold-63"/>
     <path d="M 27.484375 70.21875 
L 27.484375 54.6875 
L 45.515625 54.6875 
L 45.515625 42.1875 
L 27.484375 42.1875 
L 27.484375 19 
Q 27.484375 15.1875 29 13.84375 
Q 30.515625 12.5 35.015625 12.5 
L 44 12.5 
L 44 0 
L 29 0 
Q 18.65625 0 14.328125 4.3125 
Q 10.015625 8.640625 10.015625 19 
L 10.015625 42.1875 
L 1.3125 42.1875 
L 1.3125 54.6875 
L 10.015625 54.6875 
L 10.015625 70.21875 
z
" id="DejaVuSans-Bold-74"/>
    </defs>
    <g transform="translate(91.372322 215.663942)scale(0.16 -0.16)">
     <use xlink:href="#DejaVuSans-Bold-52"/>
     <use x="77.001953" xlink:href="#DejaVuSans-Bold-65"/>
     <use x="144.824219" xlink:href="#DejaVuSans-Bold-61"/>
     <use x="212.304688" xlink:href="#DejaVuSans-Bold-63"/>
     <use x="271.582031" xlink:href="#DejaVuSans-Bold-74"/>
     <use x="319.384766" xlink:href="#DejaVuSans-Bold-47"/>
     <use x="401.464844" xlink:href="#DejaVuSans-Bold-6f"/>
    </g>
   </g>
   <g id="text_13">
    <g id="patch_9">
     <path d="M 301.272684 163.069485 
L 401.997684 163.069485 
L 401.997684 143.744485 
L 301.272684 143.744485 
z
" style="fill:#ff7f0e;opacity:0.5;"/>
    </g>
    <!-- MemoryGo -->
    <defs>
     <path d="M 9.1875 72.90625 
L 33.109375 72.90625 
L 49.703125 33.890625 
L 66.40625 72.90625 
L 90.28125 72.90625 
L 90.28125 0 
L 72.515625 0 
L 72.515625 53.328125 
L 55.71875 14.015625 
L 43.796875 14.015625 
L 27 53.328125 
L 27 0 
L 9.1875 0 
z
" id="DejaVuSans-Bold-4d"/>
     <path d="M 59.078125 45.609375 
Q 62.40625 50.6875 66.96875 53.34375 
Q 71.53125 56 77 56 
Q 86.421875 56 91.359375 50.1875 
Q 96.296875 44.390625 96.296875 33.296875 
L 96.296875 0 
L 78.71875 0 
L 78.71875 28.515625 
Q 78.765625 29.15625 78.78125 29.828125 
Q 78.8125 30.515625 78.8125 31.78125 
Q 78.8125 37.59375 77.09375 40.203125 
Q 75.390625 42.828125 71.578125 42.828125 
Q 66.609375 42.828125 63.890625 38.71875 
Q 61.1875 34.625 61.078125 26.859375 
L 61.078125 0 
L 43.5 0 
L 43.5 28.515625 
Q 43.5 37.59375 41.9375 40.203125 
Q 40.375 42.828125 36.375 42.828125 
Q 31.34375 42.828125 28.609375 38.703125 
Q 25.875 34.578125 25.875 26.90625 
L 25.875 0 
L 8.296875 0 
L 8.296875 54.6875 
L 25.875 54.6875 
L 25.875 46.6875 
Q 29.109375 51.3125 33.28125 53.65625 
Q 37.453125 56 42.484375 56 
Q 48.140625 56 52.484375 53.265625 
Q 56.84375 50.53125 59.078125 45.609375 
z
" id="DejaVuSans-Bold-6d"/>
     <path d="M 49.03125 39.796875 
Q 46.734375 40.875 44.453125 41.375 
Q 42.1875 41.890625 39.890625 41.890625 
Q 33.15625 41.890625 29.515625 37.5625 
Q 25.875 33.25 25.875 25.203125 
L 25.875 0 
L 8.40625 0 
L 8.40625 54.6875 
L 25.875 54.6875 
L 25.875 45.703125 
Q 29.25 51.078125 33.609375 53.53125 
Q 37.984375 56 44.09375 56 
Q 44.96875 56 45.984375 55.921875 
Q 47.015625 55.859375 48.96875 55.609375 
z
" id="DejaVuSans-Bold-72"/>
    </defs>
    <g transform="translate(303.192684 157.696985)scale(0.16 -0.16)">
     <use xlink:href="#DejaVuSans-Bold-4d"/>
     <use x="99.511719" xlink:href="#DejaVuSans-Bold-65"/>
     <use x="167.333984" xlink:href="#DejaVuSans-Bold-6d"/>
     <use x="271.533203" xlink:href="#DejaVuSans-Bold-6f"/>
     <use x="340.234375" xlink:href="#DejaVuSans-Bold-72"/>
     <use x="389.550781" xlink:href="#DejaVuSans-Bold-79"/>
     <use x="454.736328" xlink:href="#DejaVuSans-Bold-47"/>
     <use x="536.816406" xlink:href="#DejaVuSans-Bold-6f"/>
    </g>
   </g>
   <g id="text_14">
    <g id="patch_10">
     <path d="M 134.130119 72.727119 
L 225.715119 72.727119 
L 225.715119 53.277119 
L 134.130119 53.277119 
z
" style="fill:#1f77b4;opacity:0.5;"/>
    </g>
    <!-- DelayAnti -->
    <defs>
     <path d="M 53.421875 13.28125 
L 24.03125 13.28125 
L 19.390625 0 
L 0.484375 0 
L 27.484375 72.90625 
L 49.90625 72.90625 
L 76.90625 0 
L 58.015625 0 
z
M 28.71875 26.8125 
L 48.6875 26.8125 
L 38.71875 55.8125 
z
" id="DejaVuSans-Bold-41"/>
     <path d="M 63.375 33.296875 
L 63.375 0 
L 45.796875 0 
L 45.796875 5.421875 
L 45.796875 25.484375 
Q 45.796875 32.5625 45.484375 35.25 
Q 45.171875 37.9375 44.390625 39.203125 
Q 43.359375 40.921875 41.59375 41.875 
Q 39.84375 42.828125 37.59375 42.828125 
Q 32.125 42.828125 29 38.59375 
Q 25.875 34.375 25.875 26.90625 
L 25.875 0 
L 8.40625 0 
L 8.40625 54.6875 
L 25.875 54.6875 
L 25.875 46.6875 
Q 29.828125 51.46875 34.265625 53.734375 
Q 38.71875 56 44.09375 56 
Q 53.5625 56 58.46875 50.1875 
Q 63.375 44.390625 63.375 33.296875 
z
" id="DejaVuSans-Bold-6e"/>
     <path d="M 8.40625 54.6875 
L 25.875 54.6875 
L 25.875 0 
L 8.40625 0 
z
M 8.40625 75.984375 
L 25.875 75.984375 
L 25.875 61.71875 
L 8.40625 61.71875 
z
" id="DejaVuSans-Bold-69"/>
    </defs>
    <g transform="translate(136.050119 67.354619)scale(0.16 -0.16)">
     <use xlink:href="#DejaVuSans-Bold-44"/>
     <use x="83.007812" xlink:href="#DejaVuSans-Bold-65"/>
     <use x="150.830078" xlink:href="#DejaVuSans-Bold-6c"/>
     <use x="185.107422" xlink:href="#DejaVuSans-Bold-61"/>
     <use x="252.541016" xlink:href="#DejaVuSans-Bold-79"/>
     <use x="317.726562" xlink:href="#DejaVuSans-Bold-41"/>
     <use x="395.119141" xlink:href="#DejaVuSans-Bold-6e"/>
     <use x="466.310547" xlink:href="#DejaVuSans-Bold-74"/>
     <use x="514.113281" xlink:href="#DejaVuSans-Bold-69"/>
    </g>
   </g>
   <g id="text_15">
    <g id="patch_11">
     <path d="M 154.038934 267.827167 
L 245.886434 267.827167 
L 245.886434 248.502167 
L 154.038934 248.502167 
z
" style="fill:#8c564b;opacity:0.5;"/>
    </g>
    <!-- ReactAnti -->
    <g transform="translate(155.958934 262.579667)scale(0.16 -0.16)">
     <use xlink:href="#DejaVuSans-Bold-52"/>
     <use x="77.001953" xlink:href="#DejaVuSans-Bold-65"/>
     <use x="144.824219" xlink:href="#DejaVuSans-Bold-61"/>
     <use x="212.304688" xlink:href="#DejaVuSans-Bold-63"/>
     <use x="271.582031" xlink:href="#DejaVuSans-Bold-74"/>
     <use x="319.384766" xlink:href="#DejaVuSans-Bold-41"/>
     <use x="396.777344" xlink:href="#DejaVuSans-Bold-6e"/>
     <use x="467.96875" xlink:href="#DejaVuSans-Bold-74"/>
     <use x="515.771484" xlink:href="#DejaVuSans-Bold-69"/>
    </g>
   </g>
   <g id="text_16">
    <g id="patch_12">
     <path d="M 218.352863 175.620415 
L 331.857863 175.620415 
L 331.857863 156.170415 
L 218.352863 156.170415 
z
" style="fill:#ff7f0e;opacity:0.5;"/>
    </g>
    <!-- MemoryAnti -->
    <g transform="translate(220.272863 170.247915)scale(0.16 -0.16)">
     <use xlink:href="#DejaVuSans-Bold-4d"/>
     <use x="99.511719" xlink:href="#DejaVuSans-Bold-65"/>
     <use x="167.333984" xlink:href="#DejaVuSans-Bold-6d"/>
     <use x="271.533203" xlink:href="#DejaVuSans-Bold-6f"/>
     <use x="340.234375" xlink:href="#DejaVuSans-Bold-72"/>
     <use x="389.550781" xlink:href="#DejaVuSans-Bold-79"/>
     <use x="454.736328" xlink:href="#DejaVuSans-Bold-41"/>
     <use x="532.128906" xlink:href="#DejaVuSans-Bold-6e"/>
     <use x="603.320312" xlink:href="#DejaVuSans-Bold-74"/>
     <use x="651.123047" xlink:href="#DejaVuSans-Bold-69"/>
    </g>
   </g>
   <g id="text_17">
    <g id="patch_13">
     <path d="M 233.66636 294.173364 
L 432.29136 294.173364 
L 432.29136 274.723364 
L 233.66636 274.723364 
z
" style="fill:#2ca02c;opacity:0.5;"/>
    </g>
    <!-- MemoryMatchSample -->
    <defs>
     <path d="M 63.375 33.296875 
L 63.375 0 
L 45.796875 0 
L 45.796875 5.421875 
L 45.796875 25.390625 
Q 45.796875 32.5625 45.484375 35.25 
Q 45.171875 37.9375 44.390625 39.203125 
Q 43.359375 40.921875 41.59375 41.875 
Q 39.84375 42.828125 37.59375 42.828125 
Q 32.125 42.828125 29 38.59375 
Q 25.875 34.375 25.875 26.90625 
L 25.875 0 
L 8.40625 0 
L 8.40625 75.984375 
L 25.875 75.984375 
L 25.875 46.6875 
Q 29.828125 51.46875 34.265625 53.734375 
Q 38.71875 56 44.09375 56 
Q 53.5625 56 58.46875 50.1875 
Q 63.375 44.390625 63.375 33.296875 
z
" id="DejaVuSans-Bold-68"/>
     <path d="M 59.90625 70.609375 
L 59.90625 55.171875 
Q 53.90625 57.859375 48.1875 59.21875 
Q 42.484375 60.59375 37.40625 60.59375 
Q 30.671875 60.59375 27.4375 58.734375 
Q 24.21875 56.890625 24.21875 52.984375 
Q 24.21875 50.046875 26.390625 48.40625 
Q 28.5625 46.78125 34.28125 45.609375 
L 42.28125 44 
Q 54.4375 41.546875 59.5625 36.5625 
Q 64.703125 31.59375 64.703125 22.40625 
Q 64.703125 10.359375 57.546875 4.46875 
Q 50.390625 -1.421875 35.6875 -1.421875 
Q 28.765625 -1.421875 21.78125 -0.09375 
Q 14.796875 1.21875 7.8125 3.8125 
L 7.8125 19.671875 
Q 14.796875 15.96875 21.3125 14.078125 
Q 27.828125 12.203125 33.890625 12.203125 
Q 40.046875 12.203125 43.3125 14.25 
Q 46.578125 16.3125 46.578125 20.125 
Q 46.578125 23.53125 44.359375 25.390625 
Q 42.140625 27.25 35.5 28.71875 
L 28.21875 30.328125 
Q 17.28125 32.671875 12.21875 37.796875 
Q 7.171875 42.921875 7.171875 51.609375 
Q 7.171875 62.5 14.203125 68.359375 
Q 21.234375 74.21875 34.421875 74.21875 
Q 40.4375 74.21875 46.78125 73.3125 
Q 53.125 72.40625 59.90625 70.609375 
z
" id="DejaVuSans-Bold-53"/>
     <path d="M 25.875 7.90625 
L 25.875 -20.796875 
L 8.40625 -20.796875 
L 8.40625 54.6875 
L 25.875 54.6875 
L 25.875 46.6875 
Q 29.5 51.46875 33.890625 53.734375 
Q 38.28125 56 44 56 
Q 54.109375 56 60.59375 47.96875 
Q 67.09375 39.9375 67.09375 27.296875 
Q 67.09375 14.65625 60.59375 6.609375 
Q 54.109375 -1.421875 44 -1.421875 
Q 38.28125 -1.421875 33.890625 0.84375 
Q 29.5 3.125 25.875 7.90625 
z
M 37.5 43.3125 
Q 31.890625 43.3125 28.875 39.1875 
Q 25.875 35.0625 25.875 27.296875 
Q 25.875 19.53125 28.875 15.40625 
Q 31.890625 11.28125 37.5 11.28125 
Q 43.109375 11.28125 46.0625 15.375 
Q 49.03125 19.484375 49.03125 27.296875 
Q 49.03125 35.109375 46.0625 39.203125 
Q 43.109375 43.3125 37.5 43.3125 
z
" id="DejaVuSans-Bold-70"/>
    </defs>
    <g transform="translate(235.58636 288.800864)scale(0.16 -0.16)">
     <use xlink:href="#DejaVuSans-Bold-4d"/>
     <use x="99.511719" xlink:href="#DejaVuSans-Bold-65"/>
     <use x="167.333984" xlink:href="#DejaVuSans-Bold-6d"/>
     <use x="271.533203" xlink:href="#DejaVuSans-Bold-6f"/>
     <use x="340.234375" xlink:href="#DejaVuSans-Bold-72"/>
     <use x="389.550781" xlink:href="#DejaVuSans-Bold-79"/>
     <use x="454.736328" xlink:href="#DejaVuSans-Bold-4d"/>
     <use x="554.248047" xlink:href="#DejaVuSans-Bold-61"/>
     <use x="621.728516" xlink:href="#DejaVuSans-Bold-74"/>
     <use x="669.53125" xlink:href="#DejaVuSans-Bold-63"/>
     <use x="728.808594" xlink:href="#DejaVuSans-Bold-68"/>
     <use x="800" xlink:href="#DejaVuSans-Bold-53"/>
     <use x="872.021484" xlink:href="#DejaVuSans-Bold-61"/>
     <use x="939.501953" xlink:href="#DejaVuSans-Bold-6d"/>
     <use x="1043.701172" xlink:href="#DejaVuSans-Bold-70"/>
     <use x="1115.283203" xlink:href="#DejaVuSans-Bold-6c"/>
     <use x="1149.560547" xlink:href="#DejaVuSans-Bold-65"/>
    </g>
   </g>
   <g id="text_18">
    <g id="patch_14">
     <path d="M 316.938757 250.769974 
L 562.391257 250.769974 
L 562.391257 231.319974 
L 316.938757 231.319974 
z
" style="fill:#2ca02c;opacity:0.5;"/>
    </g>
    <!-- MemoryMatchSampleNogo -->
    <defs>
     <path d="M 9.1875 72.90625 
L 30.171875 72.90625 
L 56.6875 22.90625 
L 56.6875 72.90625 
L 74.515625 72.90625 
L 74.515625 0 
L 53.515625 0 
L 27 50 
L 27 0 
L 9.1875 0 
z
" id="DejaVuSans-Bold-4e"/>
     <path d="M 45.609375 9.28125 
Q 42 4.5 37.640625 2.25 
Q 33.296875 0 27.59375 0 
Q 17.578125 0 11.03125 7.875 
Q 4.5 15.765625 4.5 27.984375 
Q 4.5 40.234375 11.03125 48.0625 
Q 17.578125 55.90625 27.59375 55.90625 
Q 33.296875 55.90625 37.640625 53.65625 
Q 42 51.421875 45.609375 46.578125 
L 45.609375 54.6875 
L 63.1875 54.6875 
L 63.1875 5.515625 
Q 63.1875 -7.671875 54.859375 -14.625 
Q 46.53125 -21.578125 30.71875 -21.578125 
Q 25.59375 -21.578125 20.796875 -20.796875 
Q 16.015625 -20.015625 11.1875 -18.40625 
L 11.1875 -4.78125 
Q 15.765625 -7.421875 20.15625 -8.71875 
Q 24.5625 -10.015625 29 -10.015625 
Q 37.59375 -10.015625 41.59375 -6.25 
Q 45.609375 -2.484375 45.609375 5.515625 
z
M 34.078125 43.3125 
Q 28.65625 43.3125 25.625 39.296875 
Q 22.609375 35.296875 22.609375 27.984375 
Q 22.609375 20.453125 25.53125 16.578125 
Q 28.46875 12.703125 34.078125 12.703125 
Q 39.546875 12.703125 42.578125 16.703125 
Q 45.609375 20.703125 45.609375 27.984375 
Q 45.609375 35.296875 42.578125 39.296875 
Q 39.546875 43.3125 34.078125 43.3125 
z
" id="DejaVuSans-Bold-67"/>
    </defs>
    <g transform="translate(318.858757 245.397474)scale(0.16 -0.16)">
     <use xlink:href="#DejaVuSans-Bold-4d"/>
     <use x="99.511719" xlink:href="#DejaVuSans-Bold-65"/>
     <use x="167.333984" xlink:href="#DejaVuSans-Bold-6d"/>
     <use x="271.533203" xlink:href="#DejaVuSans-Bold-6f"/>
     <use x="340.234375" xlink:href="#DejaVuSans-Bold-72"/>
     <use x="389.550781" xlink:href="#DejaVuSans-Bold-79"/>
     <use x="454.736328" xlink:href="#DejaVuSans-Bold-4d"/>
     <use x="554.248047" xlink:href="#DejaVuSans-Bold-61"/>
     <use x="621.728516" xlink:href="#DejaVuSans-Bold-74"/>
     <use x="669.53125" xlink:href="#DejaVuSans-Bold-63"/>
     <use x="728.808594" xlink:href="#DejaVuSans-Bold-68"/>
     <use x="800" xlink:href="#DejaVuSans-Bold-53"/>
     <use x="872.021484" xlink:href="#DejaVuSans-Bold-61"/>
     <use x="939.501953" xlink:href="#DejaVuSans-Bold-6d"/>
     <use x="1043.701172" xlink:href="#DejaVuSans-Bold-70"/>
     <use x="1115.283203" xlink:href="#DejaVuSans-Bold-6c"/>
     <use x="1149.560547" xlink:href="#DejaVuSans-Bold-65"/>
     <use x="1217.382812" xlink:href="#DejaVuSans-Bold-4e"/>
     <use x="1301.074219" xlink:href="#DejaVuSans-Bold-6f"/>
     <use x="1369.775391" xlink:href="#DejaVuSans-Bold-67"/>
     <use x="1441.357422" xlink:href="#DejaVuSans-Bold-6f"/>
    </g>
   </g>
   <g id="text_19">
    <g id="patch_15">
     <path d="M 96.425041 140.923461 
L 278.955041 140.923461 
L 278.955041 121.598461 
L 96.425041 121.598461 
z
" style="fill:#d62728;opacity:0.5;"/>
    </g>
    <!-- MemoryCategoryGo -->
    <defs>
     <path d="M 67 4 
Q 61.8125 1.3125 56.203125 -0.046875 
Q 50.59375 -1.421875 44.484375 -1.421875 
Q 26.265625 -1.421875 15.625 8.765625 
Q 4.984375 18.953125 4.984375 36.375 
Q 4.984375 53.859375 15.625 64.03125 
Q 26.265625 74.21875 44.484375 74.21875 
Q 50.59375 74.21875 56.203125 72.84375 
Q 61.8125 71.484375 67 68.796875 
L 67 53.71875 
Q 61.765625 57.28125 56.6875 58.9375 
Q 51.609375 60.59375 46 60.59375 
Q 35.9375 60.59375 30.171875 54.140625 
Q 24.421875 47.703125 24.421875 36.375 
Q 24.421875 25.09375 30.171875 18.640625 
Q 35.9375 12.203125 46 12.203125 
Q 51.609375 12.203125 56.6875 13.859375 
Q 61.765625 15.53125 67 19.09375 
z
" id="DejaVuSans-Bold-43"/>
    </defs>
    <g transform="translate(98.345041 135.550961)scale(0.16 -0.16)">
     <use xlink:href="#DejaVuSans-Bold-4d"/>
     <use x="99.511719" xlink:href="#DejaVuSans-Bold-65"/>
     <use x="167.333984" xlink:href="#DejaVuSans-Bold-6d"/>
     <use x="271.533203" xlink:href="#DejaVuSans-Bold-6f"/>
     <use x="340.234375" xlink:href="#DejaVuSans-Bold-72"/>
     <use x="389.550781" xlink:href="#DejaVuSans-Bold-79"/>
     <use x="454.736328" xlink:href="#DejaVuSans-Bold-43"/>
     <use x="528.125" xlink:href="#DejaVuSans-Bold-61"/>
     <use x="595.605469" xlink:href="#DejaVuSans-Bold-74"/>
     <use x="643.408203" xlink:href="#DejaVuSans-Bold-65"/>
     <use x="711.230469" xlink:href="#DejaVuSans-Bold-67"/>
     <use x="782.8125" xlink:href="#DejaVuSans-Bold-6f"/>
     <use x="851.513672" xlink:href="#DejaVuSans-Bold-72"/>
     <use x="900.830078" xlink:href="#DejaVuSans-Bold-79"/>
     <use x="966.015625" xlink:href="#DejaVuSans-Bold-47"/>
     <use x="1048.095703" xlink:href="#DejaVuSans-Bold-6f"/>
    </g>
   </g>
   <g id="text_20">
    <g id="patch_16">
     <path d="M 302.660728 69.4584 
L 509.573228 69.4584 
L 509.573228 50.1334 
L 302.660728 50.1334 
z
" style="fill:#d62728;opacity:0.5;"/>
    </g>
    <!-- MemoryCategoryNoGo -->
    <g transform="translate(304.580728 64.0859)scale(0.16 -0.16)">
     <use xlink:href="#DejaVuSans-Bold-4d"/>
     <use x="99.511719" xlink:href="#DejaVuSans-Bold-65"/>
     <use x="167.333984" xlink:href="#DejaVuSans-Bold-6d"/>
     <use x="271.533203" xlink:href="#DejaVuSans-Bold-6f"/>
     <use x="340.234375" xlink:href="#DejaVuSans-Bold-72"/>
     <use x="389.550781" xlink:href="#DejaVuSans-Bold-79"/>
     <use x="454.736328" xlink:href="#DejaVuSans-Bold-43"/>
     <use x="528.125" xlink:href="#DejaVuSans-Bold-61"/>
     <use x="595.605469" xlink:href="#DejaVuSans-Bold-74"/>
     <use x="643.408203" xlink:href="#DejaVuSans-Bold-65"/>
     <use x="711.230469" xlink:href="#DejaVuSans-Bold-67"/>
     <use x="782.8125" xlink:href="#DejaVuSans-Bold-6f"/>
     <use x="851.513672" xlink:href="#DejaVuSans-Bold-72"/>
     <use x="900.830078" xlink:href="#DejaVuSans-Bold-79"/>
     <use x="966.015625" xlink:href="#DejaVuSans-Bold-4e"/>
     <use x="1049.707031" xlink:href="#DejaVuSans-Bold-6f"/>
     <use x="1118.408203" xlink:href="#DejaVuSans-Bold-47"/>
     <use x="1200.488281" xlink:href="#DejaVuSans-Bold-6f"/>
    </g>
   </g>
   <g id="text_21">
    <!-- context -->
    <defs>
     <path d="M 48.78125 52.59375 
L 48.78125 44.1875 
Q 44.96875 46.296875 41.140625 47.34375 
Q 37.3125 48.390625 33.40625 48.390625 
Q 24.65625 48.390625 19.8125 42.84375 
Q 14.984375 37.3125 14.984375 27.296875 
Q 14.984375 17.28125 19.8125 11.734375 
Q 24.65625 6.203125 33.40625 6.203125 
Q 37.3125 6.203125 41.140625 7.25 
Q 44.96875 8.296875 48.78125 10.40625 
L 48.78125 2.09375 
Q 45.015625 0.34375 40.984375 -0.53125 
Q 36.96875 -1.421875 32.421875 -1.421875 
Q 20.0625 -1.421875 12.78125 6.34375 
Q 5.515625 14.109375 5.515625 27.296875 
Q 5.515625 40.671875 12.859375 48.328125 
Q 20.21875 56 33.015625 56 
Q 37.15625 56 41.109375 55.140625 
Q 45.0625 54.296875 48.78125 52.59375 
z
" id="DejaVuSans-63"/>
     <path d="M 30.609375 48.390625 
Q 23.390625 48.390625 19.1875 42.75 
Q 14.984375 37.109375 14.984375 27.296875 
Q 14.984375 17.484375 19.15625 11.84375 
Q 23.34375 6.203125 30.609375 6.203125 
Q 37.796875 6.203125 41.984375 11.859375 
Q 46.1875 17.53125 46.1875 27.296875 
Q 46.1875 37.015625 41.984375 42.703125 
Q 37.796875 48.390625 30.609375 48.390625 
z
M 30.609375 56 
Q 42.328125 56 49.015625 48.375 
Q 55.71875 40.765625 55.71875 27.296875 
Q 55.71875 13.875 49.015625 6.21875 
Q 42.328125 -1.421875 30.609375 -1.421875 
Q 18.84375 -1.421875 12.171875 6.21875 
Q 5.515625 13.875 5.515625 27.296875 
Q 5.515625 40.765625 12.171875 48.375 
Q 18.84375 56 30.609375 56 
z
" id="DejaVuSans-6f"/>
     <path d="M 54.890625 33.015625 
L 54.890625 0 
L 45.90625 0 
L 45.90625 32.71875 
Q 45.90625 40.484375 42.875 44.328125 
Q 39.84375 48.1875 33.796875 48.1875 
Q 26.515625 48.1875 22.3125 43.546875 
Q 18.109375 38.921875 18.109375 30.90625 
L 18.109375 0 
L 9.078125 0 
L 9.078125 54.6875 
L 18.109375 54.6875 
L 18.109375 46.1875 
Q 21.34375 51.125 25.703125 53.5625 
Q 30.078125 56 35.796875 56 
Q 45.21875 56 50.046875 50.171875 
Q 54.890625 44.34375 54.890625 33.015625 
z
" id="DejaVuSans-6e"/>
     <path d="M 18.3125 70.21875 
L 18.3125 54.6875 
L 36.8125 54.6875 
L 36.8125 47.703125 
L 18.3125 47.703125 
L 18.3125 18.015625 
Q 18.3125 11.328125 20.140625 9.421875 
Q 21.96875 7.515625 27.59375 7.515625 
L 36.8125 7.515625 
L 36.8125 0 
L 27.59375 0 
Q 17.1875 0 13.234375 3.875 
Q 9.28125 7.765625 9.28125 18.015625 
L 9.28125 47.703125 
L 2.6875 47.703125 
L 2.6875 54.6875 
L 9.28125 54.6875 
L 9.28125 70.21875 
z
" id="DejaVuSans-74"/>
     <path d="M 56.203125 29.59375 
L 56.203125 25.203125 
L 14.890625 25.203125 
Q 15.484375 15.921875 20.484375 11.0625 
Q 25.484375 6.203125 34.421875 6.203125 
Q 39.59375 6.203125 44.453125 7.46875 
Q 49.3125 8.734375 54.109375 11.28125 
L 54.109375 2.78125 
Q 49.265625 0.734375 44.1875 -0.34375 
Q 39.109375 -1.421875 33.890625 -1.421875 
Q 20.796875 -1.421875 13.15625 6.1875 
Q 5.515625 13.8125 5.515625 26.8125 
Q 5.515625 40.234375 12.765625 48.109375 
Q 20.015625 56 32.328125 56 
Q 43.359375 56 49.78125 48.890625 
Q 56.203125 41.796875 56.203125 29.59375 
z
M 47.21875 32.234375 
Q 47.125 39.59375 43.09375 43.984375 
Q 39.0625 48.390625 32.421875 48.390625 
Q 24.90625 48.390625 20.390625 44.140625 
Q 15.875 39.890625 15.1875 32.171875 
z
" id="DejaVuSans-65"/>
     <path d="M 54.890625 54.6875 
L 35.109375 28.078125 
L 55.90625 0 
L 45.3125 0 
L 29.390625 21.484375 
L 13.484375 0 
L 2.875 0 
L 24.125 28.609375 
L 4.6875 54.6875 
L 15.28125 54.6875 
L 29.78125 35.203125 
L 44.28125 54.6875 
z
" id="DejaVuSans-78"/>
    </defs>
    <g transform="translate(175.0875 31.869)scale(0.192 -0.192)">
     <use xlink:href="#DejaVuSans-63"/>
     <use x="54.980469" xlink:href="#DejaVuSans-6f"/>
     <use x="116.162109" xlink:href="#DejaVuSans-6e"/>
     <use x="179.541016" xlink:href="#DejaVuSans-74"/>
     <use x="218.75" xlink:href="#DejaVuSans-65"/>
     <use x="280.257812" xlink:href="#DejaVuSans-78"/>
     <use x="339.4375" xlink:href="#DejaVuSans-74"/>
    </g>
   </g>
  </g>
  <g id="axes_2">
   <g id="patch_17">
    <path d="M 504.3125 300.75 
L 767.1935 300.75 
L 767.1935 37.869 
L 504.3125 37.869 
z
" style="fill:#ffffff;"/>
   </g>
   <g id="matplotlib.axis_3">
    <g id="xtick_4">
     <g id="line2d_21">
      <g>
       <use style="stroke:#000000;stroke-width:0.8;" x="520.934328" xlink:href="#mb8b56b8ba1" y="300.75"/>
      </g>
     </g>
     <g id="text_22">
      <!-- −0.0004 -->
      <defs>
       <path d="M 10.6875 12.40625 
L 21 12.40625 
L 21 0 
L 10.6875 0 
z
" id="DejaVuSans-2e"/>
      </defs>
      <g transform="translate(486.238078 319.9075)scale(0.16 -0.16)">
       <use xlink:href="#DejaVuSans-2212"/>
       <use x="83.789062" xlink:href="#DejaVuSans-30"/>
       <use x="147.412109" xlink:href="#DejaVuSans-2e"/>
       <use x="179.199219" xlink:href="#DejaVuSans-30"/>
       <use x="242.822266" xlink:href="#DejaVuSans-30"/>
       <use x="306.445312" xlink:href="#DejaVuSans-30"/>
       <use x="370.068359" xlink:href="#DejaVuSans-34"/>
      </g>
     </g>
    </g>
    <g id="xtick_5">
     <g id="line2d_22">
      <g>
       <use style="stroke:#000000;stroke-width:0.8;" x="591.312932" xlink:href="#mb8b56b8ba1" y="300.75"/>
      </g>
     </g>
     <g id="text_23">
      <!-- −0.0002 -->
      <g transform="translate(556.616682 319.9075)scale(0.16 -0.16)">
       <use xlink:href="#DejaVuSans-2212"/>
       <use x="83.789062" xlink:href="#DejaVuSans-30"/>
       <use x="147.412109" xlink:href="#DejaVuSans-2e"/>
       <use x="179.199219" xlink:href="#DejaVuSans-30"/>
       <use x="242.822266" xlink:href="#DejaVuSans-30"/>
       <use x="306.445312" xlink:href="#DejaVuSans-30"/>
       <use x="370.068359" xlink:href="#DejaVuSans-32"/>
      </g>
     </g>
    </g>
    <g id="xtick_6">
     <g id="line2d_23">
      <g>
       <use style="stroke:#000000;stroke-width:0.8;" x="661.691536" xlink:href="#mb8b56b8ba1" y="300.75"/>
      </g>
     </g>
     <g id="text_24">
      <!-- 0.0000 -->
      <g transform="translate(633.699036 319.9075)scale(0.16 -0.16)">
       <use xlink:href="#DejaVuSans-30"/>
       <use x="63.623047" xlink:href="#DejaVuSans-2e"/>
       <use x="95.410156" xlink:href="#DejaVuSans-30"/>
       <use x="159.033203" xlink:href="#DejaVuSans-30"/>
       <use x="222.65625" xlink:href="#DejaVuSans-30"/>
       <use x="286.279297" xlink:href="#DejaVuSans-30"/>
      </g>
     </g>
    </g>
    <g id="xtick_7">
     <g id="line2d_24">
      <g>
       <use style="stroke:#000000;stroke-width:0.8;" x="732.07014" xlink:href="#mb8b56b8ba1" y="300.75"/>
      </g>
     </g>
     <g id="text_25">
      <!-- 0.0002 -->
      <g transform="translate(704.07764 319.9075)scale(0.16 -0.16)">
       <use xlink:href="#DejaVuSans-30"/>
       <use x="63.623047" xlink:href="#DejaVuSans-2e"/>
       <use x="95.410156" xlink:href="#DejaVuSans-30"/>
       <use x="159.033203" xlink:href="#DejaVuSans-30"/>
       <use x="222.65625" xlink:href="#DejaVuSans-30"/>
       <use x="286.279297" xlink:href="#DejaVuSans-32"/>
      </g>
     </g>
    </g>
   </g>
   <g id="matplotlib.axis_4">
    <g id="ytick_8">
     <g id="line2d_25">
      <g>
       <use style="stroke:#000000;stroke-width:0.8;" x="504.3125" xlink:href="#m9e85e9efb7" y="274.934223"/>
      </g>
     </g>
     <g id="text_26">
      <!-- −0.0003 -->
      <defs>
       <path d="M 40.578125 39.3125 
Q 47.65625 37.796875 51.625 33 
Q 55.609375 28.21875 55.609375 21.1875 
Q 55.609375 10.40625 48.1875 4.484375 
Q 40.765625 -1.421875 27.09375 -1.421875 
Q 22.515625 -1.421875 17.65625 -0.515625 
Q 12.796875 0.390625 7.625 2.203125 
L 7.625 11.71875 
Q 11.71875 9.328125 16.59375 8.109375 
Q 21.484375 6.890625 26.8125 6.890625 
Q 36.078125 6.890625 40.9375 10.546875 
Q 45.796875 14.203125 45.796875 21.1875 
Q 45.796875 27.640625 41.28125 31.265625 
Q 36.765625 34.90625 28.71875 34.90625 
L 20.21875 34.90625 
L 20.21875 43.015625 
L 29.109375 43.015625 
Q 36.375 43.015625 40.234375 45.921875 
Q 44.09375 48.828125 44.09375 54.296875 
Q 44.09375 59.90625 40.109375 62.90625 
Q 36.140625 65.921875 28.71875 65.921875 
Q 24.65625 65.921875 20.015625 65.03125 
Q 15.375 64.15625 9.8125 62.3125 
L 9.8125 71.09375 
Q 15.4375 72.65625 20.34375 73.4375 
Q 25.25 74.21875 29.59375 74.21875 
Q 40.828125 74.21875 47.359375 69.109375 
Q 53.90625 64.015625 53.90625 55.328125 
Q 53.90625 49.265625 50.4375 45.09375 
Q 46.96875 40.921875 40.578125 39.3125 
z
" id="DejaVuSans-33"/>
      </defs>
      <g transform="translate(427.92 281.012973)scale(0.16 -0.16)">
       <use xlink:href="#DejaVuSans-2212"/>
       <use x="83.789062" xlink:href="#DejaVuSans-30"/>
       <use x="147.412109" xlink:href="#DejaVuSans-2e"/>
       <use x="179.199219" xlink:href="#DejaVuSans-30"/>
       <use x="242.822266" xlink:href="#DejaVuSans-30"/>
       <use x="306.445312" xlink:href="#DejaVuSans-30"/>
       <use x="370.068359" xlink:href="#DejaVuSans-33"/>
      </g>
     </g>
    </g>
    <g id="ytick_9">
     <g id="line2d_26">
      <g>
       <use style="stroke:#000000;stroke-width:0.8;" x="504.3125" xlink:href="#m9e85e9efb7" y="239.744921"/>
      </g>
     </g>
     <g id="text_27">
      <!-- −0.0002 -->
      <g transform="translate(427.92 245.823671)scale(0.16 -0.16)">
       <use xlink:href="#DejaVuSans-2212"/>
       <use x="83.789062" xlink:href="#DejaVuSans-30"/>
       <use x="147.412109" xlink:href="#DejaVuSans-2e"/>
       <use x="179.199219" xlink:href="#DejaVuSans-30"/>
       <use x="242.822266" xlink:href="#DejaVuSans-30"/>
       <use x="306.445312" xlink:href="#DejaVuSans-30"/>
       <use x="370.068359" xlink:href="#DejaVuSans-32"/>
      </g>
     </g>
    </g>
    <g id="ytick_10">
     <g id="line2d_27">
      <g>
       <use style="stroke:#000000;stroke-width:0.8;" x="504.3125" xlink:href="#m9e85e9efb7" y="204.555619"/>
      </g>
     </g>
     <g id="text_28">
      <!-- −0.0001 -->
      <defs>
       <path d="M 12.40625 8.296875 
L 28.515625 8.296875 
L 28.515625 63.921875 
L 10.984375 60.40625 
L 10.984375 69.390625 
L 28.421875 72.90625 
L 38.28125 72.90625 
L 38.28125 8.296875 
L 54.390625 8.296875 
L 54.390625 0 
L 12.40625 0 
z
" id="DejaVuSans-31"/>
      </defs>
      <g transform="translate(427.92 210.634369)scale(0.16 -0.16)">
       <use xlink:href="#DejaVuSans-2212"/>
       <use x="83.789062" xlink:href="#DejaVuSans-30"/>
       <use x="147.412109" xlink:href="#DejaVuSans-2e"/>
       <use x="179.199219" xlink:href="#DejaVuSans-30"/>
       <use x="242.822266" xlink:href="#DejaVuSans-30"/>
       <use x="306.445312" xlink:href="#DejaVuSans-30"/>
       <use x="370.068359" xlink:href="#DejaVuSans-31"/>
      </g>
     </g>
    </g>
    <g id="ytick_11">
     <g id="line2d_28">
      <g>
       <use style="stroke:#000000;stroke-width:0.8;" x="504.3125" xlink:href="#m9e85e9efb7" y="169.366317"/>
      </g>
     </g>
     <g id="text_29">
      <!-- 0.0000 -->
      <g transform="translate(441.3275 175.445067)scale(0.16 -0.16)">
       <use xlink:href="#DejaVuSans-30"/>
       <use x="63.623047" xlink:href="#DejaVuSans-2e"/>
       <use x="95.410156" xlink:href="#DejaVuSans-30"/>
       <use x="159.033203" xlink:href="#DejaVuSans-30"/>
       <use x="222.65625" xlink:href="#DejaVuSans-30"/>
       <use x="286.279297" xlink:href="#DejaVuSans-30"/>
      </g>
     </g>
    </g>
    <g id="ytick_12">
     <g id="line2d_29">
      <g>
       <use style="stroke:#000000;stroke-width:0.8;" x="504.3125" xlink:href="#m9e85e9efb7" y="134.177015"/>
      </g>
     </g>
     <g id="text_30">
      <!-- 0.0001 -->
      <g transform="translate(441.3275 140.255765)scale(0.16 -0.16)">
       <use xlink:href="#DejaVuSans-30"/>
       <use x="63.623047" xlink:href="#DejaVuSans-2e"/>
       <use x="95.410156" xlink:href="#DejaVuSans-30"/>
       <use x="159.033203" xlink:href="#DejaVuSans-30"/>
       <use x="222.65625" xlink:href="#DejaVuSans-30"/>
       <use x="286.279297" xlink:href="#DejaVuSans-31"/>
      </g>
     </g>
    </g>
    <g id="ytick_13">
     <g id="line2d_30">
      <g>
       <use style="stroke:#000000;stroke-width:0.8;" x="504.3125" xlink:href="#m9e85e9efb7" y="98.987713"/>
      </g>
     </g>
     <g id="text_31">
      <!-- 0.0002 -->
      <g transform="translate(441.3275 105.066463)scale(0.16 -0.16)">
       <use xlink:href="#DejaVuSans-30"/>
       <use x="63.623047" xlink:href="#DejaVuSans-2e"/>
       <use x="95.410156" xlink:href="#DejaVuSans-30"/>
       <use x="159.033203" xlink:href="#DejaVuSans-30"/>
       <use x="222.65625" xlink:href="#DejaVuSans-30"/>
       <use x="286.279297" xlink:href="#DejaVuSans-32"/>
      </g>
     </g>
    </g>
    <g id="ytick_14">
     <g id="line2d_31">
      <g>
       <use style="stroke:#000000;stroke-width:0.8;" x="504.3125" xlink:href="#m9e85e9efb7" y="63.798411"/>
      </g>
     </g>
     <g id="text_32">
      <!-- 0.0003 -->
      <g transform="translate(441.3275 69.877161)scale(0.16 -0.16)">
       <use xlink:href="#DejaVuSans-30"/>
       <use x="63.623047" xlink:href="#DejaVuSans-2e"/>
       <use x="95.410156" xlink:href="#DejaVuSans-30"/>
       <use x="159.033203" xlink:href="#DejaVuSans-30"/>
       <use x="222.65625" xlink:href="#DejaVuSans-30"/>
       <use x="286.279297" xlink:href="#DejaVuSans-33"/>
      </g>
     </g>
    </g>
   </g>
   <g id="line2d_32">
    <g clip-path="url(#pd4802b7fe1)">
     <use style="fill:#1f77b4;stroke:#1f77b4;" x="664.001238" xlink:href="#mcf429ecb56" y="87.821299"/>
    </g>
   </g>
   <g id="line2d_33">
    <g clip-path="url(#pd4802b7fe1)">
     <use style="fill:#8c564b;stroke:#8c564b;" x="682.433523" xlink:href="#m7779eef983" y="178.754018"/>
    </g>
   </g>
   <g id="line2d_34">
    <g clip-path="url(#pd4802b7fe1)">
     <use style="fill:#ff7f0e;stroke:#ff7f0e;" x="666.821829" xlink:href="#ma1024c98a8" y="248.615946"/>
    </g>
   </g>
   <g id="line2d_35">
    <g clip-path="url(#pd4802b7fe1)">
     <use style="fill:#1f77b4;stroke:#1f77b4;" x="755.244364" xlink:href="#mcf429ecb56" y="204.038313"/>
    </g>
   </g>
   <g id="line2d_36">
    <g clip-path="url(#pd4802b7fe1)">
     <use style="fill:#8c564b;stroke:#8c564b;" x="631.616594" xlink:href="#m7779eef983" y="187.356686"/>
    </g>
   </g>
   <g id="line2d_37">
    <g clip-path="url(#pd4802b7fe1)">
     <use style="fill:#ff7f0e;stroke:#ff7f0e;" x="645.558189" xlink:href="#ma1024c98a8" y="128.247594"/>
    </g>
   </g>
   <g id="line2d_38">
    <g clip-path="url(#pd4802b7fe1)">
     <use style="fill:#2ca02c;stroke:#2ca02c;" x="708.948815" xlink:href="#mb2a8b9840f" y="99.064941"/>
    </g>
   </g>
   <g id="line2d_39">
    <g clip-path="url(#pd4802b7fe1)">
     <use style="fill:#2ca02c;stroke:#2ca02c;" x="516.261636" xlink:href="#mb2a8b9840f" y="160.550246"/>
    </g>
   </g>
   <g id="line2d_40">
    <g clip-path="url(#pd4802b7fe1)">
     <use style="fill:#d62728;stroke:#d62728;" x="738.800798" xlink:href="#m62f08aec1e" y="290.610538"/>
    </g>
   </g>
   <g id="line2d_41">
    <g clip-path="url(#pd4802b7fe1)">
     <use style="fill:#d62728;stroke:#d62728;" x="607.228376" xlink:href="#m62f08aec1e" y="108.603588"/>
    </g>
   </g>
   <g id="patch_18">
    <path d="M 504.3125 300.75 
L 504.3125 37.869 
" style="fill:none;stroke:#000000;stroke-linecap:square;stroke-linejoin:miter;stroke-width:0.8;"/>
   </g>
   <g id="patch_19">
    <path d="M 767.1935 300.75 
L 767.1935 37.869 
" style="fill:none;stroke:#000000;stroke-linecap:square;stroke-linejoin:miter;stroke-width:0.8;"/>
   </g>
   <g id="patch_20">
    <path d="M 504.3125 300.75 
L 767.1935 300.75 
" style="fill:none;stroke:#000000;stroke-linecap:square;stroke-linejoin:miter;stroke-width:0.8;"/>
   </g>
   <g id="patch_21">
    <path d="M 504.3125 37.869 
L 767.1935 37.869 
" style="fill:none;stroke:#000000;stroke-linecap:square;stroke-linejoin:miter;stroke-width:0.8;"/>
   </g>
   <g id="text_33">
    <g id="patch_22">
     <path d="M 662.081238 93.193799 
L 740.886238 93.193799 
L 740.886238 73.743799 
L 662.081238 73.743799 
z
" style="fill:#1f77b4;opacity:0.5;"/>
    </g>
    <!-- DelayGo -->
    <g transform="translate(664.001238 87.821299)scale(0.16 -0.16)">
     <use xlink:href="#DejaVuSans-Bold-44"/>
     <use x="83.007812" xlink:href="#DejaVuSans-Bold-65"/>
     <use x="150.830078" xlink:href="#DejaVuSans-Bold-6c"/>
     <use x="185.107422" xlink:href="#DejaVuSans-Bold-61"/>
     <use x="252.541016" xlink:href="#DejaVuSans-Bold-79"/>
     <use x="317.726562" xlink:href="#DejaVuSans-Bold-47"/>
     <use x="399.806641" xlink:href="#DejaVuSans-Bold-6f"/>
    </g>
   </g>
   <g id="text_34">
    <g id="patch_23">
     <path d="M 680.513523 184.001518 
L 759.581023 184.001518 
L 759.581023 164.676518 
L 680.513523 164.676518 
z
" style="fill:#8c564b;opacity:0.5;"/>
    </g>
    <!-- ReactGo -->
    <g transform="translate(682.433523 178.754018)scale(0.16 -0.16)">
     <use xlink:href="#DejaVuSans-Bold-52"/>
     <use x="77.001953" xlink:href="#DejaVuSans-Bold-65"/>
     <use x="144.824219" xlink:href="#DejaVuSans-Bold-61"/>
     <use x="212.304688" xlink:href="#DejaVuSans-Bold-63"/>
     <use x="271.582031" xlink:href="#DejaVuSans-Bold-74"/>
     <use x="319.384766" xlink:href="#DejaVuSans-Bold-47"/>
     <use x="401.464844" xlink:href="#DejaVuSans-Bold-6f"/>
    </g>
   </g>
   <g id="text_35">
    <g id="patch_24">
     <path d="M 664.901829 253.988446 
L 765.626829 253.988446 
L 765.626829 234.663446 
L 664.901829 234.663446 
z
" style="fill:#ff7f0e;opacity:0.5;"/>
    </g>
    <!-- MemoryGo -->
    <g transform="translate(666.821829 248.615946)scale(0.16 -0.16)">
     <use xlink:href="#DejaVuSans-Bold-4d"/>
     <use x="99.511719" xlink:href="#DejaVuSans-Bold-65"/>
     <use x="167.333984" xlink:href="#DejaVuSans-Bold-6d"/>
     <use x="271.533203" xlink:href="#DejaVuSans-Bold-6f"/>
     <use x="340.234375" xlink:href="#DejaVuSans-Bold-72"/>
     <use x="389.550781" xlink:href="#DejaVuSans-Bold-79"/>
     <use x="454.736328" xlink:href="#DejaVuSans-Bold-47"/>
     <use x="536.816406" xlink:href="#DejaVuSans-Bold-6f"/>
    </g>
   </g>
   <g id="text_36">
    <g id="patch_25">
     <path d="M 753.324364 209.410813 
L 844.909364 209.410813 
L 844.909364 189.960813 
L 753.324364 189.960813 
z
" style="fill:#1f77b4;opacity:0.5;"/>
    </g>
    <!-- DelayAnti -->
    <g transform="translate(755.244364 204.038313)scale(0.16 -0.16)">
     <use xlink:href="#DejaVuSans-Bold-44"/>
     <use x="83.007812" xlink:href="#DejaVuSans-Bold-65"/>
     <use x="150.830078" xlink:href="#DejaVuSans-Bold-6c"/>
     <use x="185.107422" xlink:href="#DejaVuSans-Bold-61"/>
     <use x="252.541016" xlink:href="#DejaVuSans-Bold-79"/>
     <use x="317.726562" xlink:href="#DejaVuSans-Bold-41"/>
     <use x="395.119141" xlink:href="#DejaVuSans-Bold-6e"/>
     <use x="466.310547" xlink:href="#DejaVuSans-Bold-74"/>
     <use x="514.113281" xlink:href="#DejaVuSans-Bold-69"/>
    </g>
   </g>
   <g id="text_37">
    <g id="patch_26">
     <path d="M 629.696594 192.604186 
L 721.544094 192.604186 
L 721.544094 173.279186 
L 629.696594 173.279186 
z
" style="fill:#8c564b;opacity:0.5;"/>
    </g>
    <!-- ReactAnti -->
    <g transform="translate(631.616594 187.356686)scale(0.16 -0.16)">
     <use xlink:href="#DejaVuSans-Bold-52"/>
     <use x="77.001953" xlink:href="#DejaVuSans-Bold-65"/>
     <use x="144.824219" xlink:href="#DejaVuSans-Bold-61"/>
     <use x="212.304688" xlink:href="#DejaVuSans-Bold-63"/>
     <use x="271.582031" xlink:href="#DejaVuSans-Bold-74"/>
     <use x="319.384766" xlink:href="#DejaVuSans-Bold-41"/>
     <use x="396.777344" xlink:href="#DejaVuSans-Bold-6e"/>
     <use x="467.96875" xlink:href="#DejaVuSans-Bold-74"/>
     <use x="515.771484" xlink:href="#DejaVuSans-Bold-69"/>
    </g>
   </g>
   <g id="text_38">
    <g id="patch_27">
     <path d="M 643.638189 133.620094 
L 757.143189 133.620094 
L 757.143189 114.170094 
L 643.638189 114.170094 
z
" style="fill:#ff7f0e;opacity:0.5;"/>
    </g>
    <!-- MemoryAnti -->
    <g transform="translate(645.558189 128.247594)scale(0.16 -0.16)">
     <use xlink:href="#DejaVuSans-Bold-4d"/>
     <use x="99.511719" xlink:href="#DejaVuSans-Bold-65"/>
     <use x="167.333984" xlink:href="#DejaVuSans-Bold-6d"/>
     <use x="271.533203" xlink:href="#DejaVuSans-Bold-6f"/>
     <use x="340.234375" xlink:href="#DejaVuSans-Bold-72"/>
     <use x="389.550781" xlink:href="#DejaVuSans-Bold-79"/>
     <use x="454.736328" xlink:href="#DejaVuSans-Bold-41"/>
     <use x="532.128906" xlink:href="#DejaVuSans-Bold-6e"/>
     <use x="603.320312" xlink:href="#DejaVuSans-Bold-74"/>
     <use x="651.123047" xlink:href="#DejaVuSans-Bold-69"/>
    </g>
   </g>
   <g id="text_39">
    <g id="patch_28">
     <path d="M 707.028815 104.437441 
L 905.653815 104.437441 
L 905.653815 84.987441 
L 707.028815 84.987441 
z
" style="fill:#2ca02c;opacity:0.5;"/>
    </g>
    <!-- MemoryMatchSample -->
    <g transform="translate(708.948815 99.064941)scale(0.16 -0.16)">
     <use xlink:href="#DejaVuSans-Bold-4d"/>
     <use x="99.511719" xlink:href="#DejaVuSans-Bold-65"/>
     <use x="167.333984" xlink:href="#DejaVuSans-Bold-6d"/>
     <use x="271.533203" xlink:href="#DejaVuSans-Bold-6f"/>
     <use x="340.234375" xlink:href="#DejaVuSans-Bold-72"/>
     <use x="389.550781" xlink:href="#DejaVuSans-Bold-79"/>
     <use x="454.736328" xlink:href="#DejaVuSans-Bold-4d"/>
     <use x="554.248047" xlink:href="#DejaVuSans-Bold-61"/>
     <use x="621.728516" xlink:href="#DejaVuSans-Bold-74"/>
     <use x="669.53125" xlink:href="#DejaVuSans-Bold-63"/>
     <use x="728.808594" xlink:href="#DejaVuSans-Bold-68"/>
     <use x="800" xlink:href="#DejaVuSans-Bold-53"/>
     <use x="872.021484" xlink:href="#DejaVuSans-Bold-61"/>
     <use x="939.501953" xlink:href="#DejaVuSans-Bold-6d"/>
     <use x="1043.701172" xlink:href="#DejaVuSans-Bold-70"/>
     <use x="1115.283203" xlink:href="#DejaVuSans-Bold-6c"/>
     <use x="1149.560547" xlink:href="#DejaVuSans-Bold-65"/>
    </g>
   </g>
   <g id="text_40">
    <g id="patch_29">
     <path d="M 514.341636 165.922746 
L 759.794136 165.922746 
L 759.794136 146.472746 
L 514.341636 146.472746 
z
" style="fill:#2ca02c;opacity:0.5;"/>
    </g>
    <!-- MemoryMatchSampleNogo -->
    <g transform="translate(516.261636 160.550246)scale(0.16 -0.16)">
     <use xlink:href="#DejaVuSans-Bold-4d"/>
     <use x="99.511719" xlink:href="#DejaVuSans-Bold-65"/>
     <use x="167.333984" xlink:href="#DejaVuSans-Bold-6d"/>
     <use x="271.533203" xlink:href="#DejaVuSans-Bold-6f"/>
     <use x="340.234375" xlink:href="#DejaVuSans-Bold-72"/>
     <use x="389.550781" xlink:href="#DejaVuSans-Bold-79"/>
     <use x="454.736328" xlink:href="#DejaVuSans-Bold-4d"/>
     <use x="554.248047" xlink:href="#DejaVuSans-Bold-61"/>
     <use x="621.728516" xlink:href="#DejaVuSans-Bold-74"/>
     <use x="669.53125" xlink:href="#DejaVuSans-Bold-63"/>
     <use x="728.808594" xlink:href="#DejaVuSans-Bold-68"/>
     <use x="800" xlink:href="#DejaVuSans-Bold-53"/>
     <use x="872.021484" xlink:href="#DejaVuSans-Bold-61"/>
     <use x="939.501953" xlink:href="#DejaVuSans-Bold-6d"/>
     <use x="1043.701172" xlink:href="#DejaVuSans-Bold-70"/>
     <use x="1115.283203" xlink:href="#DejaVuSans-Bold-6c"/>
     <use x="1149.560547" xlink:href="#DejaVuSans-Bold-65"/>
     <use x="1217.382812" xlink:href="#DejaVuSans-Bold-4e"/>
     <use x="1301.074219" xlink:href="#DejaVuSans-Bold-6f"/>
     <use x="1369.775391" xlink:href="#DejaVuSans-Bold-67"/>
     <use x="1441.357422" xlink:href="#DejaVuSans-Bold-6f"/>
    </g>
   </g>
   <g id="text_41">
    <g id="patch_30">
     <path d="M 736.880798 295.983038 
L 919.410798 295.983038 
L 919.410798 276.658038 
L 736.880798 276.658038 
z
" style="fill:#d62728;opacity:0.5;"/>
    </g>
    <!-- MemoryCategoryGo -->
    <g transform="translate(738.800798 290.610538)scale(0.16 -0.16)">
     <use xlink:href="#DejaVuSans-Bold-4d"/>
     <use x="99.511719" xlink:href="#DejaVuSans-Bold-65"/>
     <use x="167.333984" xlink:href="#DejaVuSans-Bold-6d"/>
     <use x="271.533203" xlink:href="#DejaVuSans-Bold-6f"/>
     <use x="340.234375" xlink:href="#DejaVuSans-Bold-72"/>
     <use x="389.550781" xlink:href="#DejaVuSans-Bold-79"/>
     <use x="454.736328" xlink:href="#DejaVuSans-Bold-43"/>
     <use x="528.125" xlink:href="#DejaVuSans-Bold-61"/>
     <use x="595.605469" xlink:href="#DejaVuSans-Bold-74"/>
     <use x="643.408203" xlink:href="#DejaVuSans-Bold-65"/>
     <use x="711.230469" xlink:href="#DejaVuSans-Bold-67"/>
     <use x="782.8125" xlink:href="#DejaVuSans-Bold-6f"/>
     <use x="851.513672" xlink:href="#DejaVuSans-Bold-72"/>
     <use x="900.830078" xlink:href="#DejaVuSans-Bold-79"/>
     <use x="966.015625" xlink:href="#DejaVuSans-Bold-47"/>
     <use x="1048.095703" xlink:href="#DejaVuSans-Bold-6f"/>
    </g>
   </g>
   <g id="text_42">
    <g id="patch_31">
     <path d="M 605.308376 113.976088 
L 812.220876 113.976088 
L 812.220876 94.651088 
L 605.308376 94.651088 
z
" style="fill:#d62728;opacity:0.5;"/>
    </g>
    <!-- MemoryCategoryNoGo -->
    <g transform="translate(607.228376 108.603588)scale(0.16 -0.16)">
     <use xlink:href="#DejaVuSans-Bold-4d"/>
     <use x="99.511719" xlink:href="#DejaVuSans-Bold-65"/>
     <use x="167.333984" xlink:href="#DejaVuSans-Bold-6d"/>
     <use x="271.533203" xlink:href="#DejaVuSans-Bold-6f"/>
     <use x="340.234375" xlink:href="#DejaVuSans-Bold-72"/>
     <use x="389.550781" xlink:href="#DejaVuSans-Bold-79"/>
     <use x="454.736328" xlink:href="#DejaVuSans-Bold-43"/>
     <use x="528.125" xlink:href="#DejaVuSans-Bold-61"/>
     <use x="595.605469" xlink:href="#DejaVuSans-Bold-74"/>
     <use x="643.408203" xlink:href="#DejaVuSans-Bold-65"/>
     <use x="711.230469" xlink:href="#DejaVuSans-Bold-67"/>
     <use x="782.8125" xlink:href="#DejaVuSans-Bold-6f"/>
     <use x="851.513672" xlink:href="#DejaVuSans-Bold-72"/>
     <use x="900.830078" xlink:href="#DejaVuSans-Bold-79"/>
     <use x="966.015625" xlink:href="#DejaVuSans-Bold-4e"/>
     <use x="1049.707031" xlink:href="#DejaVuSans-Bold-6f"/>
     <use x="1118.408203" xlink:href="#DejaVuSans-Bold-47"/>
     <use x="1200.488281" xlink:href="#DejaVuSans-Bold-6f"/>
    </g>
   </g>
   <g id="text_43">
    <!-- stim1 -->
    <defs>
     <path d="M 44.28125 53.078125 
L 44.28125 44.578125 
Q 40.484375 46.53125 36.375 47.5 
Q 32.28125 48.484375 27.875 48.484375 
Q 21.1875 48.484375 17.84375 46.4375 
Q 14.5 44.390625 14.5 40.28125 
Q 14.5 37.15625 16.890625 35.375 
Q 19.28125 33.59375 26.515625 31.984375 
L 29.59375 31.296875 
Q 39.15625 29.25 43.1875 25.515625 
Q 47.21875 21.78125 47.21875 15.09375 
Q 47.21875 7.46875 41.1875 3.015625 
Q 35.15625 -1.421875 24.609375 -1.421875 
Q 20.21875 -1.421875 15.453125 -0.5625 
Q 10.6875 0.296875 5.421875 2 
L 5.421875 11.28125 
Q 10.40625 8.6875 15.234375 7.390625 
Q 20.0625 6.109375 24.8125 6.109375 
Q 31.15625 6.109375 34.5625 8.28125 
Q 37.984375 10.453125 37.984375 14.40625 
Q 37.984375 18.0625 35.515625 20.015625 
Q 33.0625 21.96875 24.703125 23.78125 
L 21.578125 24.515625 
Q 13.234375 26.265625 9.515625 29.90625 
Q 5.8125 33.546875 5.8125 39.890625 
Q 5.8125 47.609375 11.28125 51.796875 
Q 16.75 56 26.8125 56 
Q 31.78125 56 36.171875 55.265625 
Q 40.578125 54.546875 44.28125 53.078125 
z
" id="DejaVuSans-73"/>
     <path d="M 9.421875 54.6875 
L 18.40625 54.6875 
L 18.40625 0 
L 9.421875 0 
z
M 9.421875 75.984375 
L 18.40625 75.984375 
L 18.40625 64.59375 
L 9.421875 64.59375 
z
" id="DejaVuSans-69"/>
     <path d="M 52 44.1875 
Q 55.375 50.25 60.0625 53.125 
Q 64.75 56 71.09375 56 
Q 79.640625 56 84.28125 50.015625 
Q 88.921875 44.046875 88.921875 33.015625 
L 88.921875 0 
L 79.890625 0 
L 79.890625 32.71875 
Q 79.890625 40.578125 77.09375 44.375 
Q 74.3125 48.1875 68.609375 48.1875 
Q 61.625 48.1875 57.5625 43.546875 
Q 53.515625 38.921875 53.515625 30.90625 
L 53.515625 0 
L 44.484375 0 
L 44.484375 32.71875 
Q 44.484375 40.625 41.703125 44.40625 
Q 38.921875 48.1875 33.109375 48.1875 
Q 26.21875 48.1875 22.15625 43.53125 
Q 18.109375 38.875 18.109375 30.90625 
L 18.109375 0 
L 9.078125 0 
L 9.078125 54.6875 
L 18.109375 54.6875 
L 18.109375 46.1875 
Q 21.1875 51.21875 25.484375 53.609375 
Q 29.78125 56 35.6875 56 
Q 41.65625 56 45.828125 52.96875 
Q 50 49.953125 52 44.1875 
z
" id="DejaVuSans-6d"/>
    </defs>
    <g transform="translate(608.8625 31.869)scale(0.192 -0.192)">
     <use xlink:href="#DejaVuSans-73"/>
     <use x="52.099609" xlink:href="#DejaVuSans-74"/>
     <use x="91.308594" xlink:href="#DejaVuSans-69"/>
     <use x="119.091797" xlink:href="#DejaVuSans-6d"/>
     <use x="216.503906" xlink:href="#DejaVuSans-31"/>
    </g>
   </g>
  </g>
  <g id="axes_3">
   <g id="patch_32">
    <path d="M 928.627 300.75 
L 1191.508 300.75 
L 1191.508 37.869 
L 928.627 37.869 
z
" style="fill:#ffffff;"/>
   </g>
   <g id="matplotlib.axis_5">
    <g id="xtick_8">
     <g id="line2d_42">
      <g>
       <use style="stroke:#000000;stroke-width:0.8;" x="929.418637" xlink:href="#mb8b56b8ba1" y="300.75"/>
      </g>
     </g>
     <g id="text_44">
      <!-- −0.5 -->
      <g transform="translate(909.992387 319.9075)scale(0.16 -0.16)">
       <use xlink:href="#DejaVuSans-2212"/>
       <use x="83.789062" xlink:href="#DejaVuSans-30"/>
       <use x="147.412109" xlink:href="#DejaVuSans-2e"/>
       <use x="179.199219" xlink:href="#DejaVuSans-35"/>
      </g>
     </g>
    </g>
    <g id="xtick_9">
     <g id="line2d_43">
      <g>
       <use style="stroke:#000000;stroke-width:0.8;" x="1029.30909" xlink:href="#mb8b56b8ba1" y="300.75"/>
      </g>
     </g>
     <g id="text_45">
      <!-- 0.0 -->
      <g transform="translate(1016.58659 319.9075)scale(0.16 -0.16)">
       <use xlink:href="#DejaVuSans-30"/>
       <use x="63.623047" xlink:href="#DejaVuSans-2e"/>
       <use x="95.410156" xlink:href="#DejaVuSans-30"/>
      </g>
     </g>
    </g>
    <g id="xtick_10">
     <g id="line2d_44">
      <g>
       <use style="stroke:#000000;stroke-width:0.8;" x="1129.199543" xlink:href="#mb8b56b8ba1" y="300.75"/>
      </g>
     </g>
     <g id="text_46">
      <!-- 0.5 -->
      <g transform="translate(1116.477043 319.9075)scale(0.16 -0.16)">
       <use xlink:href="#DejaVuSans-30"/>
       <use x="63.623047" xlink:href="#DejaVuSans-2e"/>
       <use x="95.410156" xlink:href="#DejaVuSans-35"/>
      </g>
     </g>
    </g>
    <g id="text_47">
     <!-- MDS1 -->
     <defs>
      <path d="M 9.8125 72.90625 
L 24.515625 72.90625 
L 43.109375 23.296875 
L 61.8125 72.90625 
L 76.515625 72.90625 
L 76.515625 0 
L 66.890625 0 
L 66.890625 64.015625 
L 48.09375 14.015625 
L 38.1875 14.015625 
L 19.390625 64.015625 
L 19.390625 0 
L 9.8125 0 
z
" id="DejaVuSans-4d"/>
      <path d="M 19.671875 64.796875 
L 19.671875 8.109375 
L 31.59375 8.109375 
Q 46.6875 8.109375 53.6875 14.9375 
Q 60.6875 21.78125 60.6875 36.53125 
Q 60.6875 51.171875 53.6875 57.984375 
Q 46.6875 64.796875 31.59375 64.796875 
z
M 9.8125 72.90625 
L 30.078125 72.90625 
Q 51.265625 72.90625 61.171875 64.09375 
Q 71.09375 55.28125 71.09375 36.53125 
Q 71.09375 17.671875 61.125 8.828125 
Q 51.171875 0 30.078125 0 
L 9.8125 0 
z
" id="DejaVuSans-44"/>
      <path d="M 53.515625 70.515625 
L 53.515625 60.890625 
Q 47.90625 63.578125 42.921875 64.890625 
Q 37.9375 66.21875 33.296875 66.21875 
Q 25.25 66.21875 20.875 63.09375 
Q 16.5 59.96875 16.5 54.203125 
Q 16.5 49.359375 19.40625 46.890625 
Q 22.3125 44.4375 30.421875 42.921875 
L 36.375 41.703125 
Q 47.40625 39.59375 52.65625 34.296875 
Q 57.90625 29 57.90625 20.125 
Q 57.90625 9.515625 50.796875 4.046875 
Q 43.703125 -1.421875 29.984375 -1.421875 
Q 24.8125 -1.421875 18.96875 -0.25 
Q 13.140625 0.921875 6.890625 3.21875 
L 6.890625 13.375 
Q 12.890625 10.015625 18.65625 8.296875 
Q 24.421875 6.59375 29.984375 6.59375 
Q 38.421875 6.59375 43.015625 9.90625 
Q 47.609375 13.234375 47.609375 19.390625 
Q 47.609375 24.75 44.3125 27.78125 
Q 41.015625 30.8125 33.5 32.328125 
L 27.484375 33.5 
Q 16.453125 35.6875 11.515625 40.375 
Q 6.59375 45.0625 6.59375 53.421875 
Q 6.59375 63.09375 13.40625 68.65625 
Q 20.21875 74.21875 32.171875 74.21875 
Q 37.3125 74.21875 42.625 73.28125 
Q 47.953125 72.359375 53.515625 70.515625 
z
" id="DejaVuSans-53"/>
     </defs>
     <g transform="translate(1036.83625 339.3925)scale(0.16 -0.16)">
      <use xlink:href="#DejaVuSans-4d"/>
      <use x="86.279297" xlink:href="#DejaVuSans-44"/>
      <use x="163.28125" xlink:href="#DejaVuSans-53"/>
      <use x="226.757812" xlink:href="#DejaVuSans-31"/>
     </g>
    </g>
   </g>
   <g id="matplotlib.axis_6">
    <g id="ytick_15">
     <g id="line2d_45">
      <g>
       <use style="stroke:#000000;stroke-width:0.8;" x="928.627" xlink:href="#m9e85e9efb7" y="278.361571"/>
      </g>
     </g>
     <g id="text_48">
      <!-- −0.4 -->
      <g transform="translate(882.7745 284.440321)scale(0.16 -0.16)">
       <use xlink:href="#DejaVuSans-2212"/>
       <use x="83.789062" xlink:href="#DejaVuSans-30"/>
       <use x="147.412109" xlink:href="#DejaVuSans-2e"/>
       <use x="179.199219" xlink:href="#DejaVuSans-34"/>
      </g>
     </g>
    </g>
    <g id="ytick_16">
     <g id="line2d_46">
      <g>
       <use style="stroke:#000000;stroke-width:0.8;" x="928.627" xlink:href="#m9e85e9efb7" y="238.40539"/>
      </g>
     </g>
     <g id="text_49">
      <!-- −0.2 -->
      <g transform="translate(882.7745 244.48414)scale(0.16 -0.16)">
       <use xlink:href="#DejaVuSans-2212"/>
       <use x="83.789062" xlink:href="#DejaVuSans-30"/>
       <use x="147.412109" xlink:href="#DejaVuSans-2e"/>
       <use x="179.199219" xlink:href="#DejaVuSans-32"/>
      </g>
     </g>
    </g>
    <g id="ytick_17">
     <g id="line2d_47">
      <g>
       <use style="stroke:#000000;stroke-width:0.8;" x="928.627" xlink:href="#m9e85e9efb7" y="198.449208"/>
      </g>
     </g>
     <g id="text_50">
      <!-- 0.0 -->
      <g transform="translate(896.182 204.527958)scale(0.16 -0.16)">
       <use xlink:href="#DejaVuSans-30"/>
       <use x="63.623047" xlink:href="#DejaVuSans-2e"/>
       <use x="95.410156" xlink:href="#DejaVuSans-30"/>
      </g>
     </g>
    </g>
    <g id="ytick_18">
     <g id="line2d_48">
      <g>
       <use style="stroke:#000000;stroke-width:0.8;" x="928.627" xlink:href="#m9e85e9efb7" y="158.493027"/>
      </g>
     </g>
     <g id="text_51">
      <!-- 0.2 -->
      <g transform="translate(896.182 164.571777)scale(0.16 -0.16)">
       <use xlink:href="#DejaVuSans-30"/>
       <use x="63.623047" xlink:href="#DejaVuSans-2e"/>
       <use x="95.410156" xlink:href="#DejaVuSans-32"/>
      </g>
     </g>
    </g>
    <g id="ytick_19">
     <g id="line2d_49">
      <g>
       <use style="stroke:#000000;stroke-width:0.8;" x="928.627" xlink:href="#m9e85e9efb7" y="118.536846"/>
      </g>
     </g>
     <g id="text_52">
      <!-- 0.4 -->
      <g transform="translate(896.182 124.615596)scale(0.16 -0.16)">
       <use xlink:href="#DejaVuSans-30"/>
       <use x="63.623047" xlink:href="#DejaVuSans-2e"/>
       <use x="95.410156" xlink:href="#DejaVuSans-34"/>
      </g>
     </g>
    </g>
    <g id="ytick_20">
     <g id="line2d_50">
      <g>
       <use style="stroke:#000000;stroke-width:0.8;" x="928.627" xlink:href="#m9e85e9efb7" y="78.580665"/>
      </g>
     </g>
     <g id="text_53">
      <!-- 0.6 -->
      <g transform="translate(896.182 84.659415)scale(0.16 -0.16)">
       <use xlink:href="#DejaVuSans-30"/>
       <use x="63.623047" xlink:href="#DejaVuSans-2e"/>
       <use x="95.410156" xlink:href="#DejaVuSans-36"/>
      </g>
     </g>
    </g>
    <g id="ytick_21">
     <g id="line2d_51">
      <g>
       <use style="stroke:#000000;stroke-width:0.8;" x="928.627" xlink:href="#m9e85e9efb7" y="38.624484"/>
      </g>
     </g>
     <g id="text_54">
      <!-- 0.8 -->
      <defs>
       <path d="M 31.78125 34.625 
Q 24.75 34.625 20.71875 30.859375 
Q 16.703125 27.09375 16.703125 20.515625 
Q 16.703125 13.921875 20.71875 10.15625 
Q 24.75 6.390625 31.78125 6.390625 
Q 38.8125 6.390625 42.859375 10.171875 
Q 46.921875 13.96875 46.921875 20.515625 
Q 46.921875 27.09375 42.890625 30.859375 
Q 38.875 34.625 31.78125 34.625 
z
M 21.921875 38.8125 
Q 15.578125 40.375 12.03125 44.71875 
Q 8.5 49.078125 8.5 55.328125 
Q 8.5 64.0625 14.71875 69.140625 
Q 20.953125 74.21875 31.78125 74.21875 
Q 42.671875 74.21875 48.875 69.140625 
Q 55.078125 64.0625 55.078125 55.328125 
Q 55.078125 49.078125 51.53125 44.71875 
Q 48 40.375 41.703125 38.8125 
Q 48.828125 37.15625 52.796875 32.3125 
Q 56.78125 27.484375 56.78125 20.515625 
Q 56.78125 9.90625 50.3125 4.234375 
Q 43.84375 -1.421875 31.78125 -1.421875 
Q 19.734375 -1.421875 13.25 4.234375 
Q 6.78125 9.90625 6.78125 20.515625 
Q 6.78125 27.484375 10.78125 32.3125 
Q 14.796875 37.15625 21.921875 38.8125 
z
M 18.3125 54.390625 
Q 18.3125 48.734375 21.84375 45.5625 
Q 25.390625 42.390625 31.78125 42.390625 
Q 38.140625 42.390625 41.71875 45.5625 
Q 45.3125 48.734375 45.3125 54.390625 
Q 45.3125 60.0625 41.71875 63.234375 
Q 38.140625 66.40625 31.78125 66.40625 
Q 25.390625 66.40625 21.84375 63.234375 
Q 18.3125 60.0625 18.3125 54.390625 
z
" id="DejaVuSans-38"/>
      </defs>
      <g transform="translate(896.182 44.703234)scale(0.16 -0.16)">
       <use xlink:href="#DejaVuSans-30"/>
       <use x="63.623047" xlink:href="#DejaVuSans-2e"/>
       <use x="95.410156" xlink:href="#DejaVuSans-38"/>
      </g>
     </g>
    </g>
    <g id="text_55">
     <!-- MDS2 -->
     <g transform="translate(875.447 192.54075)rotate(-90)scale(0.16 -0.16)">
      <use xlink:href="#DejaVuSans-4d"/>
      <use x="86.279297" xlink:href="#DejaVuSans-44"/>
      <use x="163.28125" xlink:href="#DejaVuSans-53"/>
      <use x="226.757812" xlink:href="#DejaVuSans-32"/>
     </g>
    </g>
   </g>
   <g id="line2d_52">
    <g clip-path="url(#pdc74c9c4f6)">
     <use style="fill:#1f77b4;stroke:#1f77b4;" x="1009.884036" xlink:href="#mcf429ecb56" y="187.920277"/>
    </g>
   </g>
   <g id="line2d_53">
    <g clip-path="url(#pdc74c9c4f6)">
     <use style="fill:#8c564b;stroke:#8c564b;" x="992.07128" xlink:href="#m7779eef983" y="186.080099"/>
    </g>
   </g>
   <g id="line2d_54">
    <g clip-path="url(#pdc74c9c4f6)">
     <use style="fill:#ff7f0e;stroke:#ff7f0e;" x="1178.83844" xlink:href="#ma1024c98a8" y="218.330563"/>
    </g>
   </g>
   <g id="line2d_55">
    <g clip-path="url(#pdc74c9c4f6)">
     <use style="fill:#1f77b4;stroke:#1f77b4;" x="1010.363732" xlink:href="#mcf429ecb56" y="190.812033"/>
    </g>
   </g>
   <g id="line2d_56">
    <g clip-path="url(#pdc74c9c4f6)">
     <use style="fill:#8c564b;stroke:#8c564b;" x="990.514533" xlink:href="#m7779eef983" y="187.806479"/>
    </g>
   </g>
   <g id="line2d_57">
    <g clip-path="url(#pdc74c9c4f6)">
     <use style="fill:#ff7f0e;stroke:#ff7f0e;" x="1179.558864" xlink:href="#ma1024c98a8" y="212.066864"/>
    </g>
   </g>
   <g id="line2d_58">
    <g clip-path="url(#pdc74c9c4f6)">
     <use style="fill:#2ca02c;stroke:#2ca02c;" x="940.576136" xlink:href="#mb2a8b9840f" y="143.846098"/>
    </g>
   </g>
   <g id="line2d_59">
    <g clip-path="url(#pdc74c9c4f6)">
     <use style="fill:#2ca02c;stroke:#2ca02c;" x="1026.575487" xlink:href="#mb2a8b9840f" y="104.284448"/>
    </g>
   </g>
   <g id="line2d_60">
    <g clip-path="url(#pdc74c9c4f6)">
     <use style="fill:#d62728;stroke:#d62728;" x="948.221043" xlink:href="#m62f08aec1e" y="261.950725"/>
    </g>
   </g>
   <g id="line2d_61">
    <g clip-path="url(#pdc74c9c4f6)">
     <use style="fill:#d62728;stroke:#d62728;" x="1016.48735" xlink:href="#m62f08aec1e" y="291.394498"/>
    </g>
   </g>
   <g id="patch_33">
    <path d="M 928.627 300.75 
L 928.627 37.869 
" style="fill:none;stroke:#000000;stroke-linecap:square;stroke-linejoin:miter;stroke-width:0.8;"/>
   </g>
   <g id="patch_34">
    <path d="M 1191.508 300.75 
L 1191.508 37.869 
" style="fill:none;stroke:#000000;stroke-linecap:square;stroke-linejoin:miter;stroke-width:0.8;"/>
   </g>
   <g id="patch_35">
    <path d="M 928.627 300.75 
L 1191.508 300.75 
" style="fill:none;stroke:#000000;stroke-linecap:square;stroke-linejoin:miter;stroke-width:0.8;"/>
   </g>
   <g id="patch_36">
    <path d="M 928.627 37.869 
L 1191.508 37.869 
" style="fill:none;stroke:#000000;stroke-linecap:square;stroke-linejoin:miter;stroke-width:0.8;"/>
   </g>
   <g id="text_56">
    <g id="patch_37">
     <path d="M 1007.964036 193.292777 
L 1086.769036 193.292777 
L 1086.769036 173.842777 
L 1007.964036 173.842777 
z
" style="fill:#1f77b4;opacity:0.5;"/>
    </g>
    <!-- DelayGo -->
    <g transform="translate(1009.884036 187.920277)scale(0.16 -0.16)">
     <use xlink:href="#DejaVuSans-Bold-44"/>
     <use x="83.007812" xlink:href="#DejaVuSans-Bold-65"/>
     <use x="150.830078" xlink:href="#DejaVuSans-Bold-6c"/>
     <use x="185.107422" xlink:href="#DejaVuSans-Bold-61"/>
     <use x="252.541016" xlink:href="#DejaVuSans-Bold-79"/>
     <use x="317.726562" xlink:href="#DejaVuSans-Bold-47"/>
     <use x="399.806641" xlink:href="#DejaVuSans-Bold-6f"/>
    </g>
   </g>
   <g id="text_57">
    <g id="patch_38">
     <path d="M 990.15128 191.327599 
L 1069.21878 191.327599 
L 1069.21878 172.002599 
L 990.15128 172.002599 
z
" style="fill:#8c564b;opacity:0.5;"/>
    </g>
    <!-- ReactGo -->
    <g transform="translate(992.07128 186.080099)scale(0.16 -0.16)">
     <use xlink:href="#DejaVuSans-Bold-52"/>
     <use x="77.001953" xlink:href="#DejaVuSans-Bold-65"/>
     <use x="144.824219" xlink:href="#DejaVuSans-Bold-61"/>
     <use x="212.304688" xlink:href="#DejaVuSans-Bold-63"/>
     <use x="271.582031" xlink:href="#DejaVuSans-Bold-74"/>
     <use x="319.384766" xlink:href="#DejaVuSans-Bold-47"/>
     <use x="401.464844" xlink:href="#DejaVuSans-Bold-6f"/>
    </g>
   </g>
   <g id="text_58">
    <g id="patch_39">
     <path d="M 1176.91844 223.703063 
L 1277.64344 223.703063 
L 1277.64344 204.378063 
L 1176.91844 204.378063 
z
" style="fill:#ff7f0e;opacity:0.5;"/>
    </g>
    <!-- MemoryGo -->
    <g transform="translate(1178.83844 218.330563)scale(0.16 -0.16)">
     <use xlink:href="#DejaVuSans-Bold-4d"/>
     <use x="99.511719" xlink:href="#DejaVuSans-Bold-65"/>
     <use x="167.333984" xlink:href="#DejaVuSans-Bold-6d"/>
     <use x="271.533203" xlink:href="#DejaVuSans-Bold-6f"/>
     <use x="340.234375" xlink:href="#DejaVuSans-Bold-72"/>
     <use x="389.550781" xlink:href="#DejaVuSans-Bold-79"/>
     <use x="454.736328" xlink:href="#DejaVuSans-Bold-47"/>
     <use x="536.816406" xlink:href="#DejaVuSans-Bold-6f"/>
    </g>
   </g>
   <g id="text_59">
    <g id="patch_40">
     <path d="M 1008.443732 196.184533 
L 1100.028732 196.184533 
L 1100.028732 176.734533 
L 1008.443732 176.734533 
z
" style="fill:#1f77b4;opacity:0.5;"/>
    </g>
    <!-- DelayAnti -->
    <g transform="translate(1010.363732 190.812033)scale(0.16 -0.16)">
     <use xlink:href="#DejaVuSans-Bold-44"/>
     <use x="83.007812" xlink:href="#DejaVuSans-Bold-65"/>
     <use x="150.830078" xlink:href="#DejaVuSans-Bold-6c"/>
     <use x="185.107422" xlink:href="#DejaVuSans-Bold-61"/>
     <use x="252.541016" xlink:href="#DejaVuSans-Bold-79"/>
     <use x="317.726562" xlink:href="#DejaVuSans-Bold-41"/>
     <use x="395.119141" xlink:href="#DejaVuSans-Bold-6e"/>
     <use x="466.310547" xlink:href="#DejaVuSans-Bold-74"/>
     <use x="514.113281" xlink:href="#DejaVuSans-Bold-69"/>
    </g>
   </g>
   <g id="text_60">
    <g id="patch_41">
     <path d="M 988.594533 193.053979 
L 1080.442033 193.053979 
L 1080.442033 173.728979 
L 988.594533 173.728979 
z
" style="fill:#8c564b;opacity:0.5;"/>
    </g>
    <!-- ReactAnti -->
    <g transform="translate(990.514533 187.806479)scale(0.16 -0.16)">
     <use xlink:href="#DejaVuSans-Bold-52"/>
     <use x="77.001953" xlink:href="#DejaVuSans-Bold-65"/>
     <use x="144.824219" xlink:href="#DejaVuSans-Bold-61"/>
     <use x="212.304688" xlink:href="#DejaVuSans-Bold-63"/>
     <use x="271.582031" xlink:href="#DejaVuSans-Bold-74"/>
     <use x="319.384766" xlink:href="#DejaVuSans-Bold-41"/>
     <use x="396.777344" xlink:href="#DejaVuSans-Bold-6e"/>
     <use x="467.96875" xlink:href="#DejaVuSans-Bold-74"/>
     <use x="515.771484" xlink:href="#DejaVuSans-Bold-69"/>
    </g>
   </g>
   <g id="text_61">
    <g id="patch_42">
     <path d="M 1177.638864 217.439364 
L 1291.143864 217.439364 
L 1291.143864 197.989364 
L 1177.638864 197.989364 
z
" style="fill:#ff7f0e;opacity:0.5;"/>
    </g>
    <!-- MemoryAnti -->
    <g transform="translate(1179.558864 212.066864)scale(0.16 -0.16)">
     <use xlink:href="#DejaVuSans-Bold-4d"/>
     <use x="99.511719" xlink:href="#DejaVuSans-Bold-65"/>
     <use x="167.333984" xlink:href="#DejaVuSans-Bold-6d"/>
     <use x="271.533203" xlink:href="#DejaVuSans-Bold-6f"/>
     <use x="340.234375" xlink:href="#DejaVuSans-Bold-72"/>
     <use x="389.550781" xlink:href="#DejaVuSans-Bold-79"/>
     <use x="454.736328" xlink:href="#DejaVuSans-Bold-41"/>
     <use x="532.128906" xlink:href="#DejaVuSans-Bold-6e"/>
     <use x="603.320312" xlink:href="#DejaVuSans-Bold-74"/>
     <use x="651.123047" xlink:href="#DejaVuSans-Bold-69"/>
    </g>
   </g>
   <g id="text_62">
    <g id="patch_43">
     <path d="M 938.656136 149.218598 
L 1137.281136 149.218598 
L 1137.281136 129.768598 
L 938.656136 129.768598 
z
" style="fill:#2ca02c;opacity:0.5;"/>
    </g>
    <!-- MemoryMatchSample -->
    <g transform="translate(940.576136 143.846098)scale(0.16 -0.16)">
     <use xlink:href="#DejaVuSans-Bold-4d"/>
     <use x="99.511719" xlink:href="#DejaVuSans-Bold-65"/>
     <use x="167.333984" xlink:href="#DejaVuSans-Bold-6d"/>
     <use x="271.533203" xlink:href="#DejaVuSans-Bold-6f"/>
     <use x="340.234375" xlink:href="#DejaVuSans-Bold-72"/>
     <use x="389.550781" xlink:href="#DejaVuSans-Bold-79"/>
     <use x="454.736328" xlink:href="#DejaVuSans-Bold-4d"/>
     <use x="554.248047" xlink:href="#DejaVuSans-Bold-61"/>
     <use x="621.728516" xlink:href="#DejaVuSans-Bold-74"/>
     <use x="669.53125" xlink:href="#DejaVuSans-Bold-63"/>
     <use x="728.808594" xlink:href="#DejaVuSans-Bold-68"/>
     <use x="800" xlink:href="#DejaVuSans-Bold-53"/>
     <use x="872.021484" xlink:href="#DejaVuSans-Bold-61"/>
     <use x="939.501953" xlink:href="#DejaVuSans-Bold-6d"/>
     <use x="1043.701172" xlink:href="#DejaVuSans-Bold-70"/>
     <use x="1115.283203" xlink:href="#DejaVuSans-Bold-6c"/>
     <use x="1149.560547" xlink:href="#DejaVuSans-Bold-65"/>
    </g>
   </g>
   <g id="text_63">
    <g id="patch_44">
     <path d="M 1024.655487 109.656948 
L 1270.107987 109.656948 
L 1270.107987 90.206948 
L 1024.655487 90.206948 
z
" style="fill:#2ca02c;opacity:0.5;"/>
    </g>
    <!-- MemoryMatchSampleNogo -->
    <g transform="translate(1026.575487 104.284448)scale(0.16 -0.16)">
     <use xlink:href="#DejaVuSans-Bold-4d"/>
     <use x="99.511719" xlink:href="#DejaVuSans-Bold-65"/>
     <use x="167.333984" xlink:href="#DejaVuSans-Bold-6d"/>
     <use x="271.533203" xlink:href="#DejaVuSans-Bold-6f"/>
     <use x="340.234375" xlink:href="#DejaVuSans-Bold-72"/>
     <use x="389.550781" xlink:href="#DejaVuSans-Bold-79"/>
     <use x="454.736328" xlink:href="#DejaVuSans-Bold-4d"/>
     <use x="554.248047" xlink:href="#DejaVuSans-Bold-61"/>
     <use x="621.728516" xlink:href="#DejaVuSans-Bold-74"/>
     <use x="669.53125" xlink:href="#DejaVuSans-Bold-63"/>
     <use x="728.808594" xlink:href="#DejaVuSans-Bold-68"/>
     <use x="800" xlink:href="#DejaVuSans-Bold-53"/>
     <use x="872.021484" xlink:href="#DejaVuSans-Bold-61"/>
     <use x="939.501953" xlink:href="#DejaVuSans-Bold-6d"/>
     <use x="1043.701172" xlink:href="#DejaVuSans-Bold-70"/>
     <use x="1115.283203" xlink:href="#DejaVuSans-Bold-6c"/>
     <use x="1149.560547" xlink:href="#DejaVuSans-Bold-65"/>
     <use x="1217.382812" xlink:href="#DejaVuSans-Bold-4e"/>
     <use x="1301.074219" xlink:href="#DejaVuSans-Bold-6f"/>
     <use x="1369.775391" xlink:href="#DejaVuSans-Bold-67"/>
     <use x="1441.357422" xlink:href="#DejaVuSans-Bold-6f"/>
    </g>
   </g>
   <g id="text_64">
    <g id="patch_45">
     <path d="M 946.301043 267.323225 
L 1128.831043 267.323225 
L 1128.831043 247.998225 
L 946.301043 247.998225 
z
" style="fill:#d62728;opacity:0.5;"/>
    </g>
    <!-- MemoryCategoryGo -->
    <g transform="translate(948.221043 261.950725)scale(0.16 -0.16)">
     <use xlink:href="#DejaVuSans-Bold-4d"/>
     <use x="99.511719" xlink:href="#DejaVuSans-Bold-65"/>
     <use x="167.333984" xlink:href="#DejaVuSans-Bold-6d"/>
     <use x="271.533203" xlink:href="#DejaVuSans-Bold-6f"/>
     <use x="340.234375" xlink:href="#DejaVuSans-Bold-72"/>
     <use x="389.550781" xlink:href="#DejaVuSans-Bold-79"/>
     <use x="454.736328" xlink:href="#DejaVuSans-Bold-43"/>
     <use x="528.125" xlink:href="#DejaVuSans-Bold-61"/>
     <use x="595.605469" xlink:href="#DejaVuSans-Bold-74"/>
     <use x="643.408203" xlink:href="#DejaVuSans-Bold-65"/>
     <use x="711.230469" xlink:href="#DejaVuSans-Bold-67"/>
     <use x="782.8125" xlink:href="#DejaVuSans-Bold-6f"/>
     <use x="851.513672" xlink:href="#DejaVuSans-Bold-72"/>
     <use x="900.830078" xlink:href="#DejaVuSans-Bold-79"/>
     <use x="966.015625" xlink:href="#DejaVuSans-Bold-47"/>
     <use x="1048.095703" xlink:href="#DejaVuSans-Bold-6f"/>
    </g>
   </g>
   <g id="text_65">
    <g id="patch_46">
     <path d="M 1014.56735 296.766998 
L 1221.47985 296.766998 
L 1221.47985 277.441998 
L 1014.56735 277.441998 
z
" style="fill:#d62728;opacity:0.5;"/>
    </g>
    <!-- MemoryCategoryNoGo -->
    <g transform="translate(1016.48735 291.394498)scale(0.16 -0.16)">
     <use xlink:href="#DejaVuSans-Bold-4d"/>
     <use x="99.511719" xlink:href="#DejaVuSans-Bold-65"/>
     <use x="167.333984" xlink:href="#DejaVuSans-Bold-6d"/>
     <use x="271.533203" xlink:href="#DejaVuSans-Bold-6f"/>
     <use x="340.234375" xlink:href="#DejaVuSans-Bold-72"/>
     <use x="389.550781" xlink:href="#DejaVuSans-Bold-79"/>
     <use x="454.736328" xlink:href="#DejaVuSans-Bold-43"/>
     <use x="528.125" xlink:href="#DejaVuSans-Bold-61"/>
     <use x="595.605469" xlink:href="#DejaVuSans-Bold-74"/>
     <use x="643.408203" xlink:href="#DejaVuSans-Bold-65"/>
     <use x="711.230469" xlink:href="#DejaVuSans-Bold-67"/>
     <use x="782.8125" xlink:href="#DejaVuSans-Bold-6f"/>
     <use x="851.513672" xlink:href="#DejaVuSans-Bold-72"/>
     <use x="900.830078" xlink:href="#DejaVuSans-Bold-79"/>
     <use x="966.015625" xlink:href="#DejaVuSans-Bold-4e"/>
     <use x="1049.707031" xlink:href="#DejaVuSans-Bold-6f"/>
     <use x="1118.408203" xlink:href="#DejaVuSans-Bold-47"/>
     <use x="1200.488281" xlink:href="#DejaVuSans-Bold-6f"/>
    </g>
   </g>
   <g id="text_66">
    <!-- go1 crystals/softplus/l2h00001_model_0 -->
    <defs>
     <path d="M 45.40625 27.984375 
Q 45.40625 37.75 41.375 43.109375 
Q 37.359375 48.484375 30.078125 48.484375 
Q 22.859375 48.484375 18.828125 43.109375 
Q 14.796875 37.75 14.796875 27.984375 
Q 14.796875 18.265625 18.828125 12.890625 
Q 22.859375 7.515625 30.078125 7.515625 
Q 37.359375 7.515625 41.375 12.890625 
Q 45.40625 18.265625 45.40625 27.984375 
z
M 54.390625 6.78125 
Q 54.390625 -7.171875 48.1875 -13.984375 
Q 42 -20.796875 29.203125 -20.796875 
Q 24.46875 -20.796875 20.265625 -20.09375 
Q 16.0625 -19.390625 12.109375 -17.921875 
L 12.109375 -9.1875 
Q 16.0625 -11.328125 19.921875 -12.34375 
Q 23.78125 -13.375 27.78125 -13.375 
Q 36.625 -13.375 41.015625 -8.765625 
Q 45.40625 -4.15625 45.40625 5.171875 
L 45.40625 9.625 
Q 42.625 4.78125 38.28125 2.390625 
Q 33.9375 0 27.875 0 
Q 17.828125 0 11.671875 7.65625 
Q 5.515625 15.328125 5.515625 27.984375 
Q 5.515625 40.671875 11.671875 48.328125 
Q 17.828125 56 27.875 56 
Q 33.9375 56 38.28125 53.609375 
Q 42.625 51.21875 45.40625 46.390625 
L 45.40625 54.6875 
L 54.390625 54.6875 
z
" id="DejaVuSans-67"/>
     <path id="DejaVuSans-20"/>
     <path d="M 41.109375 46.296875 
Q 39.59375 47.171875 37.8125 47.578125 
Q 36.03125 48 33.890625 48 
Q 26.265625 48 22.1875 43.046875 
Q 18.109375 38.09375 18.109375 28.8125 
L 18.109375 0 
L 9.078125 0 
L 9.078125 54.6875 
L 18.109375 54.6875 
L 18.109375 46.1875 
Q 20.953125 51.171875 25.484375 53.578125 
Q 30.03125 56 36.53125 56 
Q 37.453125 56 38.578125 55.875 
Q 39.703125 55.765625 41.0625 55.515625 
z
" id="DejaVuSans-72"/>
     <path d="M 32.171875 -5.078125 
Q 28.375 -14.84375 24.75 -17.8125 
Q 21.140625 -20.796875 15.09375 -20.796875 
L 7.90625 -20.796875 
L 7.90625 -13.28125 
L 13.1875 -13.28125 
Q 16.890625 -13.28125 18.9375 -11.515625 
Q 21 -9.765625 23.484375 -3.21875 
L 25.09375 0.875 
L 2.984375 54.6875 
L 12.5 54.6875 
L 29.59375 11.921875 
L 46.6875 54.6875 
L 56.203125 54.6875 
z
" id="DejaVuSans-79"/>
     <path d="M 34.28125 27.484375 
Q 23.390625 27.484375 19.1875 25 
Q 14.984375 22.515625 14.984375 16.5 
Q 14.984375 11.71875 18.140625 8.90625 
Q 21.296875 6.109375 26.703125 6.109375 
Q 34.1875 6.109375 38.703125 11.40625 
Q 43.21875 16.703125 43.21875 25.484375 
L 43.21875 27.484375 
z
M 52.203125 31.203125 
L 52.203125 0 
L 43.21875 0 
L 43.21875 8.296875 
Q 40.140625 3.328125 35.546875 0.953125 
Q 30.953125 -1.421875 24.3125 -1.421875 
Q 15.921875 -1.421875 10.953125 3.296875 
Q 6 8.015625 6 15.921875 
Q 6 25.140625 12.171875 29.828125 
Q 18.359375 34.515625 30.609375 34.515625 
L 43.21875 34.515625 
L 43.21875 35.40625 
Q 43.21875 41.609375 39.140625 45 
Q 35.0625 48.390625 27.6875 48.390625 
Q 23 48.390625 18.546875 47.265625 
Q 14.109375 46.140625 10.015625 43.890625 
L 10.015625 52.203125 
Q 14.9375 54.109375 19.578125 55.046875 
Q 24.21875 56 28.609375 56 
Q 40.484375 56 46.34375 49.84375 
Q 52.203125 43.703125 52.203125 31.203125 
z
" id="DejaVuSans-61"/>
     <path d="M 9.421875 75.984375 
L 18.40625 75.984375 
L 18.40625 0 
L 9.421875 0 
z
" id="DejaVuSans-6c"/>
     <path d="M 25.390625 72.90625 
L 33.6875 72.90625 
L 8.296875 -9.28125 
L 0 -9.28125 
z
" id="DejaVuSans-2f"/>
     <path d="M 37.109375 75.984375 
L 37.109375 68.5 
L 28.515625 68.5 
Q 23.6875 68.5 21.796875 66.546875 
Q 19.921875 64.59375 19.921875 59.515625 
L 19.921875 54.6875 
L 34.71875 54.6875 
L 34.71875 47.703125 
L 19.921875 47.703125 
L 19.921875 0 
L 10.890625 0 
L 10.890625 47.703125 
L 2.296875 47.703125 
L 2.296875 54.6875 
L 10.890625 54.6875 
L 10.890625 58.5 
Q 10.890625 67.625 15.140625 71.796875 
Q 19.390625 75.984375 28.609375 75.984375 
z
" id="DejaVuSans-66"/>
     <path d="M 18.109375 8.203125 
L 18.109375 -20.796875 
L 9.078125 -20.796875 
L 9.078125 54.6875 
L 18.109375 54.6875 
L 18.109375 46.390625 
Q 20.953125 51.265625 25.265625 53.625 
Q 29.59375 56 35.59375 56 
Q 45.5625 56 51.78125 48.09375 
Q 58.015625 40.1875 58.015625 27.296875 
Q 58.015625 14.40625 51.78125 6.484375 
Q 45.5625 -1.421875 35.59375 -1.421875 
Q 29.59375 -1.421875 25.265625 0.953125 
Q 20.953125 3.328125 18.109375 8.203125 
z
M 48.6875 27.296875 
Q 48.6875 37.203125 44.609375 42.84375 
Q 40.53125 48.484375 33.40625 48.484375 
Q 26.265625 48.484375 22.1875 42.84375 
Q 18.109375 37.203125 18.109375 27.296875 
Q 18.109375 17.390625 22.1875 11.75 
Q 26.265625 6.109375 33.40625 6.109375 
Q 40.53125 6.109375 44.609375 11.75 
Q 48.6875 17.390625 48.6875 27.296875 
z
" id="DejaVuSans-70"/>
     <path d="M 8.5 21.578125 
L 8.5 54.6875 
L 17.484375 54.6875 
L 17.484375 21.921875 
Q 17.484375 14.15625 20.5 10.265625 
Q 23.53125 6.390625 29.59375 6.390625 
Q 36.859375 6.390625 41.078125 11.03125 
Q 45.3125 15.671875 45.3125 23.6875 
L 45.3125 54.6875 
L 54.296875 54.6875 
L 54.296875 0 
L 45.3125 0 
L 45.3125 8.40625 
Q 42.046875 3.421875 37.71875 1 
Q 33.40625 -1.421875 27.6875 -1.421875 
Q 18.265625 -1.421875 13.375 4.4375 
Q 8.5 10.296875 8.5 21.578125 
z
M 31.109375 56 
z
" id="DejaVuSans-75"/>
     <path d="M 54.890625 33.015625 
L 54.890625 0 
L 45.90625 0 
L 45.90625 32.71875 
Q 45.90625 40.484375 42.875 44.328125 
Q 39.84375 48.1875 33.796875 48.1875 
Q 26.515625 48.1875 22.3125 43.546875 
Q 18.109375 38.921875 18.109375 30.90625 
L 18.109375 0 
L 9.078125 0 
L 9.078125 75.984375 
L 18.109375 75.984375 
L 18.109375 46.1875 
Q 21.34375 51.125 25.703125 53.5625 
Q 30.078125 56 35.796875 56 
Q 45.21875 56 50.046875 50.171875 
Q 54.890625 44.34375 54.890625 33.015625 
z
" id="DejaVuSans-68"/>
     <path d="M 50.984375 -16.609375 
L 50.984375 -23.578125 
L -0.984375 -23.578125 
L -0.984375 -16.609375 
z
" id="DejaVuSans-5f"/>
     <path d="M 45.40625 46.390625 
L 45.40625 75.984375 
L 54.390625 75.984375 
L 54.390625 0 
L 45.40625 0 
L 45.40625 8.203125 
Q 42.578125 3.328125 38.25 0.953125 
Q 33.9375 -1.421875 27.875 -1.421875 
Q 17.96875 -1.421875 11.734375 6.484375 
Q 5.515625 14.40625 5.515625 27.296875 
Q 5.515625 40.1875 11.734375 48.09375 
Q 17.96875 56 27.875 56 
Q 33.9375 56 38.25 53.625 
Q 42.578125 51.265625 45.40625 46.390625 
z
M 14.796875 27.296875 
Q 14.796875 17.390625 18.875 11.75 
Q 22.953125 6.109375 30.078125 6.109375 
Q 37.203125 6.109375 41.296875 11.75 
Q 45.40625 17.390625 45.40625 27.296875 
Q 45.40625 37.203125 41.296875 42.84375 
Q 37.203125 48.484375 30.078125 48.484375 
Q 22.953125 48.484375 18.875 42.84375 
Q 14.796875 37.203125 14.796875 27.296875 
z
" id="DejaVuSans-64"/>
    </defs>
    <g transform="translate(866.386 31.869)scale(0.192 -0.192)">
     <use xlink:href="#DejaVuSans-67"/>
     <use x="63.476562" xlink:href="#DejaVuSans-6f"/>
     <use x="124.658203" xlink:href="#DejaVuSans-31"/>
     <use x="188.28125" xlink:href="#DejaVuSans-20"/>
     <use x="220.068359" xlink:href="#DejaVuSans-63"/>
     <use x="275.048828" xlink:href="#DejaVuSans-72"/>
     <use x="316.162109" xlink:href="#DejaVuSans-79"/>
     <use x="375.341797" xlink:href="#DejaVuSans-73"/>
     <use x="427.441406" xlink:href="#DejaVuSans-74"/>
     <use x="466.650391" xlink:href="#DejaVuSans-61"/>
     <use x="527.929688" xlink:href="#DejaVuSans-6c"/>
     <use x="555.712891" xlink:href="#DejaVuSans-73"/>
     <use x="607.8125" xlink:href="#DejaVuSans-2f"/>
     <use x="641.503906" xlink:href="#DejaVuSans-73"/>
     <use x="693.603516" xlink:href="#DejaVuSans-6f"/>
     <use x="754.785156" xlink:href="#DejaVuSans-66"/>
     <use x="789.974609" xlink:href="#DejaVuSans-74"/>
     <use x="829.183594" xlink:href="#DejaVuSans-70"/>
     <use x="892.660156" xlink:href="#DejaVuSans-6c"/>
     <use x="920.443359" xlink:href="#DejaVuSans-75"/>
     <use x="983.822266" xlink:href="#DejaVuSans-73"/>
     <use x="1035.921875" xlink:href="#DejaVuSans-2f"/>
     <use x="1069.613281" xlink:href="#DejaVuSans-6c"/>
     <use x="1097.396484" xlink:href="#DejaVuSans-32"/>
     <use x="1161.019531" xlink:href="#DejaVuSans-68"/>
     <use x="1224.398438" xlink:href="#DejaVuSans-30"/>
     <use x="1288.021484" xlink:href="#DejaVuSans-30"/>
     <use x="1351.644531" xlink:href="#DejaVuSans-30"/>
     <use x="1415.267578" xlink:href="#DejaVuSans-30"/>
     <use x="1478.890625" xlink:href="#DejaVuSans-31"/>
     <use x="1542.513672" xlink:href="#DejaVuSans-5f"/>
     <use x="1592.513672" xlink:href="#DejaVuSans-6d"/>
     <use x="1689.925781" xlink:href="#DejaVuSans-6f"/>
     <use x="1751.107422" xlink:href="#DejaVuSans-64"/>
     <use x="1814.583984" xlink:href="#DejaVuSans-65"/>
     <use x="1876.107422" xlink:href="#DejaVuSans-6c"/>
     <use x="1903.890625" xlink:href="#DejaVuSans-5f"/>
     <use x="1953.890625" xlink:href="#DejaVuSans-30"/>
    </g>
   </g>
  </g>
 </g>
 <defs>
  <clipPath id="p8cf2a99a3c">
   <rect height="262.881" width="262.881" x="79.998" y="37.869"/>
  </clipPath>
  <clipPath id="pd4802b7fe1">
   <rect height="262.881" width="262.881" x="504.3125" y="37.869"/>
  </clipPath>
  <clipPath id="pdc74c9c4f6">
   <rect height="262.881" width="262.881" x="928.627" y="37.869"/>
  </clipPath>
 </defs>
</svg>
