<?xml version="1.0" encoding="utf-8" standalone="no"?>
<!DOCTYPE svg PUBLIC "-//W3C//DTD SVG 1.1//EN"
  "http://www.w3.org/Graphics/SVG/1.1/DTD/svg11.dtd">
<!-- Created with matplotlib (http://matplotlib.org/) -->
<svg height="345.6pt" version="1.1" viewBox="0 0 460.8 345.6" width="460.8pt" xmlns="http://www.w3.org/2000/svg" xmlns:xlink="http://www.w3.org/1999/xlink">
 <defs>
  <style type="text/css">
*{stroke-linecap:butt;stroke-linejoin:round;}
  </style>
 </defs>
 <g id="figure_1">
  <g id="patch_1">
   <path d="M 0 345.6 
L 460.8 345.6 
L 460.8 0 
L 0 0 
z
" style="fill:#ffffff;"/>
  </g>
  <g id="axes_1">
   <g id="patch_2">
    <path d="M 57.6 307.584 
L 414.72 307.584 
L 414.72 41.472 
L 57.6 41.472 
z
" style="fill:#ffffff;"/>
   </g>
   <g id="matplotlib.axis_1">
    <g id="xtick_1">
     <g id="line2d_1">
      <defs>
       <path d="M 0 0 
L 0 3.5 
" id="m46be0505c3" style="stroke:#000000;stroke-width:0.8;"/>
      </defs>
      <g>
       <use style="stroke:#000000;stroke-width:0.8;" x="73.832727" xlink:href="#m46be0505c3" y="307.584"/>
      </g>
     </g>
     <g id="text_1">
      <!-- 0 -->
      <defs>
       <path d="M 31.78125 66.40625 
Q 24.171875 66.40625 20.328125 58.90625 
Q 16.5 51.421875 16.5 36.375 
Q 16.5 21.390625 20.328125 13.890625 
Q 24.171875 6.390625 31.78125 6.390625 
Q 39.453125 6.390625 43.28125 13.890625 
Q 47.125 21.390625 47.125 36.375 
Q 47.125 51.421875 43.28125 58.90625 
Q 39.453125 66.40625 31.78125 66.40625 
z
M 31.78125 74.21875 
Q 44.046875 74.21875 50.515625 64.515625 
Q 56.984375 54.828125 56.984375 36.375 
Q 56.984375 17.96875 50.515625 8.265625 
Q 44.046875 -1.421875 31.78125 -1.421875 
Q 19.53125 -1.421875 13.0625 8.265625 
Q 6.59375 17.96875 6.59375 36.375 
Q 6.59375 54.828125 13.0625 64.515625 
Q 19.53125 74.21875 31.78125 74.21875 
z
" id="DejaVuSans-30"/>
      </defs>
      <g transform="translate(68.742727 326.7415)scale(0.16 -0.16)">
       <use xlink:href="#DejaVuSans-30"/>
      </g>
     </g>
    </g>
    <g id="xtick_2">
     <g id="line2d_2">
      <g>
       <use style="stroke:#000000;stroke-width:0.8;" x="133.996217" xlink:href="#m46be0505c3" y="307.584"/>
      </g>
     </g>
     <g id="text_2">
      <!-- 2 -->
      <defs>
       <path d="M 19.1875 8.296875 
L 53.609375 8.296875 
L 53.609375 0 
L 7.328125 0 
L 7.328125 8.296875 
Q 12.9375 14.109375 22.625 23.890625 
Q 32.328125 33.6875 34.8125 36.53125 
Q 39.546875 41.84375 41.421875 45.53125 
Q 43.3125 49.21875 43.3125 52.78125 
Q 43.3125 58.59375 39.234375 62.25 
Q 35.15625 65.921875 28.609375 65.921875 
Q 23.96875 65.921875 18.8125 64.3125 
Q 13.671875 62.703125 7.8125 59.421875 
L 7.8125 69.390625 
Q 13.765625 71.78125 18.9375 73 
Q 24.125 74.21875 28.421875 74.21875 
Q 39.75 74.21875 46.484375 68.546875 
Q 53.21875 62.890625 53.21875 53.421875 
Q 53.21875 48.921875 51.53125 44.890625 
Q 49.859375 40.875 45.40625 35.40625 
Q 44.1875 33.984375 37.640625 27.21875 
Q 31.109375 20.453125 19.1875 8.296875 
z
" id="DejaVuSans-32"/>
      </defs>
      <g transform="translate(128.906217 326.7415)scale(0.16 -0.16)">
       <use xlink:href="#DejaVuSans-32"/>
      </g>
     </g>
    </g>
    <g id="xtick_3">
     <g id="line2d_3">
      <g>
       <use style="stroke:#000000;stroke-width:0.8;" x="194.159707" xlink:href="#m46be0505c3" y="307.584"/>
      </g>
     </g>
     <g id="text_3">
      <!-- 4 -->
      <defs>
       <path d="M 37.796875 64.3125 
L 12.890625 25.390625 
L 37.796875 25.390625 
z
M 35.203125 72.90625 
L 47.609375 72.90625 
L 47.609375 25.390625 
L 58.015625 25.390625 
L 58.015625 17.1875 
L 47.609375 17.1875 
L 47.609375 0 
L 37.796875 0 
L 37.796875 17.1875 
L 4.890625 17.1875 
L 4.890625 26.703125 
z
" id="DejaVuSans-34"/>
      </defs>
      <g transform="translate(189.069707 326.7415)scale(0.16 -0.16)">
       <use xlink:href="#DejaVuSans-34"/>
      </g>
     </g>
    </g>
    <g id="xtick_4">
     <g id="line2d_4">
      <g>
       <use style="stroke:#000000;stroke-width:0.8;" x="254.323196" xlink:href="#m46be0505c3" y="307.584"/>
      </g>
     </g>
     <g id="text_4">
      <!-- 6 -->
      <defs>
       <path d="M 33.015625 40.375 
Q 26.375 40.375 22.484375 35.828125 
Q 18.609375 31.296875 18.609375 23.390625 
Q 18.609375 15.53125 22.484375 10.953125 
Q 26.375 6.390625 33.015625 6.390625 
Q 39.65625 6.390625 43.53125 10.953125 
Q 47.40625 15.53125 47.40625 23.390625 
Q 47.40625 31.296875 43.53125 35.828125 
Q 39.65625 40.375 33.015625 40.375 
z
M 52.59375 71.296875 
L 52.59375 62.3125 
Q 48.875 64.0625 45.09375 64.984375 
Q 41.3125 65.921875 37.59375 65.921875 
Q 27.828125 65.921875 22.671875 59.328125 
Q 17.53125 52.734375 16.796875 39.40625 
Q 19.671875 43.65625 24.015625 45.921875 
Q 28.375 48.1875 33.59375 48.1875 
Q 44.578125 48.1875 50.953125 41.515625 
Q 57.328125 34.859375 57.328125 23.390625 
Q 57.328125 12.15625 50.6875 5.359375 
Q 44.046875 -1.421875 33.015625 -1.421875 
Q 20.359375 -1.421875 13.671875 8.265625 
Q 6.984375 17.96875 6.984375 36.375 
Q 6.984375 53.65625 15.1875 63.9375 
Q 23.390625 74.21875 37.203125 74.21875 
Q 40.921875 74.21875 44.703125 73.484375 
Q 48.484375 72.75 52.59375 71.296875 
z
" id="DejaVuSans-36"/>
      </defs>
      <g transform="translate(249.233196 326.7415)scale(0.16 -0.16)">
       <use xlink:href="#DejaVuSans-36"/>
      </g>
     </g>
    </g>
    <g id="xtick_5">
     <g id="line2d_5">
      <g>
       <use style="stroke:#000000;stroke-width:0.8;" x="314.486686" xlink:href="#m46be0505c3" y="307.584"/>
      </g>
     </g>
     <g id="text_5">
      <!-- 8 -->
      <defs>
       <path d="M 31.78125 34.625 
Q 24.75 34.625 20.71875 30.859375 
Q 16.703125 27.09375 16.703125 20.515625 
Q 16.703125 13.921875 20.71875 10.15625 
Q 24.75 6.390625 31.78125 6.390625 
Q 38.8125 6.390625 42.859375 10.171875 
Q 46.921875 13.96875 46.921875 20.515625 
Q 46.921875 27.09375 42.890625 30.859375 
Q 38.875 34.625 31.78125 34.625 
z
M 21.921875 38.8125 
Q 15.578125 40.375 12.03125 44.71875 
Q 8.5 49.078125 8.5 55.328125 
Q 8.5 64.0625 14.71875 69.140625 
Q 20.953125 74.21875 31.78125 74.21875 
Q 42.671875 74.21875 48.875 69.140625 
Q 55.078125 64.0625 55.078125 55.328125 
Q 55.078125 49.078125 51.53125 44.71875 
Q 48 40.375 41.703125 38.8125 
Q 48.828125 37.15625 52.796875 32.3125 
Q 56.78125 27.484375 56.78125 20.515625 
Q 56.78125 9.90625 50.3125 4.234375 
Q 43.84375 -1.421875 31.78125 -1.421875 
Q 19.734375 -1.421875 13.25 4.234375 
Q 6.78125 9.90625 6.78125 20.515625 
Q 6.78125 27.484375 10.78125 32.3125 
Q 14.796875 37.15625 21.921875 38.8125 
z
M 18.3125 54.390625 
Q 18.3125 48.734375 21.84375 45.5625 
Q 25.390625 42.390625 31.78125 42.390625 
Q 38.140625 42.390625 41.71875 45.5625 
Q 45.3125 48.734375 45.3125 54.390625 
Q 45.3125 60.0625 41.71875 63.234375 
Q 38.140625 66.40625 31.78125 66.40625 
Q 25.390625 66.40625 21.84375 63.234375 
Q 18.3125 60.0625 18.3125 54.390625 
z
" id="DejaVuSans-38"/>
      </defs>
      <g transform="translate(309.396686 326.7415)scale(0.16 -0.16)">
       <use xlink:href="#DejaVuSans-38"/>
      </g>
     </g>
    </g>
    <g id="xtick_6">
     <g id="line2d_6">
      <g>
       <use style="stroke:#000000;stroke-width:0.8;" x="374.650176" xlink:href="#m46be0505c3" y="307.584"/>
      </g>
     </g>
     <g id="text_6">
      <!-- 10 -->
      <defs>
       <path d="M 12.40625 8.296875 
L 28.515625 8.296875 
L 28.515625 63.921875 
L 10.984375 60.40625 
L 10.984375 69.390625 
L 28.421875 72.90625 
L 38.28125 72.90625 
L 38.28125 8.296875 
L 54.390625 8.296875 
L 54.390625 0 
L 12.40625 0 
z
" id="DejaVuSans-31"/>
      </defs>
      <g transform="translate(364.470176 326.7415)scale(0.16 -0.16)">
       <use xlink:href="#DejaVuSans-31"/>
       <use x="63.623047" xlink:href="#DejaVuSans-30"/>
      </g>
     </g>
    </g>
    <g id="text_7">
     <!-- fix disparity -->
     <defs>
      <path d="M 37.109375 75.984375 
L 37.109375 68.5 
L 28.515625 68.5 
Q 23.6875 68.5 21.796875 66.546875 
Q 19.921875 64.59375 19.921875 59.515625 
L 19.921875 54.6875 
L 34.71875 54.6875 
L 34.71875 47.703125 
L 19.921875 47.703125 
L 19.921875 0 
L 10.890625 0 
L 10.890625 47.703125 
L 2.296875 47.703125 
L 2.296875 54.6875 
L 10.890625 54.6875 
L 10.890625 58.5 
Q 10.890625 67.625 15.140625 71.796875 
Q 19.390625 75.984375 28.609375 75.984375 
z
" id="DejaVuSans-66"/>
      <path d="M 9.421875 54.6875 
L 18.40625 54.6875 
L 18.40625 0 
L 9.421875 0 
z
M 9.421875 75.984375 
L 18.40625 75.984375 
L 18.40625 64.59375 
L 9.421875 64.59375 
z
" id="DejaVuSans-69"/>
      <path d="M 54.890625 54.6875 
L 35.109375 28.078125 
L 55.90625 0 
L 45.3125 0 
L 29.390625 21.484375 
L 13.484375 0 
L 2.875 0 
L 24.125 28.609375 
L 4.6875 54.6875 
L 15.28125 54.6875 
L 29.78125 35.203125 
L 44.28125 54.6875 
z
" id="DejaVuSans-78"/>
      <path id="DejaVuSans-20"/>
      <path d="M 45.40625 46.390625 
L 45.40625 75.984375 
L 54.390625 75.984375 
L 54.390625 0 
L 45.40625 0 
L 45.40625 8.203125 
Q 42.578125 3.328125 38.25 0.953125 
Q 33.9375 -1.421875 27.875 -1.421875 
Q 17.96875 -1.421875 11.734375 6.484375 
Q 5.515625 14.40625 5.515625 27.296875 
Q 5.515625 40.1875 11.734375 48.09375 
Q 17.96875 56 27.875 56 
Q 33.9375 56 38.25 53.625 
Q 42.578125 51.265625 45.40625 46.390625 
z
M 14.796875 27.296875 
Q 14.796875 17.390625 18.875 11.75 
Q 22.953125 6.109375 30.078125 6.109375 
Q 37.203125 6.109375 41.296875 11.75 
Q 45.40625 17.390625 45.40625 27.296875 
Q 45.40625 37.203125 41.296875 42.84375 
Q 37.203125 48.484375 30.078125 48.484375 
Q 22.953125 48.484375 18.875 42.84375 
Q 14.796875 37.203125 14.796875 27.296875 
z
" id="DejaVuSans-64"/>
      <path d="M 44.28125 53.078125 
L 44.28125 44.578125 
Q 40.484375 46.53125 36.375 47.5 
Q 32.28125 48.484375 27.875 48.484375 
Q 21.1875 48.484375 17.84375 46.4375 
Q 14.5 44.390625 14.5 40.28125 
Q 14.5 37.15625 16.890625 35.375 
Q 19.28125 33.59375 26.515625 31.984375 
L 29.59375 31.296875 
Q 39.15625 29.25 43.1875 25.515625 
Q 47.21875 21.78125 47.21875 15.09375 
Q 47.21875 7.46875 41.1875 3.015625 
Q 35.15625 -1.421875 24.609375 -1.421875 
Q 20.21875 -1.421875 15.453125 -0.5625 
Q 10.6875 0.296875 5.421875 2 
L 5.421875 11.28125 
Q 10.40625 8.6875 15.234375 7.390625 
Q 20.0625 6.109375 24.8125 6.109375 
Q 31.15625 6.109375 34.5625 8.28125 
Q 37.984375 10.453125 37.984375 14.40625 
Q 37.984375 18.0625 35.515625 20.015625 
Q 33.0625 21.96875 24.703125 23.78125 
L 21.578125 24.515625 
Q 13.234375 26.265625 9.515625 29.90625 
Q 5.8125 33.546875 5.8125 39.890625 
Q 5.8125 47.609375 11.28125 51.796875 
Q 16.75 56 26.8125 56 
Q 31.78125 56 36.171875 55.265625 
Q 40.578125 54.546875 44.28125 53.078125 
z
" id="DejaVuSans-73"/>
      <path d="M 18.109375 8.203125 
L 18.109375 -20.796875 
L 9.078125 -20.796875 
L 9.078125 54.6875 
L 18.109375 54.6875 
L 18.109375 46.390625 
Q 20.953125 51.265625 25.265625 53.625 
Q 29.59375 56 35.59375 56 
Q 45.5625 56 51.78125 48.09375 
Q 58.015625 40.1875 58.015625 27.296875 
Q 58.015625 14.40625 51.78125 6.484375 
Q 45.5625 -1.421875 35.59375 -1.421875 
Q 29.59375 -1.421875 25.265625 0.953125 
Q 20.953125 3.328125 18.109375 8.203125 
z
M 48.6875 27.296875 
Q 48.6875 37.203125 44.609375 42.84375 
Q 40.53125 48.484375 33.40625 48.484375 
Q 26.265625 48.484375 22.1875 42.84375 
Q 18.109375 37.203125 18.109375 27.296875 
Q 18.109375 17.390625 22.1875 11.75 
Q 26.265625 6.109375 33.40625 6.109375 
Q 40.53125 6.109375 44.609375 11.75 
Q 48.6875 17.390625 48.6875 27.296875 
z
" id="DejaVuSans-70"/>
      <path d="M 34.28125 27.484375 
Q 23.390625 27.484375 19.1875 25 
Q 14.984375 22.515625 14.984375 16.5 
Q 14.984375 11.71875 18.140625 8.90625 
Q 21.296875 6.109375 26.703125 6.109375 
Q 34.1875 6.109375 38.703125 11.40625 
Q 43.21875 16.703125 43.21875 25.484375 
L 43.21875 27.484375 
z
M 52.203125 31.203125 
L 52.203125 0 
L 43.21875 0 
L 43.21875 8.296875 
Q 40.140625 3.328125 35.546875 0.953125 
Q 30.953125 -1.421875 24.3125 -1.421875 
Q 15.921875 -1.421875 10.953125 3.296875 
Q 6 8.015625 6 15.921875 
Q 6 25.140625 12.171875 29.828125 
Q 18.359375 34.515625 30.609375 34.515625 
L 43.21875 34.515625 
L 43.21875 35.40625 
Q 43.21875 41.609375 39.140625 45 
Q 35.0625 48.390625 27.6875 48.390625 
Q 23 48.390625 18.546875 47.265625 
Q 14.109375 46.140625 10.015625 43.890625 
L 10.015625 52.203125 
Q 14.9375 54.109375 19.578125 55.046875 
Q 24.21875 56 28.609375 56 
Q 40.484375 56 46.34375 49.84375 
Q 52.203125 43.703125 52.203125 31.203125 
z
" id="DejaVuSans-61"/>
      <path d="M 41.109375 46.296875 
Q 39.59375 47.171875 37.8125 47.578125 
Q 36.03125 48 33.890625 48 
Q 26.265625 48 22.1875 43.046875 
Q 18.109375 38.09375 18.109375 28.8125 
L 18.109375 0 
L 9.078125 0 
L 9.078125 54.6875 
L 18.109375 54.6875 
L 18.109375 46.1875 
Q 20.953125 51.171875 25.484375 53.578125 
Q 30.03125 56 36.53125 56 
Q 37.453125 56 38.578125 55.875 
Q 39.703125 55.765625 41.0625 55.515625 
z
" id="DejaVuSans-72"/>
      <path d="M 18.3125 70.21875 
L 18.3125 54.6875 
L 36.8125 54.6875 
L 36.8125 47.703125 
L 18.3125 47.703125 
L 18.3125 18.015625 
Q 18.3125 11.328125 20.140625 9.421875 
Q 21.96875 7.515625 27.59375 7.515625 
L 36.8125 7.515625 
L 36.8125 0 
L 27.59375 0 
Q 17.1875 0 13.234375 3.875 
Q 9.28125 7.765625 9.28125 18.015625 
L 9.28125 47.703125 
L 2.6875 47.703125 
L 2.6875 54.6875 
L 9.28125 54.6875 
L 9.28125 70.21875 
z
" id="DejaVuSans-74"/>
      <path d="M 32.171875 -5.078125 
Q 28.375 -14.84375 24.75 -17.8125 
Q 21.140625 -20.796875 15.09375 -20.796875 
L 7.90625 -20.796875 
L 7.90625 -13.28125 
L 13.1875 -13.28125 
Q 16.890625 -13.28125 18.9375 -11.515625 
Q 21 -9.765625 23.484375 -3.21875 
L 25.09375 0.875 
L 2.984375 54.6875 
L 12.5 54.6875 
L 29.59375 11.921875 
L 46.6875 54.6875 
L 56.203125 54.6875 
z
" id="DejaVuSans-79"/>
     </defs>
     <g transform="translate(189.01125 346.2265)scale(0.16 -0.16)">
      <use xlink:href="#DejaVuSans-66"/>
      <use x="35.205078" xlink:href="#DejaVuSans-69"/>
      <use x="62.988281" xlink:href="#DejaVuSans-78"/>
      <use x="122.167969" xlink:href="#DejaVuSans-20"/>
      <use x="153.955078" xlink:href="#DejaVuSans-64"/>
      <use x="217.431641" xlink:href="#DejaVuSans-69"/>
      <use x="245.214844" xlink:href="#DejaVuSans-73"/>
      <use x="297.314453" xlink:href="#DejaVuSans-70"/>
      <use x="360.791016" xlink:href="#DejaVuSans-61"/>
      <use x="422.070312" xlink:href="#DejaVuSans-72"/>
      <use x="463.183594" xlink:href="#DejaVuSans-69"/>
      <use x="490.966797" xlink:href="#DejaVuSans-74"/>
      <use x="530.175781" xlink:href="#DejaVuSans-79"/>
     </g>
    </g>
   </g>
   <g id="matplotlib.axis_2">
    <g id="ytick_1">
     <g id="line2d_7">
      <defs>
       <path d="M 0 0 
L -3.5 0 
" id="m487c14536e" style="stroke:#000000;stroke-width:0.8;"/>
      </defs>
      <g>
       <use style="stroke:#000000;stroke-width:0.8;" x="57.6" xlink:href="#m487c14536e" y="295.488"/>
      </g>
     </g>
     <g id="text_8">
      <!-- 0.0 -->
      <defs>
       <path d="M 10.6875 12.40625 
L 21 12.40625 
L 21 0 
L 10.6875 0 
z
" id="DejaVuSans-2e"/>
      </defs>
      <g transform="translate(25.155 301.56675)scale(0.16 -0.16)">
       <use xlink:href="#DejaVuSans-30"/>
       <use x="63.623047" xlink:href="#DejaVuSans-2e"/>
       <use x="95.410156" xlink:href="#DejaVuSans-30"/>
      </g>
     </g>
    </g>
    <g id="ytick_2">
     <g id="line2d_8">
      <g>
       <use style="stroke:#000000;stroke-width:0.8;" x="57.6" xlink:href="#m487c14536e" y="247.101102"/>
      </g>
     </g>
     <g id="text_9">
      <!-- 0.2 -->
      <g transform="translate(25.155 253.179852)scale(0.16 -0.16)">
       <use xlink:href="#DejaVuSans-30"/>
       <use x="63.623047" xlink:href="#DejaVuSans-2e"/>
       <use x="95.410156" xlink:href="#DejaVuSans-32"/>
      </g>
     </g>
    </g>
    <g id="ytick_3">
     <g id="line2d_9">
      <g>
       <use style="stroke:#000000;stroke-width:0.8;" x="57.6" xlink:href="#m487c14536e" y="198.714204"/>
      </g>
     </g>
     <g id="text_10">
      <!-- 0.4 -->
      <g transform="translate(25.155 204.792954)scale(0.16 -0.16)">
       <use xlink:href="#DejaVuSans-30"/>
       <use x="63.623047" xlink:href="#DejaVuSans-2e"/>
       <use x="95.410156" xlink:href="#DejaVuSans-34"/>
      </g>
     </g>
    </g>
    <g id="ytick_4">
     <g id="line2d_10">
      <g>
       <use style="stroke:#000000;stroke-width:0.8;" x="57.6" xlink:href="#m487c14536e" y="150.327306"/>
      </g>
     </g>
     <g id="text_11">
      <!-- 0.6 -->
      <g transform="translate(25.155 156.406056)scale(0.16 -0.16)">
       <use xlink:href="#DejaVuSans-30"/>
       <use x="63.623047" xlink:href="#DejaVuSans-2e"/>
       <use x="95.410156" xlink:href="#DejaVuSans-36"/>
      </g>
     </g>
    </g>
    <g id="ytick_5">
     <g id="line2d_11">
      <g>
       <use style="stroke:#000000;stroke-width:0.8;" x="57.6" xlink:href="#m487c14536e" y="101.940408"/>
      </g>
     </g>
     <g id="text_12">
      <!-- 0.8 -->
      <g transform="translate(25.155 108.019158)scale(0.16 -0.16)">
       <use xlink:href="#DejaVuSans-30"/>
       <use x="63.623047" xlink:href="#DejaVuSans-2e"/>
       <use x="95.410156" xlink:href="#DejaVuSans-38"/>
      </g>
     </g>
    </g>
    <g id="ytick_6">
     <g id="line2d_12">
      <g>
       <use style="stroke:#000000;stroke-width:0.8;" x="57.6" xlink:href="#m487c14536e" y="53.55351"/>
      </g>
     </g>
     <g id="text_13">
      <!-- 1.0 -->
      <g transform="translate(25.155 59.63226)scale(0.16 -0.16)">
       <use xlink:href="#DejaVuSans-31"/>
       <use x="63.623047" xlink:href="#DejaVuSans-2e"/>
       <use x="95.410156" xlink:href="#DejaVuSans-30"/>
      </g>
     </g>
    </g>
    <g id="text_14">
     <!-- go1 disparity -->
     <defs>
      <path d="M 45.40625 27.984375 
Q 45.40625 37.75 41.375 43.109375 
Q 37.359375 48.484375 30.078125 48.484375 
Q 22.859375 48.484375 18.828125 43.109375 
Q 14.796875 37.75 14.796875 27.984375 
Q 14.796875 18.265625 18.828125 12.890625 
Q 22.859375 7.515625 30.078125 7.515625 
Q 37.359375 7.515625 41.375 12.890625 
Q 45.40625 18.265625 45.40625 27.984375 
z
M 54.390625 6.78125 
Q 54.390625 -7.171875 48.1875 -13.984375 
Q 42 -20.796875 29.203125 -20.796875 
Q 24.46875 -20.796875 20.265625 -20.09375 
Q 16.0625 -19.390625 12.109375 -17.921875 
L 12.109375 -9.1875 
Q 16.0625 -11.328125 19.921875 -12.34375 
Q 23.78125 -13.375 27.78125 -13.375 
Q 36.625 -13.375 41.015625 -8.765625 
Q 45.40625 -4.15625 45.40625 5.171875 
L 45.40625 9.625 
Q 42.625 4.78125 38.28125 2.390625 
Q 33.9375 0 27.875 0 
Q 17.828125 0 11.671875 7.65625 
Q 5.515625 15.328125 5.515625 27.984375 
Q 5.515625 40.671875 11.671875 48.328125 
Q 17.828125 56 27.875 56 
Q 33.9375 56 38.28125 53.609375 
Q 42.625 51.21875 45.40625 46.390625 
L 45.40625 54.6875 
L 54.390625 54.6875 
z
" id="DejaVuSans-67"/>
      <path d="M 30.609375 48.390625 
Q 23.390625 48.390625 19.1875 42.75 
Q 14.984375 37.109375 14.984375 27.296875 
Q 14.984375 17.484375 19.15625 11.84375 
Q 23.34375 6.203125 30.609375 6.203125 
Q 37.796875 6.203125 41.984375 11.859375 
Q 46.1875 17.53125 46.1875 27.296875 
Q 46.1875 37.015625 41.984375 42.703125 
Q 37.796875 48.390625 30.609375 48.390625 
z
M 30.609375 56 
Q 42.328125 56 49.015625 48.375 
Q 55.71875 40.765625 55.71875 27.296875 
Q 55.71875 13.875 49.015625 6.21875 
Q 42.328125 -1.421875 30.609375 -1.421875 
Q 18.84375 -1.421875 12.171875 6.21875 
Q 5.515625 13.875 5.515625 27.296875 
Q 5.515625 40.765625 12.171875 48.375 
Q 18.84375 56 30.609375 56 
z
" id="DejaVuSans-6f"/>
     </defs>
     <g transform="translate(17.8275 226.96675)rotate(-90)scale(0.16 -0.16)">
      <use xlink:href="#DejaVuSans-67"/>
      <use x="63.476562" xlink:href="#DejaVuSans-6f"/>
      <use x="124.658203" xlink:href="#DejaVuSans-31"/>
      <use x="188.28125" xlink:href="#DejaVuSans-20"/>
      <use x="220.068359" xlink:href="#DejaVuSans-64"/>
      <use x="283.544922" xlink:href="#DejaVuSans-69"/>
      <use x="311.328125" xlink:href="#DejaVuSans-73"/>
      <use x="363.427734" xlink:href="#DejaVuSans-70"/>
      <use x="426.904297" xlink:href="#DejaVuSans-61"/>
      <use x="488.183594" xlink:href="#DejaVuSans-72"/>
      <use x="529.296875" xlink:href="#DejaVuSans-69"/>
      <use x="557.080078" xlink:href="#DejaVuSans-74"/>
      <use x="596.289062" xlink:href="#DejaVuSans-79"/>
     </g>
    </g>
   </g>
   <g id="line2d_13">
    <defs>
     <path d="M 0 1.5 
C 0.397805 1.5 0.77937 1.341951 1.06066 1.06066 
C 1.341951 0.77937 1.5 0.397805 1.5 0 
C 1.5 -0.397805 1.341951 -0.77937 1.06066 -1.06066 
C 0.77937 -1.341951 0.397805 -1.5 0 -1.5 
C -0.397805 -1.5 -0.77937 -1.341951 -1.06066 -1.06066 
C -1.341951 -0.77937 -1.5 -0.397805 -1.5 0 
C -1.5 0.397805 -1.341951 0.77937 -1.06066 1.06066 
C -0.77937 1.341951 -0.397805 1.5 0 1.5 
z
" id="m544fbe6563" style="stroke:#1f77b4;"/>
    </defs>
    <g clip-path="url(#p4f6c7e85ea)">
     <use style="fill:#1f77b4;stroke:#1f77b4;" x="73.832727" xlink:href="#m544fbe6563" y="295.488"/>
     <use style="fill:#1f77b4;stroke:#1f77b4;" x="355.790589" xlink:href="#m544fbe6563" y="268.016285"/>
     <use style="fill:#1f77b4;stroke:#1f77b4;" x="379.641915" xlink:href="#m544fbe6563" y="66.008131"/>
     <use style="fill:#1f77b4;stroke:#1f77b4;" x="355.944075" xlink:href="#m544fbe6563" y="294.348994"/>
     <use style="fill:#1f77b4;stroke:#1f77b4;" x="370.230752" xlink:href="#m544fbe6563" y="267.824421"/>
     <use style="fill:#1f77b4;stroke:#1f77b4;" x="355.833352" xlink:href="#m544fbe6563" y="66.04805"/>
     <use style="fill:#1f77b4;stroke:#1f77b4;" x="380.342497" xlink:href="#m544fbe6563" y="150.1362"/>
     <use style="fill:#1f77b4;stroke:#1f77b4;" x="389.276086" xlink:href="#m544fbe6563" y="155.448503"/>
     <use style="fill:#1f77b4;stroke:#1f77b4;" x="362.918452" xlink:href="#m544fbe6563" y="170.099515"/>
     <use style="fill:#1f77b4;stroke:#1f77b4;" x="384.595177" xlink:href="#m544fbe6563" y="136.381664"/>
     <use style="fill:#1f77b4;stroke:#1f77b4;" x="355.790589" xlink:href="#m544fbe6563" y="268.016285"/>
     <use style="fill:#1f77b4;stroke:#1f77b4;" x="73.832727" xlink:href="#m544fbe6563" y="295.488"/>
     <use style="fill:#1f77b4;stroke:#1f77b4;" x="359.476626" xlink:href="#m544fbe6563" y="53.581888"/>
     <use style="fill:#1f77b4;stroke:#1f77b4;" x="380.372274" xlink:href="#m544fbe6563" y="267.718756"/>
     <use style="fill:#1f77b4;stroke:#1f77b4;" x="352.386174" xlink:href="#m544fbe6563" y="295.151958"/>
     <use style="fill:#1f77b4;stroke:#1f77b4;" x="352.114776" xlink:href="#m544fbe6563" y="53.580841"/>
     <use style="fill:#1f77b4;stroke:#1f77b4;" x="384.724859" xlink:href="#m544fbe6563" y="158.923784"/>
     <use style="fill:#1f77b4;stroke:#1f77b4;" x="372.834346" xlink:href="#m544fbe6563" y="170.769117"/>
     <use style="fill:#1f77b4;stroke:#1f77b4;" x="347.965111" xlink:href="#m544fbe6563" y="167.109162"/>
     <use style="fill:#1f77b4;stroke:#1f77b4;" x="398.487273" xlink:href="#m544fbe6563" y="148.791227"/>
     <use style="fill:#1f77b4;stroke:#1f77b4;" x="379.641915" xlink:href="#m544fbe6563" y="66.008136"/>
     <use style="fill:#1f77b4;stroke:#1f77b4;" x="359.476626" xlink:href="#m544fbe6563" y="53.581888"/>
     <use style="fill:#1f77b4;stroke:#1f77b4;" x="73.832727" xlink:href="#m544fbe6563" y="295.488"/>
     <use style="fill:#1f77b4;stroke:#1f77b4;" x="347.740664" xlink:href="#m544fbe6563" y="66.242766"/>
     <use style="fill:#1f77b4;stroke:#1f77b4;" x="341.085493" xlink:href="#m544fbe6563" y="53.582507"/>
     <use style="fill:#1f77b4;stroke:#1f77b4;" x="337.033339" xlink:href="#m544fbe6563" y="295.483131"/>
     <use style="fill:#1f77b4;stroke:#1f77b4;" x="360.451257" xlink:href="#m544fbe6563" y="53.599894"/>
     <use style="fill:#1f77b4;stroke:#1f77b4;" x="374.879679" xlink:href="#m544fbe6563" y="53.575458"/>
     <use style="fill:#1f77b4;stroke:#1f77b4;" x="346.289474" xlink:href="#m544fbe6563" y="53.588913"/>
     <use style="fill:#1f77b4;stroke:#1f77b4;" x="383.924552" xlink:href="#m544fbe6563" y="53.752322"/>
     <use style="fill:#1f77b4;stroke:#1f77b4;" x="355.944075" xlink:href="#m544fbe6563" y="294.348993"/>
     <use style="fill:#1f77b4;stroke:#1f77b4;" x="380.372274" xlink:href="#m544fbe6563" y="267.718756"/>
     <use style="fill:#1f77b4;stroke:#1f77b4;" x="347.740664" xlink:href="#m544fbe6563" y="66.242768"/>
     <use style="fill:#1f77b4;stroke:#1f77b4;" x="73.832727" xlink:href="#m544fbe6563" y="295.488"/>
     <use style="fill:#1f77b4;stroke:#1f77b4;" x="370.410959" xlink:href="#m544fbe6563" y="267.857774"/>
     <use style="fill:#1f77b4;stroke:#1f77b4;" x="361.087628" xlink:href="#m544fbe6563" y="66.232652"/>
     <use style="fill:#1f77b4;stroke:#1f77b4;" x="366.377509" xlink:href="#m544fbe6563" y="148.836935"/>
     <use style="fill:#1f77b4;stroke:#1f77b4;" x="376.840005" xlink:href="#m544fbe6563" y="140.662307"/>
     <use style="fill:#1f77b4;stroke:#1f77b4;" x="353.283281" xlink:href="#m544fbe6563" y="159.262834"/>
     <use style="fill:#1f77b4;stroke:#1f77b4;" x="382.197357" xlink:href="#m544fbe6563" y="152.595055"/>
     <use style="fill:#1f77b4;stroke:#1f77b4;" x="370.230752" xlink:href="#m544fbe6563" y="267.824425"/>
     <use style="fill:#1f77b4;stroke:#1f77b4;" x="352.386174" xlink:href="#m544fbe6563" y="295.151958"/>
     <use style="fill:#1f77b4;stroke:#1f77b4;" x="341.085493" xlink:href="#m544fbe6563" y="53.582507"/>
     <use style="fill:#1f77b4;stroke:#1f77b4;" x="370.410959" xlink:href="#m544fbe6563" y="267.857762"/>
     <use style="fill:#1f77b4;stroke:#1f77b4;" x="73.832727" xlink:href="#m544fbe6563" y="295.488"/>
     <use style="fill:#1f77b4;stroke:#1f77b4;" x="351.747574" xlink:href="#m544fbe6563" y="53.581987"/>
     <use style="fill:#1f77b4;stroke:#1f77b4;" x="354.810827" xlink:href="#m544fbe6563" y="190.35054"/>
     <use style="fill:#1f77b4;stroke:#1f77b4;" x="371.482037" xlink:href="#m544fbe6563" y="152.686206"/>
     <use style="fill:#1f77b4;stroke:#1f77b4;" x="352.01945" xlink:href="#m544fbe6563" y="157.88205"/>
     <use style="fill:#1f77b4;stroke:#1f77b4;" x="390.8302" xlink:href="#m544fbe6563" y="173.884242"/>
     <use style="fill:#1f77b4;stroke:#1f77b4;" x="355.833352" xlink:href="#m544fbe6563" y="66.048047"/>
     <use style="fill:#1f77b4;stroke:#1f77b4;" x="352.114776" xlink:href="#m544fbe6563" y="53.580841"/>
     <use style="fill:#1f77b4;stroke:#1f77b4;" x="337.033339" xlink:href="#m544fbe6563" y="295.483131"/>
     <use style="fill:#1f77b4;stroke:#1f77b4;" x="361.087628" xlink:href="#m544fbe6563" y="66.232662"/>
     <use style="fill:#1f77b4;stroke:#1f77b4;" x="351.747574" xlink:href="#m544fbe6563" y="53.581987"/>
     <use style="fill:#1f77b4;stroke:#1f77b4;" x="73.832727" xlink:href="#m544fbe6563" y="295.488"/>
     <use style="fill:#1f77b4;stroke:#1f77b4;" x="362.925921" xlink:href="#m544fbe6563" y="53.671187"/>
     <use style="fill:#1f77b4;stroke:#1f77b4;" x="368.412058" xlink:href="#m544fbe6563" y="53.623492"/>
     <use style="fill:#1f77b4;stroke:#1f77b4;" x="360.425435" xlink:href="#m544fbe6563" y="53.613186"/>
     <use style="fill:#1f77b4;stroke:#1f77b4;" x="368.154542" xlink:href="#m544fbe6563" y="53.66635"/>
     <use style="fill:#1f77b4;stroke:#1f77b4;" x="380.342497" xlink:href="#m544fbe6563" y="179.463016"/>
     <use style="fill:#1f77b4;stroke:#1f77b4;" x="384.724859" xlink:href="#m544fbe6563" y="194.799466"/>
     <use style="fill:#1f77b4;stroke:#1f77b4;" x="360.451257" xlink:href="#m544fbe6563" y="53.632896"/>
     <use style="fill:#1f77b4;stroke:#1f77b4;" x="366.377509" xlink:href="#m544fbe6563" y="177.828151"/>
     <use style="fill:#1f77b4;stroke:#1f77b4;" x="354.810827" xlink:href="#m544fbe6563" y="194.83843"/>
     <use style="fill:#1f77b4;stroke:#1f77b4;" x="362.925921" xlink:href="#m544fbe6563" y="53.632839"/>
     <use style="fill:#1f77b4;stroke:#1f77b4;" x="73.832727" xlink:href="#m544fbe6563" y="295.488"/>
     <use style="fill:#1f77b4;stroke:#1f77b4;" x="357.189969" xlink:href="#m544fbe6563" y="150.295382"/>
     <use style="fill:#1f77b4;stroke:#1f77b4;" x="381.587912" xlink:href="#m544fbe6563" y="128.003503"/>
     <use style="fill:#1f77b4;stroke:#1f77b4;" x="377.242566" xlink:href="#m544fbe6563" y="140.243189"/>
     <use style="fill:#1f77b4;stroke:#1f77b4;" x="389.276086" xlink:href="#m544fbe6563" y="166.108708"/>
     <use style="fill:#1f77b4;stroke:#1f77b4;" x="372.834346" xlink:href="#m544fbe6563" y="180.019806"/>
     <use style="fill:#1f77b4;stroke:#1f77b4;" x="374.879679" xlink:href="#m544fbe6563" y="53.714564"/>
     <use style="fill:#1f77b4;stroke:#1f77b4;" x="376.840005" xlink:href="#m544fbe6563" y="165.109825"/>
     <use style="fill:#1f77b4;stroke:#1f77b4;" x="371.482037" xlink:href="#m544fbe6563" y="179.968764"/>
     <use style="fill:#1f77b4;stroke:#1f77b4;" x="368.412058" xlink:href="#m544fbe6563" y="53.713425"/>
     <use style="fill:#1f77b4;stroke:#1f77b4;" x="357.189969" xlink:href="#m544fbe6563" y="144.407767"/>
     <use style="fill:#1f77b4;stroke:#1f77b4;" x="73.832727" xlink:href="#m544fbe6563" y="295.488"/>
     <use style="fill:#1f77b4;stroke:#1f77b4;" x="396.863085" xlink:href="#m544fbe6563" y="141.693873"/>
     <use style="fill:#1f77b4;stroke:#1f77b4;" x="381.242305" xlink:href="#m544fbe6563" y="140.896914"/>
     <use style="fill:#1f77b4;stroke:#1f77b4;" x="362.918452" xlink:href="#m544fbe6563" y="153.654999"/>
     <use style="fill:#1f77b4;stroke:#1f77b4;" x="347.965111" xlink:href="#m544fbe6563" y="165.807225"/>
     <use style="fill:#1f77b4;stroke:#1f77b4;" x="346.289474" xlink:href="#m544fbe6563" y="53.569297"/>
     <use style="fill:#1f77b4;stroke:#1f77b4;" x="353.283281" xlink:href="#m544fbe6563" y="151.934907"/>
     <use style="fill:#1f77b4;stroke:#1f77b4;" x="352.01945" xlink:href="#m544fbe6563" y="165.729963"/>
     <use style="fill:#1f77b4;stroke:#1f77b4;" x="360.425435" xlink:href="#m544fbe6563" y="53.568"/>
     <use style="fill:#1f77b4;stroke:#1f77b4;" x="381.587912" xlink:href="#m544fbe6563" y="126.870785"/>
     <use style="fill:#1f77b4;stroke:#1f77b4;" x="396.863085" xlink:href="#m544fbe6563" y="149.44294"/>
     <use style="fill:#1f77b4;stroke:#1f77b4;" x="73.832727" xlink:href="#m544fbe6563" y="295.488"/>
     <use style="fill:#1f77b4;stroke:#1f77b4;" x="361.82855" xlink:href="#m544fbe6563" y="143.657245"/>
     <use style="fill:#1f77b4;stroke:#1f77b4;" x="384.595177" xlink:href="#m544fbe6563" y="147.639042"/>
     <use style="fill:#1f77b4;stroke:#1f77b4;" x="398.487273" xlink:href="#m544fbe6563" y="158.297093"/>
     <use style="fill:#1f77b4;stroke:#1f77b4;" x="383.924552" xlink:href="#m544fbe6563" y="53.619341"/>
     <use style="fill:#1f77b4;stroke:#1f77b4;" x="382.197357" xlink:href="#m544fbe6563" y="145.938826"/>
     <use style="fill:#1f77b4;stroke:#1f77b4;" x="390.8302" xlink:href="#m544fbe6563" y="158.542705"/>
     <use style="fill:#1f77b4;stroke:#1f77b4;" x="368.154542" xlink:href="#m544fbe6563" y="53.619806"/>
     <use style="fill:#1f77b4;stroke:#1f77b4;" x="377.242566" xlink:href="#m544fbe6563" y="138.46879"/>
     <use style="fill:#1f77b4;stroke:#1f77b4;" x="381.242305" xlink:href="#m544fbe6563" y="135.768914"/>
     <use style="fill:#1f77b4;stroke:#1f77b4;" x="361.82855" xlink:href="#m544fbe6563" y="139.039202"/>
     <use style="fill:#1f77b4;stroke:#1f77b4;" x="73.832727" xlink:href="#m544fbe6563" y="295.488"/>
    </g>
   </g>
   <g id="line2d_14">
    <path clip-path="url(#p4f6c7e85ea)" d="M 73.832727 295.488 
L 73.832727 295.488 
L 73.832727 295.488 
L 73.832727 295.488 
L 73.832727 295.488 
L 73.832727 295.488 
L 73.832727 295.488 
L 73.832727 295.488 
L 73.832727 295.488 
L 73.832727 295.488 
L 337.033339 156.714428 
L 337.033339 156.714428 
L 341.085493 154.577914 
L 341.085493 154.577914 
L 346.289474 151.834094 
L 346.289474 151.834094 
L 347.740664 151.068948 
L 347.740664 151.068948 
L 347.965111 150.950608 
L 347.965111 150.950608 
L 351.747574 148.956289 
L 351.747574 148.956289 
L 352.01945 148.812941 
L 352.01945 148.812941 
L 352.114776 148.76268 
L 352.114776 148.76268 
L 352.386174 148.619584 
L 352.386174 148.619584 
L 353.283281 148.146581 
L 353.283281 148.146581 
L 354.810827 147.341176 
L 354.810827 147.341176 
L 355.790589 146.824593 
L 355.790589 146.824593 
L 355.833352 146.802046 
L 355.833352 146.802046 
L 355.944075 146.743667 
L 355.944075 146.743667 
L 357.189969 146.086764 
L 357.189969 146.086764 
L 359.476626 144.881115 
L 359.476626 144.881115 
L 360.425435 144.380852 
L 360.425435 144.380852 
L 360.451257 144.367237 
L 360.451257 144.367237 
L 361.087628 144.031708 
L 361.087628 144.031708 
L 361.82855 143.641054 
L 361.82855 143.641054 
L 362.918452 143.066399 
L 362.918452 143.066399 
L 362.925921 143.062461 
L 362.925921 143.062461 
L 366.377509 141.242597 
L 366.377509 141.242597 
L 368.154542 140.30565 
L 368.154542 140.30565 
L 368.412058 140.169873 
L 368.412058 140.169873 
L 370.230752 139.210959 
L 370.230752 139.210959 
L 370.410959 139.115944 
L 370.410959 139.115944 
L 371.482037 138.551214 
L 371.482037 138.551214 
L 372.834346 137.838204 
L 372.834346 137.838204 
L 374.879679 136.759794 
L 374.879679 136.759794 
L 376.840005 135.726204 
L 376.840005 135.726204 
L 377.242566 135.513953 
L 377.242566 135.513953 
L 379.641915 134.248886 
L 379.641915 134.248886 
L 380.342497 133.879502 
L 380.342497 133.879502 
L 380.372274 133.863801 
L 380.372274 133.863801 
L 381.242305 133.405074 
L 381.242305 133.405074 
L 381.587912 133.222851 
L 381.587912 133.222851 
L 382.197357 132.901519 
L 382.197357 132.901519 
L 383.924552 131.990849 
L 383.924552 131.990849 
L 384.595177 131.637259 
L 384.595177 131.637259 
L 384.724859 131.568884 
L 384.724859 131.568884 
L 389.276086 129.169231 
L 389.276086 129.169231 
L 390.8302 128.349818 
L 390.8302 128.349818 
L 396.863085 125.168956 
L 396.863085 125.168956 
L 398.487273 124.312596 
L 398.487273 124.312596 
" style="fill:none;stroke:#000000;stroke-linecap:square;stroke-width:1.5;"/>
   </g>
   <g id="patch_3">
    <path d="M 57.6 307.584 
L 57.6 41.472 
" style="fill:none;stroke:#000000;stroke-linecap:square;stroke-linejoin:miter;stroke-width:0.8;"/>
   </g>
   <g id="patch_4">
    <path d="M 414.72 307.584 
L 414.72 41.472 
" style="fill:none;stroke:#000000;stroke-linecap:square;stroke-linejoin:miter;stroke-width:0.8;"/>
   </g>
   <g id="patch_5">
    <path d="M 57.6 307.584 
L 414.72 307.584 
" style="fill:none;stroke:#000000;stroke-linecap:square;stroke-linejoin:miter;stroke-width:0.8;"/>
   </g>
   <g id="patch_6">
    <path d="M 57.6 41.472 
L 414.72 41.472 
" style="fill:none;stroke:#000000;stroke-linecap:square;stroke-linejoin:miter;stroke-width:0.8;"/>
   </g>
   <g id="text_15">
    <!-- R^2 = 0.28 -->
    <defs>
     <path d="M 44.390625 34.1875 
Q 47.5625 33.109375 50.5625 29.59375 
Q 53.5625 26.078125 56.59375 19.921875 
L 66.609375 0 
L 56 0 
L 46.6875 18.703125 
Q 43.0625 26.03125 39.671875 28.421875 
Q 36.28125 30.8125 30.421875 30.8125 
L 19.671875 30.8125 
L 19.671875 0 
L 9.8125 0 
L 9.8125 72.90625 
L 32.078125 72.90625 
Q 44.578125 72.90625 50.734375 67.671875 
Q 56.890625 62.453125 56.890625 51.90625 
Q 56.890625 45.015625 53.6875 40.46875 
Q 50.484375 35.9375 44.390625 34.1875 
z
M 19.671875 64.796875 
L 19.671875 38.921875 
L 32.078125 38.921875 
Q 39.203125 38.921875 42.84375 42.21875 
Q 46.484375 45.515625 46.484375 51.90625 
Q 46.484375 58.296875 42.84375 61.546875 
Q 39.203125 64.796875 32.078125 64.796875 
z
" id="DejaVuSans-52"/>
     <path d="M 46.6875 72.90625 
L 73.1875 45.703125 
L 63.375 45.703125 
L 41.890625 64.984375 
L 20.40625 45.703125 
L 10.59375 45.703125 
L 37.109375 72.90625 
z
" id="DejaVuSans-5e"/>
     <path d="M 10.59375 45.40625 
L 73.1875 45.40625 
L 73.1875 37.203125 
L 10.59375 37.203125 
z
M 10.59375 25.484375 
L 73.1875 25.484375 
L 73.1875 17.1875 
L 10.59375 17.1875 
z
" id="DejaVuSans-3d"/>
    </defs>
    <g transform="translate(268.625455 271.296)scale(0.16 -0.16)">
     <use xlink:href="#DejaVuSans-52"/>
     <use x="69.482422" xlink:href="#DejaVuSans-5e"/>
     <use x="153.271484" xlink:href="#DejaVuSans-32"/>
     <use x="216.894531" xlink:href="#DejaVuSans-20"/>
     <use x="248.681641" xlink:href="#DejaVuSans-3d"/>
     <use x="332.470703" xlink:href="#DejaVuSans-20"/>
     <use x="364.257812" xlink:href="#DejaVuSans-30"/>
     <use x="427.880859" xlink:href="#DejaVuSans-2e"/>
     <use x="459.667969" xlink:href="#DejaVuSans-32"/>
     <use x="523.291016" xlink:href="#DejaVuSans-38"/>
    </g>
   </g>
   <g id="text_16">
    <!-- crystals/softplus/l2h00001_model_0 -->
    <defs>
     <path d="M 48.78125 52.59375 
L 48.78125 44.1875 
Q 44.96875 46.296875 41.140625 47.34375 
Q 37.3125 48.390625 33.40625 48.390625 
Q 24.65625 48.390625 19.8125 42.84375 
Q 14.984375 37.3125 14.984375 27.296875 
Q 14.984375 17.28125 19.8125 11.734375 
Q 24.65625 6.203125 33.40625 6.203125 
Q 37.3125 6.203125 41.140625 7.25 
Q 44.96875 8.296875 48.78125 10.40625 
L 48.78125 2.09375 
Q 45.015625 0.34375 40.984375 -0.53125 
Q 36.96875 -1.421875 32.421875 -1.421875 
Q 20.0625 -1.421875 12.78125 6.34375 
Q 5.515625 14.109375 5.515625 27.296875 
Q 5.515625 40.671875 12.859375 48.328125 
Q 20.21875 56 33.015625 56 
Q 37.15625 56 41.109375 55.140625 
Q 45.0625 54.296875 48.78125 52.59375 
z
" id="DejaVuSans-63"/>
     <path d="M 9.421875 75.984375 
L 18.40625 75.984375 
L 18.40625 0 
L 9.421875 0 
z
" id="DejaVuSans-6c"/>
     <path d="M 25.390625 72.90625 
L 33.6875 72.90625 
L 8.296875 -9.28125 
L 0 -9.28125 
z
" id="DejaVuSans-2f"/>
     <path d="M 8.5 21.578125 
L 8.5 54.6875 
L 17.484375 54.6875 
L 17.484375 21.921875 
Q 17.484375 14.15625 20.5 10.265625 
Q 23.53125 6.390625 29.59375 6.390625 
Q 36.859375 6.390625 41.078125 11.03125 
Q 45.3125 15.671875 45.3125 23.6875 
L 45.3125 54.6875 
L 54.296875 54.6875 
L 54.296875 0 
L 45.3125 0 
L 45.3125 8.40625 
Q 42.046875 3.421875 37.71875 1 
Q 33.40625 -1.421875 27.6875 -1.421875 
Q 18.265625 -1.421875 13.375 4.4375 
Q 8.5 10.296875 8.5 21.578125 
z
M 31.109375 56 
z
" id="DejaVuSans-75"/>
     <path d="M 54.890625 33.015625 
L 54.890625 0 
L 45.90625 0 
L 45.90625 32.71875 
Q 45.90625 40.484375 42.875 44.328125 
Q 39.84375 48.1875 33.796875 48.1875 
Q 26.515625 48.1875 22.3125 43.546875 
Q 18.109375 38.921875 18.109375 30.90625 
L 18.109375 0 
L 9.078125 0 
L 9.078125 75.984375 
L 18.109375 75.984375 
L 18.109375 46.1875 
Q 21.34375 51.125 25.703125 53.5625 
Q 30.078125 56 35.796875 56 
Q 45.21875 56 50.046875 50.171875 
Q 54.890625 44.34375 54.890625 33.015625 
z
" id="DejaVuSans-68"/>
     <path d="M 50.984375 -16.609375 
L 50.984375 -23.578125 
L -0.984375 -23.578125 
L -0.984375 -16.609375 
z
" id="DejaVuSans-5f"/>
     <path d="M 52 44.1875 
Q 55.375 50.25 60.0625 53.125 
Q 64.75 56 71.09375 56 
Q 79.640625 56 84.28125 50.015625 
Q 88.921875 44.046875 88.921875 33.015625 
L 88.921875 0 
L 79.890625 0 
L 79.890625 32.71875 
Q 79.890625 40.578125 77.09375 44.375 
Q 74.3125 48.1875 68.609375 48.1875 
Q 61.625 48.1875 57.5625 43.546875 
Q 53.515625 38.921875 53.515625 30.90625 
L 53.515625 0 
L 44.484375 0 
L 44.484375 32.71875 
Q 44.484375 40.625 41.703125 44.40625 
Q 38.921875 48.1875 33.109375 48.1875 
Q 26.21875 48.1875 22.15625 43.53125 
Q 18.109375 38.875 18.109375 30.90625 
L 18.109375 0 
L 9.078125 0 
L 9.078125 54.6875 
L 18.109375 54.6875 
L 18.109375 46.1875 
Q 21.1875 51.21875 25.484375 53.609375 
Q 29.78125 56 35.6875 56 
Q 41.65625 56 45.828125 52.96875 
Q 50 49.953125 52 44.1875 
z
" id="DejaVuSans-6d"/>
     <path d="M 56.203125 29.59375 
L 56.203125 25.203125 
L 14.890625 25.203125 
Q 15.484375 15.921875 20.484375 11.0625 
Q 25.484375 6.203125 34.421875 6.203125 
Q 39.59375 6.203125 44.453125 7.46875 
Q 49.3125 8.734375 54.109375 11.28125 
L 54.109375 2.78125 
Q 49.265625 0.734375 44.1875 -0.34375 
Q 39.109375 -1.421875 33.890625 -1.421875 
Q 20.796875 -1.421875 13.15625 6.1875 
Q 5.515625 13.8125 5.515625 26.8125 
Q 5.515625 40.234375 12.765625 48.109375 
Q 20.015625 56 32.328125 56 
Q 43.359375 56 49.78125 48.890625 
Q 56.203125 41.796875 56.203125 29.59375 
z
M 47.21875 32.234375 
Q 47.125 39.59375 43.09375 43.984375 
Q 39.0625 48.390625 32.421875 48.390625 
Q 24.90625 48.390625 20.390625 44.140625 
Q 15.875 39.890625 15.1875 32.171875 
z
" id="DejaVuSans-65"/>
    </defs>
    <g transform="translate(63.606 35.472)scale(0.192 -0.192)">
     <use xlink:href="#DejaVuSans-63"/>
     <use x="54.980469" xlink:href="#DejaVuSans-72"/>
     <use x="96.09375" xlink:href="#DejaVuSans-79"/>
     <use x="155.273438" xlink:href="#DejaVuSans-73"/>
     <use x="207.373047" xlink:href="#DejaVuSans-74"/>
     <use x="246.582031" xlink:href="#DejaVuSans-61"/>
     <use x="307.861328" xlink:href="#DejaVuSans-6c"/>
     <use x="335.644531" xlink:href="#DejaVuSans-73"/>
     <use x="387.744141" xlink:href="#DejaVuSans-2f"/>
     <use x="421.435547" xlink:href="#DejaVuSans-73"/>
     <use x="473.535156" xlink:href="#DejaVuSans-6f"/>
     <use x="534.716797" xlink:href="#DejaVuSans-66"/>
     <use x="569.90625" xlink:href="#DejaVuSans-74"/>
     <use x="609.115234" xlink:href="#DejaVuSans-70"/>
     <use x="672.591797" xlink:href="#DejaVuSans-6c"/>
     <use x="700.375" xlink:href="#DejaVuSans-75"/>
     <use x="763.753906" xlink:href="#DejaVuSans-73"/>
     <use x="815.853516" xlink:href="#DejaVuSans-2f"/>
     <use x="849.544922" xlink:href="#DejaVuSans-6c"/>
     <use x="877.328125" xlink:href="#DejaVuSans-32"/>
     <use x="940.951172" xlink:href="#DejaVuSans-68"/>
     <use x="1004.330078" xlink:href="#DejaVuSans-30"/>
     <use x="1067.953125" xlink:href="#DejaVuSans-30"/>
     <use x="1131.576172" xlink:href="#DejaVuSans-30"/>
     <use x="1195.199219" xlink:href="#DejaVuSans-30"/>
     <use x="1258.822266" xlink:href="#DejaVuSans-31"/>
     <use x="1322.445312" xlink:href="#DejaVuSans-5f"/>
     <use x="1372.445312" xlink:href="#DejaVuSans-6d"/>
     <use x="1469.857422" xlink:href="#DejaVuSans-6f"/>
     <use x="1531.039062" xlink:href="#DejaVuSans-64"/>
     <use x="1594.515625" xlink:href="#DejaVuSans-65"/>
     <use x="1656.039062" xlink:href="#DejaVuSans-6c"/>
     <use x="1683.822266" xlink:href="#DejaVuSans-5f"/>
     <use x="1733.822266" xlink:href="#DejaVuSans-30"/>
    </g>
   </g>
  </g>
 </g>
 <defs>
  <clipPath id="p4f6c7e85ea">
   <rect height="266.112" width="357.12" x="57.6" y="41.472"/>
  </clipPath>
 </defs>
</svg>
