<?xml version="1.0" encoding="utf-8" standalone="no"?>
<!DOCTYPE svg PUBLIC "-//W3C//DTD SVG 1.1//EN"
  "http://www.w3.org/Graphics/SVG/1.1/DTD/svg11.dtd">
<!-- Created with matplotlib (http://matplotlib.org/) -->
<svg height="345.6pt" version="1.1" viewBox="0 0 460.8 345.6" width="460.8pt" xmlns="http://www.w3.org/2000/svg" xmlns:xlink="http://www.w3.org/1999/xlink">
 <defs>
  <style type="text/css">
*{stroke-linecap:butt;stroke-linejoin:round;}
  </style>
 </defs>
 <g id="figure_1">
  <g id="patch_1">
   <path d="M 0 345.6 
L 460.8 345.6 
L 460.8 0 
L 0 0 
z
" style="fill:#ffffff;"/>
  </g>
  <g id="axes_1">
   <g id="patch_2">
    <path d="M 57.6 307.584 
L 414.72 307.584 
L 414.72 41.472 
L 57.6 41.472 
z
" style="fill:#ffffff;"/>
   </g>
   <g id="matplotlib.axis_1">
    <g id="xtick_1">
     <g id="line2d_1">
      <defs>
       <path d="M 0 0 
L 0 3.5 
" id="m58d2687c34" style="stroke:#000000;stroke-width:0.8;"/>
      </defs>
      <g>
       <use style="stroke:#000000;stroke-width:0.8;" x="73.832727" xlink:href="#m58d2687c34" y="307.584"/>
      </g>
     </g>
     <g id="text_1">
      <!-- 0 -->
      <defs>
       <path d="M 31.78125 66.40625 
Q 24.171875 66.40625 20.328125 58.90625 
Q 16.5 51.421875 16.5 36.375 
Q 16.5 21.390625 20.328125 13.890625 
Q 24.171875 6.390625 31.78125 6.390625 
Q 39.453125 6.390625 43.28125 13.890625 
Q 47.125 21.390625 47.125 36.375 
Q 47.125 51.421875 43.28125 58.90625 
Q 39.453125 66.40625 31.78125 66.40625 
z
M 31.78125 74.21875 
Q 44.046875 74.21875 50.515625 64.515625 
Q 56.984375 54.828125 56.984375 36.375 
Q 56.984375 17.96875 50.515625 8.265625 
Q 44.046875 -1.421875 31.78125 -1.421875 
Q 19.53125 -1.421875 13.0625 8.265625 
Q 6.59375 17.96875 6.59375 36.375 
Q 6.59375 54.828125 13.0625 64.515625 
Q 19.53125 74.21875 31.78125 74.21875 
z
" id="DejaVuSans-30"/>
      </defs>
      <g transform="translate(68.742727 326.7415)scale(0.16 -0.16)">
       <use xlink:href="#DejaVuSans-30"/>
      </g>
     </g>
    </g>
    <g id="xtick_2">
     <g id="line2d_2">
      <g>
       <use style="stroke:#000000;stroke-width:0.8;" x="133.71547" xlink:href="#m58d2687c34" y="307.584"/>
      </g>
     </g>
     <g id="text_2">
      <!-- 2 -->
      <defs>
       <path d="M 19.1875 8.296875 
L 53.609375 8.296875 
L 53.609375 0 
L 7.328125 0 
L 7.328125 8.296875 
Q 12.9375 14.109375 22.625 23.890625 
Q 32.328125 33.6875 34.8125 36.53125 
Q 39.546875 41.84375 41.421875 45.53125 
Q 43.3125 49.21875 43.3125 52.78125 
Q 43.3125 58.59375 39.234375 62.25 
Q 35.15625 65.921875 28.609375 65.921875 
Q 23.96875 65.921875 18.8125 64.3125 
Q 13.671875 62.703125 7.8125 59.421875 
L 7.8125 69.390625 
Q 13.765625 71.78125 18.9375 73 
Q 24.125 74.21875 28.421875 74.21875 
Q 39.75 74.21875 46.484375 68.546875 
Q 53.21875 62.890625 53.21875 53.421875 
Q 53.21875 48.921875 51.53125 44.890625 
Q 49.859375 40.875 45.40625 35.40625 
Q 44.1875 33.984375 37.640625 27.21875 
Q 31.109375 20.453125 19.1875 8.296875 
z
" id="DejaVuSans-32"/>
      </defs>
      <g transform="translate(128.62547 326.7415)scale(0.16 -0.16)">
       <use xlink:href="#DejaVuSans-32"/>
      </g>
     </g>
    </g>
    <g id="xtick_3">
     <g id="line2d_3">
      <g>
       <use style="stroke:#000000;stroke-width:0.8;" x="193.598213" xlink:href="#m58d2687c34" y="307.584"/>
      </g>
     </g>
     <g id="text_3">
      <!-- 4 -->
      <defs>
       <path d="M 37.796875 64.3125 
L 12.890625 25.390625 
L 37.796875 25.390625 
z
M 35.203125 72.90625 
L 47.609375 72.90625 
L 47.609375 25.390625 
L 58.015625 25.390625 
L 58.015625 17.1875 
L 47.609375 17.1875 
L 47.609375 0 
L 37.796875 0 
L 37.796875 17.1875 
L 4.890625 17.1875 
L 4.890625 26.703125 
z
" id="DejaVuSans-34"/>
      </defs>
      <g transform="translate(188.508213 326.7415)scale(0.16 -0.16)">
       <use xlink:href="#DejaVuSans-34"/>
      </g>
     </g>
    </g>
    <g id="xtick_4">
     <g id="line2d_4">
      <g>
       <use style="stroke:#000000;stroke-width:0.8;" x="253.480956" xlink:href="#m58d2687c34" y="307.584"/>
      </g>
     </g>
     <g id="text_4">
      <!-- 6 -->
      <defs>
       <path d="M 33.015625 40.375 
Q 26.375 40.375 22.484375 35.828125 
Q 18.609375 31.296875 18.609375 23.390625 
Q 18.609375 15.53125 22.484375 10.953125 
Q 26.375 6.390625 33.015625 6.390625 
Q 39.65625 6.390625 43.53125 10.953125 
Q 47.40625 15.53125 47.40625 23.390625 
Q 47.40625 31.296875 43.53125 35.828125 
Q 39.65625 40.375 33.015625 40.375 
z
M 52.59375 71.296875 
L 52.59375 62.3125 
Q 48.875 64.0625 45.09375 64.984375 
Q 41.3125 65.921875 37.59375 65.921875 
Q 27.828125 65.921875 22.671875 59.328125 
Q 17.53125 52.734375 16.796875 39.40625 
Q 19.671875 43.65625 24.015625 45.921875 
Q 28.375 48.1875 33.59375 48.1875 
Q 44.578125 48.1875 50.953125 41.515625 
Q 57.328125 34.859375 57.328125 23.390625 
Q 57.328125 12.15625 50.6875 5.359375 
Q 44.046875 -1.421875 33.015625 -1.421875 
Q 20.359375 -1.421875 13.671875 8.265625 
Q 6.984375 17.96875 6.984375 36.375 
Q 6.984375 53.65625 15.1875 63.9375 
Q 23.390625 74.21875 37.203125 74.21875 
Q 40.921875 74.21875 44.703125 73.484375 
Q 48.484375 72.75 52.59375 71.296875 
z
" id="DejaVuSans-36"/>
      </defs>
      <g transform="translate(248.390956 326.7415)scale(0.16 -0.16)">
       <use xlink:href="#DejaVuSans-36"/>
      </g>
     </g>
    </g>
    <g id="xtick_5">
     <g id="line2d_5">
      <g>
       <use style="stroke:#000000;stroke-width:0.8;" x="313.363699" xlink:href="#m58d2687c34" y="307.584"/>
      </g>
     </g>
     <g id="text_5">
      <!-- 8 -->
      <defs>
       <path d="M 31.78125 34.625 
Q 24.75 34.625 20.71875 30.859375 
Q 16.703125 27.09375 16.703125 20.515625 
Q 16.703125 13.921875 20.71875 10.15625 
Q 24.75 6.390625 31.78125 6.390625 
Q 38.8125 6.390625 42.859375 10.171875 
Q 46.921875 13.96875 46.921875 20.515625 
Q 46.921875 27.09375 42.890625 30.859375 
Q 38.875 34.625 31.78125 34.625 
z
M 21.921875 38.8125 
Q 15.578125 40.375 12.03125 44.71875 
Q 8.5 49.078125 8.5 55.328125 
Q 8.5 64.0625 14.71875 69.140625 
Q 20.953125 74.21875 31.78125 74.21875 
Q 42.671875 74.21875 48.875 69.140625 
Q 55.078125 64.0625 55.078125 55.328125 
Q 55.078125 49.078125 51.53125 44.71875 
Q 48 40.375 41.703125 38.8125 
Q 48.828125 37.15625 52.796875 32.3125 
Q 56.78125 27.484375 56.78125 20.515625 
Q 56.78125 9.90625 50.3125 4.234375 
Q 43.84375 -1.421875 31.78125 -1.421875 
Q 19.734375 -1.421875 13.25 4.234375 
Q 6.78125 9.90625 6.78125 20.515625 
Q 6.78125 27.484375 10.78125 32.3125 
Q 14.796875 37.15625 21.921875 38.8125 
z
M 18.3125 54.390625 
Q 18.3125 48.734375 21.84375 45.5625 
Q 25.390625 42.390625 31.78125 42.390625 
Q 38.140625 42.390625 41.71875 45.5625 
Q 45.3125 48.734375 45.3125 54.390625 
Q 45.3125 60.0625 41.71875 63.234375 
Q 38.140625 66.40625 31.78125 66.40625 
Q 25.390625 66.40625 21.84375 63.234375 
Q 18.3125 60.0625 18.3125 54.390625 
z
" id="DejaVuSans-38"/>
      </defs>
      <g transform="translate(308.273699 326.7415)scale(0.16 -0.16)">
       <use xlink:href="#DejaVuSans-38"/>
      </g>
     </g>
    </g>
    <g id="xtick_6">
     <g id="line2d_6">
      <g>
       <use style="stroke:#000000;stroke-width:0.8;" x="373.246442" xlink:href="#m58d2687c34" y="307.584"/>
      </g>
     </g>
     <g id="text_6">
      <!-- 10 -->
      <defs>
       <path d="M 12.40625 8.296875 
L 28.515625 8.296875 
L 28.515625 63.921875 
L 10.984375 60.40625 
L 10.984375 69.390625 
L 28.421875 72.90625 
L 38.28125 72.90625 
L 38.28125 8.296875 
L 54.390625 8.296875 
L 54.390625 0 
L 12.40625 0 
z
" id="DejaVuSans-31"/>
      </defs>
      <g transform="translate(363.066442 326.7415)scale(0.16 -0.16)">
       <use xlink:href="#DejaVuSans-31"/>
       <use x="63.623047" xlink:href="#DejaVuSans-30"/>
      </g>
     </g>
    </g>
    <g id="text_7">
     <!-- fix disparity -->
     <defs>
      <path d="M 37.109375 75.984375 
L 37.109375 68.5 
L 28.515625 68.5 
Q 23.6875 68.5 21.796875 66.546875 
Q 19.921875 64.59375 19.921875 59.515625 
L 19.921875 54.6875 
L 34.71875 54.6875 
L 34.71875 47.703125 
L 19.921875 47.703125 
L 19.921875 0 
L 10.890625 0 
L 10.890625 47.703125 
L 2.296875 47.703125 
L 2.296875 54.6875 
L 10.890625 54.6875 
L 10.890625 58.5 
Q 10.890625 67.625 15.140625 71.796875 
Q 19.390625 75.984375 28.609375 75.984375 
z
" id="DejaVuSans-66"/>
      <path d="M 9.421875 54.6875 
L 18.40625 54.6875 
L 18.40625 0 
L 9.421875 0 
z
M 9.421875 75.984375 
L 18.40625 75.984375 
L 18.40625 64.59375 
L 9.421875 64.59375 
z
" id="DejaVuSans-69"/>
      <path d="M 54.890625 54.6875 
L 35.109375 28.078125 
L 55.90625 0 
L 45.3125 0 
L 29.390625 21.484375 
L 13.484375 0 
L 2.875 0 
L 24.125 28.609375 
L 4.6875 54.6875 
L 15.28125 54.6875 
L 29.78125 35.203125 
L 44.28125 54.6875 
z
" id="DejaVuSans-78"/>
      <path id="DejaVuSans-20"/>
      <path d="M 45.40625 46.390625 
L 45.40625 75.984375 
L 54.390625 75.984375 
L 54.390625 0 
L 45.40625 0 
L 45.40625 8.203125 
Q 42.578125 3.328125 38.25 0.953125 
Q 33.9375 -1.421875 27.875 -1.421875 
Q 17.96875 -1.421875 11.734375 6.484375 
Q 5.515625 14.40625 5.515625 27.296875 
Q 5.515625 40.1875 11.734375 48.09375 
Q 17.96875 56 27.875 56 
Q 33.9375 56 38.25 53.625 
Q 42.578125 51.265625 45.40625 46.390625 
z
M 14.796875 27.296875 
Q 14.796875 17.390625 18.875 11.75 
Q 22.953125 6.109375 30.078125 6.109375 
Q 37.203125 6.109375 41.296875 11.75 
Q 45.40625 17.390625 45.40625 27.296875 
Q 45.40625 37.203125 41.296875 42.84375 
Q 37.203125 48.484375 30.078125 48.484375 
Q 22.953125 48.484375 18.875 42.84375 
Q 14.796875 37.203125 14.796875 27.296875 
z
" id="DejaVuSans-64"/>
      <path d="M 44.28125 53.078125 
L 44.28125 44.578125 
Q 40.484375 46.53125 36.375 47.5 
Q 32.28125 48.484375 27.875 48.484375 
Q 21.1875 48.484375 17.84375 46.4375 
Q 14.5 44.390625 14.5 40.28125 
Q 14.5 37.15625 16.890625 35.375 
Q 19.28125 33.59375 26.515625 31.984375 
L 29.59375 31.296875 
Q 39.15625 29.25 43.1875 25.515625 
Q 47.21875 21.78125 47.21875 15.09375 
Q 47.21875 7.46875 41.1875 3.015625 
Q 35.15625 -1.421875 24.609375 -1.421875 
Q 20.21875 -1.421875 15.453125 -0.5625 
Q 10.6875 0.296875 5.421875 2 
L 5.421875 11.28125 
Q 10.40625 8.6875 15.234375 7.390625 
Q 20.0625 6.109375 24.8125 6.109375 
Q 31.15625 6.109375 34.5625 8.28125 
Q 37.984375 10.453125 37.984375 14.40625 
Q 37.984375 18.0625 35.515625 20.015625 
Q 33.0625 21.96875 24.703125 23.78125 
L 21.578125 24.515625 
Q 13.234375 26.265625 9.515625 29.90625 
Q 5.8125 33.546875 5.8125 39.890625 
Q 5.8125 47.609375 11.28125 51.796875 
Q 16.75 56 26.8125 56 
Q 31.78125 56 36.171875 55.265625 
Q 40.578125 54.546875 44.28125 53.078125 
z
" id="DejaVuSans-73"/>
      <path d="M 18.109375 8.203125 
L 18.109375 -20.796875 
L 9.078125 -20.796875 
L 9.078125 54.6875 
L 18.109375 54.6875 
L 18.109375 46.390625 
Q 20.953125 51.265625 25.265625 53.625 
Q 29.59375 56 35.59375 56 
Q 45.5625 56 51.78125 48.09375 
Q 58.015625 40.1875 58.015625 27.296875 
Q 58.015625 14.40625 51.78125 6.484375 
Q 45.5625 -1.421875 35.59375 -1.421875 
Q 29.59375 -1.421875 25.265625 0.953125 
Q 20.953125 3.328125 18.109375 8.203125 
z
M 48.6875 27.296875 
Q 48.6875 37.203125 44.609375 42.84375 
Q 40.53125 48.484375 33.40625 48.484375 
Q 26.265625 48.484375 22.1875 42.84375 
Q 18.109375 37.203125 18.109375 27.296875 
Q 18.109375 17.390625 22.1875 11.75 
Q 26.265625 6.109375 33.40625 6.109375 
Q 40.53125 6.109375 44.609375 11.75 
Q 48.6875 17.390625 48.6875 27.296875 
z
" id="DejaVuSans-70"/>
      <path d="M 34.28125 27.484375 
Q 23.390625 27.484375 19.1875 25 
Q 14.984375 22.515625 14.984375 16.5 
Q 14.984375 11.71875 18.140625 8.90625 
Q 21.296875 6.109375 26.703125 6.109375 
Q 34.1875 6.109375 38.703125 11.40625 
Q 43.21875 16.703125 43.21875 25.484375 
L 43.21875 27.484375 
z
M 52.203125 31.203125 
L 52.203125 0 
L 43.21875 0 
L 43.21875 8.296875 
Q 40.140625 3.328125 35.546875 0.953125 
Q 30.953125 -1.421875 24.3125 -1.421875 
Q 15.921875 -1.421875 10.953125 3.296875 
Q 6 8.015625 6 15.921875 
Q 6 25.140625 12.171875 29.828125 
Q 18.359375 34.515625 30.609375 34.515625 
L 43.21875 34.515625 
L 43.21875 35.40625 
Q 43.21875 41.609375 39.140625 45 
Q 35.0625 48.390625 27.6875 48.390625 
Q 23 48.390625 18.546875 47.265625 
Q 14.109375 46.140625 10.015625 43.890625 
L 10.015625 52.203125 
Q 14.9375 54.109375 19.578125 55.046875 
Q 24.21875 56 28.609375 56 
Q 40.484375 56 46.34375 49.84375 
Q 52.203125 43.703125 52.203125 31.203125 
z
" id="DejaVuSans-61"/>
      <path d="M 41.109375 46.296875 
Q 39.59375 47.171875 37.8125 47.578125 
Q 36.03125 48 33.890625 48 
Q 26.265625 48 22.1875 43.046875 
Q 18.109375 38.09375 18.109375 28.8125 
L 18.109375 0 
L 9.078125 0 
L 9.078125 54.6875 
L 18.109375 54.6875 
L 18.109375 46.1875 
Q 20.953125 51.171875 25.484375 53.578125 
Q 30.03125 56 36.53125 56 
Q 37.453125 56 38.578125 55.875 
Q 39.703125 55.765625 41.0625 55.515625 
z
" id="DejaVuSans-72"/>
      <path d="M 18.3125 70.21875 
L 18.3125 54.6875 
L 36.8125 54.6875 
L 36.8125 47.703125 
L 18.3125 47.703125 
L 18.3125 18.015625 
Q 18.3125 11.328125 20.140625 9.421875 
Q 21.96875 7.515625 27.59375 7.515625 
L 36.8125 7.515625 
L 36.8125 0 
L 27.59375 0 
Q 17.1875 0 13.234375 3.875 
Q 9.28125 7.765625 9.28125 18.015625 
L 9.28125 47.703125 
L 2.6875 47.703125 
L 2.6875 54.6875 
L 9.28125 54.6875 
L 9.28125 70.21875 
z
" id="DejaVuSans-74"/>
      <path d="M 32.171875 -5.078125 
Q 28.375 -14.84375 24.75 -17.8125 
Q 21.140625 -20.796875 15.09375 -20.796875 
L 7.90625 -20.796875 
L 7.90625 -13.28125 
L 13.1875 -13.28125 
Q 16.890625 -13.28125 18.9375 -11.515625 
Q 21 -9.765625 23.484375 -3.21875 
L 25.09375 0.875 
L 2.984375 54.6875 
L 12.5 54.6875 
L 29.59375 11.921875 
L 46.6875 54.6875 
L 56.203125 54.6875 
z
" id="DejaVuSans-79"/>
     </defs>
     <g transform="translate(189.01125 346.2265)scale(0.16 -0.16)">
      <use xlink:href="#DejaVuSans-66"/>
      <use x="35.205078" xlink:href="#DejaVuSans-69"/>
      <use x="62.988281" xlink:href="#DejaVuSans-78"/>
      <use x="122.167969" xlink:href="#DejaVuSans-20"/>
      <use x="153.955078" xlink:href="#DejaVuSans-64"/>
      <use x="217.431641" xlink:href="#DejaVuSans-69"/>
      <use x="245.214844" xlink:href="#DejaVuSans-73"/>
      <use x="297.314453" xlink:href="#DejaVuSans-70"/>
      <use x="360.791016" xlink:href="#DejaVuSans-61"/>
      <use x="422.070312" xlink:href="#DejaVuSans-72"/>
      <use x="463.183594" xlink:href="#DejaVuSans-69"/>
      <use x="490.966797" xlink:href="#DejaVuSans-74"/>
      <use x="530.175781" xlink:href="#DejaVuSans-79"/>
     </g>
    </g>
   </g>
   <g id="matplotlib.axis_2">
    <g id="ytick_1">
     <g id="line2d_7">
      <defs>
       <path d="M 0 0 
L -3.5 0 
" id="m8e305a6f45" style="stroke:#000000;stroke-width:0.8;"/>
      </defs>
      <g>
       <use style="stroke:#000000;stroke-width:0.8;" x="57.6" xlink:href="#m8e305a6f45" y="295.488"/>
      </g>
     </g>
     <g id="text_8">
      <!-- 0.0 -->
      <defs>
       <path d="M 10.6875 12.40625 
L 21 12.40625 
L 21 0 
L 10.6875 0 
z
" id="DejaVuSans-2e"/>
      </defs>
      <g transform="translate(25.155 301.56675)scale(0.16 -0.16)">
       <use xlink:href="#DejaVuSans-30"/>
       <use x="63.623047" xlink:href="#DejaVuSans-2e"/>
       <use x="95.410156" xlink:href="#DejaVuSans-30"/>
      </g>
     </g>
    </g>
    <g id="ytick_2">
     <g id="line2d_8">
      <g>
       <use style="stroke:#000000;stroke-width:0.8;" x="57.6" xlink:href="#m8e305a6f45" y="247.098526"/>
      </g>
     </g>
     <g id="text_9">
      <!-- 0.2 -->
      <g transform="translate(25.155 253.177276)scale(0.16 -0.16)">
       <use xlink:href="#DejaVuSans-30"/>
       <use x="63.623047" xlink:href="#DejaVuSans-2e"/>
       <use x="95.410156" xlink:href="#DejaVuSans-32"/>
      </g>
     </g>
    </g>
    <g id="ytick_3">
     <g id="line2d_9">
      <g>
       <use style="stroke:#000000;stroke-width:0.8;" x="57.6" xlink:href="#m8e305a6f45" y="198.709052"/>
      </g>
     </g>
     <g id="text_10">
      <!-- 0.4 -->
      <g transform="translate(25.155 204.787802)scale(0.16 -0.16)">
       <use xlink:href="#DejaVuSans-30"/>
       <use x="63.623047" xlink:href="#DejaVuSans-2e"/>
       <use x="95.410156" xlink:href="#DejaVuSans-34"/>
      </g>
     </g>
    </g>
    <g id="ytick_4">
     <g id="line2d_10">
      <g>
       <use style="stroke:#000000;stroke-width:0.8;" x="57.6" xlink:href="#m8e305a6f45" y="150.319578"/>
      </g>
     </g>
     <g id="text_11">
      <!-- 0.6 -->
      <g transform="translate(25.155 156.398328)scale(0.16 -0.16)">
       <use xlink:href="#DejaVuSans-30"/>
       <use x="63.623047" xlink:href="#DejaVuSans-2e"/>
       <use x="95.410156" xlink:href="#DejaVuSans-36"/>
      </g>
     </g>
    </g>
    <g id="ytick_5">
     <g id="line2d_11">
      <g>
       <use style="stroke:#000000;stroke-width:0.8;" x="57.6" xlink:href="#m8e305a6f45" y="101.930104"/>
      </g>
     </g>
     <g id="text_12">
      <!-- 0.8 -->
      <g transform="translate(25.155 108.008854)scale(0.16 -0.16)">
       <use xlink:href="#DejaVuSans-30"/>
       <use x="63.623047" xlink:href="#DejaVuSans-2e"/>
       <use x="95.410156" xlink:href="#DejaVuSans-38"/>
      </g>
     </g>
    </g>
    <g id="ytick_6">
     <g id="line2d_12">
      <g>
       <use style="stroke:#000000;stroke-width:0.8;" x="57.6" xlink:href="#m8e305a6f45" y="53.540629"/>
      </g>
     </g>
     <g id="text_13">
      <!-- 1.0 -->
      <g transform="translate(25.155 59.619379)scale(0.16 -0.16)">
       <use xlink:href="#DejaVuSans-31"/>
       <use x="63.623047" xlink:href="#DejaVuSans-2e"/>
       <use x="95.410156" xlink:href="#DejaVuSans-30"/>
      </g>
     </g>
    </g>
    <g id="text_14">
     <!-- go1 disparity -->
     <defs>
      <path d="M 45.40625 27.984375 
Q 45.40625 37.75 41.375 43.109375 
Q 37.359375 48.484375 30.078125 48.484375 
Q 22.859375 48.484375 18.828125 43.109375 
Q 14.796875 37.75 14.796875 27.984375 
Q 14.796875 18.265625 18.828125 12.890625 
Q 22.859375 7.515625 30.078125 7.515625 
Q 37.359375 7.515625 41.375 12.890625 
Q 45.40625 18.265625 45.40625 27.984375 
z
M 54.390625 6.78125 
Q 54.390625 -7.171875 48.1875 -13.984375 
Q 42 -20.796875 29.203125 -20.796875 
Q 24.46875 -20.796875 20.265625 -20.09375 
Q 16.0625 -19.390625 12.109375 -17.921875 
L 12.109375 -9.1875 
Q 16.0625 -11.328125 19.921875 -12.34375 
Q 23.78125 -13.375 27.78125 -13.375 
Q 36.625 -13.375 41.015625 -8.765625 
Q 45.40625 -4.15625 45.40625 5.171875 
L 45.40625 9.625 
Q 42.625 4.78125 38.28125 2.390625 
Q 33.9375 0 27.875 0 
Q 17.828125 0 11.671875 7.65625 
Q 5.515625 15.328125 5.515625 27.984375 
Q 5.515625 40.671875 11.671875 48.328125 
Q 17.828125 56 27.875 56 
Q 33.9375 56 38.28125 53.609375 
Q 42.625 51.21875 45.40625 46.390625 
L 45.40625 54.6875 
L 54.390625 54.6875 
z
" id="DejaVuSans-67"/>
      <path d="M 30.609375 48.390625 
Q 23.390625 48.390625 19.1875 42.75 
Q 14.984375 37.109375 14.984375 27.296875 
Q 14.984375 17.484375 19.15625 11.84375 
Q 23.34375 6.203125 30.609375 6.203125 
Q 37.796875 6.203125 41.984375 11.859375 
Q 46.1875 17.53125 46.1875 27.296875 
Q 46.1875 37.015625 41.984375 42.703125 
Q 37.796875 48.390625 30.609375 48.390625 
z
M 30.609375 56 
Q 42.328125 56 49.015625 48.375 
Q 55.71875 40.765625 55.71875 27.296875 
Q 55.71875 13.875 49.015625 6.21875 
Q 42.328125 -1.421875 30.609375 -1.421875 
Q 18.84375 -1.421875 12.171875 6.21875 
Q 5.515625 13.875 5.515625 27.296875 
Q 5.515625 40.765625 12.171875 48.375 
Q 18.84375 56 30.609375 56 
z
" id="DejaVuSans-6f"/>
     </defs>
     <g transform="translate(17.8275 226.96675)rotate(-90)scale(0.16 -0.16)">
      <use xlink:href="#DejaVuSans-67"/>
      <use x="63.476562" xlink:href="#DejaVuSans-6f"/>
      <use x="124.658203" xlink:href="#DejaVuSans-31"/>
      <use x="188.28125" xlink:href="#DejaVuSans-20"/>
      <use x="220.068359" xlink:href="#DejaVuSans-64"/>
      <use x="283.544922" xlink:href="#DejaVuSans-69"/>
      <use x="311.328125" xlink:href="#DejaVuSans-73"/>
      <use x="363.427734" xlink:href="#DejaVuSans-70"/>
      <use x="426.904297" xlink:href="#DejaVuSans-61"/>
      <use x="488.183594" xlink:href="#DejaVuSans-72"/>
      <use x="529.296875" xlink:href="#DejaVuSans-69"/>
      <use x="557.080078" xlink:href="#DejaVuSans-74"/>
      <use x="596.289062" xlink:href="#DejaVuSans-79"/>
     </g>
    </g>
   </g>
   <g id="line2d_13">
    <defs>
     <path d="M 0 1.5 
C 0.397805 1.5 0.77937 1.341951 1.06066 1.06066 
C 1.341951 0.77937 1.5 0.397805 1.5 0 
C 1.5 -0.397805 1.341951 -0.77937 1.06066 -1.06066 
C 0.77937 -1.341951 0.397805 -1.5 0 -1.5 
C -0.397805 -1.5 -0.77937 -1.341951 -1.06066 -1.06066 
C -1.341951 -0.77937 -1.5 -0.397805 -1.5 0 
C -1.5 0.397805 -1.341951 0.77937 -1.06066 1.06066 
C -0.77937 1.341951 -0.397805 1.5 0 1.5 
z
" id="m82c038154a" style="stroke:#1f77b4;"/>
    </defs>
    <g clip-path="url(#pe71663ddbe)">
     <use style="fill:#1f77b4;stroke:#1f77b4;" x="73.832727" xlink:href="#m82c038154a" y="295.488"/>
     <use style="fill:#1f77b4;stroke:#1f77b4;" x="355.20728" xlink:href="#m82c038154a" y="267.998981"/>
     <use style="fill:#1f77b4;stroke:#1f77b4;" x="379.234353" xlink:href="#m82c038154a" y="66.034204"/>
     <use style="fill:#1f77b4;stroke:#1f77b4;" x="355.503549" xlink:href="#m82c038154a" y="294.332855"/>
     <use style="fill:#1f77b4;stroke:#1f77b4;" x="369.280492" xlink:href="#m82c038154a" y="267.803006"/>
     <use style="fill:#1f77b4;stroke:#1f77b4;" x="355.357652" xlink:href="#m82c038154a" y="66.075129"/>
     <use style="fill:#1f77b4;stroke:#1f77b4;" x="380.061887" xlink:href="#m82c038154a" y="160.780641"/>
     <use style="fill:#1f77b4;stroke:#1f77b4;" x="388.823694" xlink:href="#m82c038154a" y="150.773254"/>
     <use style="fill:#1f77b4;stroke:#1f77b4;" x="362.458456" xlink:href="#m82c038154a" y="195.264239"/>
     <use style="fill:#1f77b4;stroke:#1f77b4;" x="384.418564" xlink:href="#m82c038154a" y="168.3451"/>
     <use style="fill:#1f77b4;stroke:#1f77b4;" x="355.20728" xlink:href="#m82c038154a" y="267.998979"/>
     <use style="fill:#1f77b4;stroke:#1f77b4;" x="73.832727" xlink:href="#m82c038154a" y="295.488"/>
     <use style="fill:#1f77b4;stroke:#1f77b4;" x="358.777735" xlink:href="#m82c038154a" y="53.56964"/>
     <use style="fill:#1f77b4;stroke:#1f77b4;" x="379.38778" xlink:href="#m82c038154a" y="267.695828"/>
     <use style="fill:#1f77b4;stroke:#1f77b4;" x="351.897874" xlink:href="#m82c038154a" y="295.149761"/>
     <use style="fill:#1f77b4;stroke:#1f77b4;" x="351.621589" xlink:href="#m82c038154a" y="53.568469"/>
     <use style="fill:#1f77b4;stroke:#1f77b4;" x="384.100738" xlink:href="#m82c038154a" y="154.83214"/>
     <use style="fill:#1f77b4;stroke:#1f77b4;" x="372.18425" xlink:href="#m82c038154a" y="156.456253"/>
     <use style="fill:#1f77b4;stroke:#1f77b4;" x="346.862884" xlink:href="#m82c038154a" y="157.49786"/>
     <use style="fill:#1f77b4;stroke:#1f77b4;" x="398.487273" xlink:href="#m82c038154a" y="158.369969"/>
     <use style="fill:#1f77b4;stroke:#1f77b4;" x="379.234353" xlink:href="#m82c038154a" y="66.034207"/>
     <use style="fill:#1f77b4;stroke:#1f77b4;" x="358.777735" xlink:href="#m82c038154a" y="53.56964"/>
     <use style="fill:#1f77b4;stroke:#1f77b4;" x="73.832727" xlink:href="#m82c038154a" y="295.488"/>
     <use style="fill:#1f77b4;stroke:#1f77b4;" x="347.039008" xlink:href="#m82c038154a" y="66.259147"/>
     <use style="fill:#1f77b4;stroke:#1f77b4;" x="340.341857" xlink:href="#m82c038154a" y="53.570123"/>
     <use style="fill:#1f77b4;stroke:#1f77b4;" x="336.086426" xlink:href="#m82c038154a" y="295.483161"/>
     <use style="fill:#1f77b4;stroke:#1f77b4;" x="360.290499" xlink:href="#m82c038154a" y="53.606174"/>
     <use style="fill:#1f77b4;stroke:#1f77b4;" x="374.061995" xlink:href="#m82c038154a" y="53.75199"/>
     <use style="fill:#1f77b4;stroke:#1f77b4;" x="345.261142" xlink:href="#m82c038154a" y="53.754017"/>
     <use style="fill:#1f77b4;stroke:#1f77b4;" x="383.432197" xlink:href="#m82c038154a" y="53.568"/>
     <use style="fill:#1f77b4;stroke:#1f77b4;" x="355.503549" xlink:href="#m82c038154a" y="294.332855"/>
     <use style="fill:#1f77b4;stroke:#1f77b4;" x="379.38778" xlink:href="#m82c038154a" y="267.695827"/>
     <use style="fill:#1f77b4;stroke:#1f77b4;" x="347.039008" xlink:href="#m82c038154a" y="66.259136"/>
     <use style="fill:#1f77b4;stroke:#1f77b4;" x="73.832727" xlink:href="#m82c038154a" y="295.488"/>
     <use style="fill:#1f77b4;stroke:#1f77b4;" x="369.488764" xlink:href="#m82c038154a" y="267.826683"/>
     <use style="fill:#1f77b4;stroke:#1f77b4;" x="360.11178" xlink:href="#m82c038154a" y="66.249708"/>
     <use style="fill:#1f77b4;stroke:#1f77b4;" x="365.428749" xlink:href="#m82c038154a" y="157.016137"/>
     <use style="fill:#1f77b4;stroke:#1f77b4;" x="375.830667" xlink:href="#m82c038154a" y="154.094607"/>
     <use style="fill:#1f77b4;stroke:#1f77b4;" x="351.993544" xlink:href="#m82c038154a" y="140.1412"/>
     <use style="fill:#1f77b4;stroke:#1f77b4;" x="381.353276" xlink:href="#m82c038154a" y="144.877249"/>
     <use style="fill:#1f77b4;stroke:#1f77b4;" x="369.280492" xlink:href="#m82c038154a" y="267.803016"/>
     <use style="fill:#1f77b4;stroke:#1f77b4;" x="351.897874" xlink:href="#m82c038154a" y="295.149761"/>
     <use style="fill:#1f77b4;stroke:#1f77b4;" x="340.341857" xlink:href="#m82c038154a" y="53.570123"/>
     <use style="fill:#1f77b4;stroke:#1f77b4;" x="369.488764" xlink:href="#m82c038154a" y="267.826685"/>
     <use style="fill:#1f77b4;stroke:#1f77b4;" x="73.832727" xlink:href="#m82c038154a" y="295.488"/>
     <use style="fill:#1f77b4;stroke:#1f77b4;" x="350.589003" xlink:href="#m82c038154a" y="53.569503"/>
     <use style="fill:#1f77b4;stroke:#1f77b4;" x="354.488308" xlink:href="#m82c038154a" y="176.335009"/>
     <use style="fill:#1f77b4;stroke:#1f77b4;" x="370.341893" xlink:href="#m82c038154a" y="153.482816"/>
     <use style="fill:#1f77b4;stroke:#1f77b4;" x="351.281116" xlink:href="#m82c038154a" y="175.2514"/>
     <use style="fill:#1f77b4;stroke:#1f77b4;" x="390.373362" xlink:href="#m82c038154a" y="178.621908"/>
     <use style="fill:#1f77b4;stroke:#1f77b4;" x="355.357652" xlink:href="#m82c038154a" y="66.075131"/>
     <use style="fill:#1f77b4;stroke:#1f77b4;" x="351.621589" xlink:href="#m82c038154a" y="53.568469"/>
     <use style="fill:#1f77b4;stroke:#1f77b4;" x="336.086426" xlink:href="#m82c038154a" y="295.483161"/>
     <use style="fill:#1f77b4;stroke:#1f77b4;" x="360.11178" xlink:href="#m82c038154a" y="66.249714"/>
     <use style="fill:#1f77b4;stroke:#1f77b4;" x="350.589003" xlink:href="#m82c038154a" y="53.569503"/>
     <use style="fill:#1f77b4;stroke:#1f77b4;" x="73.832727" xlink:href="#m82c038154a" y="295.488"/>
     <use style="fill:#1f77b4;stroke:#1f77b4;" x="362.612966" xlink:href="#m82c038154a" y="53.893453"/>
     <use style="fill:#1f77b4;stroke:#1f77b4;" x="367.365329" xlink:href="#m82c038154a" y="53.688433"/>
     <use style="fill:#1f77b4;stroke:#1f77b4;" x="359.39671" xlink:href="#m82c038154a" y="53.637674"/>
     <use style="fill:#1f77b4;stroke:#1f77b4;" x="367.73479" xlink:href="#m82c038154a" y="53.637939"/>
     <use style="fill:#1f77b4;stroke:#1f77b4;" x="380.061887" xlink:href="#m82c038154a" y="149.785592"/>
     <use style="fill:#1f77b4;stroke:#1f77b4;" x="384.100738" xlink:href="#m82c038154a" y="160.15139"/>
     <use style="fill:#1f77b4;stroke:#1f77b4;" x="360.290499" xlink:href="#m82c038154a" y="54.284846"/>
     <use style="fill:#1f77b4;stroke:#1f77b4;" x="365.428749" xlink:href="#m82c038154a" y="147.815402"/>
     <use style="fill:#1f77b4;stroke:#1f77b4;" x="354.488308" xlink:href="#m82c038154a" y="159.515802"/>
     <use style="fill:#1f77b4;stroke:#1f77b4;" x="362.612966" xlink:href="#m82c038154a" y="54.283861"/>
     <use style="fill:#1f77b4;stroke:#1f77b4;" x="73.832727" xlink:href="#m82c038154a" y="295.488"/>
     <use style="fill:#1f77b4;stroke:#1f77b4;" x="356.707958" xlink:href="#m82c038154a" y="132.752787"/>
     <use style="fill:#1f77b4;stroke:#1f77b4;" x="381.047111" xlink:href="#m82c038154a" y="139.26646"/>
     <use style="fill:#1f77b4;stroke:#1f77b4;" x="376.293618" xlink:href="#m82c038154a" y="145.353169"/>
     <use style="fill:#1f77b4;stroke:#1f77b4;" x="388.823694" xlink:href="#m82c038154a" y="152.604546"/>
     <use style="fill:#1f77b4;stroke:#1f77b4;" x="372.18425" xlink:href="#m82c038154a" y="164.230917"/>
     <use style="fill:#1f77b4;stroke:#1f77b4;" x="374.061995" xlink:href="#m82c038154a" y="53.692469"/>
     <use style="fill:#1f77b4;stroke:#1f77b4;" x="375.830667" xlink:href="#m82c038154a" y="151.188578"/>
     <use style="fill:#1f77b4;stroke:#1f77b4;" x="370.341893" xlink:href="#m82c038154a" y="164.611656"/>
     <use style="fill:#1f77b4;stroke:#1f77b4;" x="367.365329" xlink:href="#m82c038154a" y="53.692152"/>
     <use style="fill:#1f77b4;stroke:#1f77b4;" x="356.707958" xlink:href="#m82c038154a" y="143.052735"/>
     <use style="fill:#1f77b4;stroke:#1f77b4;" x="73.832727" xlink:href="#m82c038154a" y="295.488"/>
     <use style="fill:#1f77b4;stroke:#1f77b4;" x="395.985017" xlink:href="#m82c038154a" y="147.243722"/>
     <use style="fill:#1f77b4;stroke:#1f77b4;" x="380.711668" xlink:href="#m82c038154a" y="146.758216"/>
     <use style="fill:#1f77b4;stroke:#1f77b4;" x="362.458456" xlink:href="#m82c038154a" y="159.165822"/>
     <use style="fill:#1f77b4;stroke:#1f77b4;" x="346.862884" xlink:href="#m82c038154a" y="172.136242"/>
     <use style="fill:#1f77b4;stroke:#1f77b4;" x="345.261142" xlink:href="#m82c038154a" y="53.619146"/>
     <use style="fill:#1f77b4;stroke:#1f77b4;" x="351.993544" xlink:href="#m82c038154a" y="158.012106"/>
     <use style="fill:#1f77b4;stroke:#1f77b4;" x="351.281116" xlink:href="#m82c038154a" y="172.29291"/>
     <use style="fill:#1f77b4;stroke:#1f77b4;" x="359.39671" xlink:href="#m82c038154a" y="53.617931"/>
     <use style="fill:#1f77b4;stroke:#1f77b4;" x="381.047111" xlink:href="#m82c038154a" y="136.513549"/>
     <use style="fill:#1f77b4;stroke:#1f77b4;" x="395.985017" xlink:href="#m82c038154a" y="141.965148"/>
     <use style="fill:#1f77b4;stroke:#1f77b4;" x="73.832727" xlink:href="#m82c038154a" y="295.488"/>
     <use style="fill:#1f77b4;stroke:#1f77b4;" x="362.023648" xlink:href="#m82c038154a" y="158.441147"/>
     <use style="fill:#1f77b4;stroke:#1f77b4;" x="384.418564" xlink:href="#m82c038154a" y="150.598636"/>
     <use style="fill:#1f77b4;stroke:#1f77b4;" x="398.487273" xlink:href="#m82c038154a" y="162.421623"/>
     <use style="fill:#1f77b4;stroke:#1f77b4;" x="383.432197" xlink:href="#m82c038154a" y="53.5962"/>
     <use style="fill:#1f77b4;stroke:#1f77b4;" x="381.353276" xlink:href="#m82c038154a" y="149.21472"/>
     <use style="fill:#1f77b4;stroke:#1f77b4;" x="390.373362" xlink:href="#m82c038154a" y="162.322137"/>
     <use style="fill:#1f77b4;stroke:#1f77b4;" x="367.73479" xlink:href="#m82c038154a" y="53.594478"/>
     <use style="fill:#1f77b4;stroke:#1f77b4;" x="376.293618" xlink:href="#m82c038154a" y="130.321495"/>
     <use style="fill:#1f77b4;stroke:#1f77b4;" x="380.711668" xlink:href="#m82c038154a" y="141.693351"/>
     <use style="fill:#1f77b4;stroke:#1f77b4;" x="362.023648" xlink:href="#m82c038154a" y="143.035383"/>
     <use style="fill:#1f77b4;stroke:#1f77b4;" x="73.832727" xlink:href="#m82c038154a" y="295.488"/>
    </g>
   </g>
   <g id="line2d_14">
    <path clip-path="url(#pe71663ddbe)" d="M 73.832727 295.488 
L 73.832727 295.488 
L 73.832727 295.488 
L 73.832727 295.488 
L 73.832727 295.488 
L 73.832727 295.488 
L 73.832727 295.488 
L 73.832727 295.488 
L 73.832727 295.488 
L 73.832727 295.488 
L 336.086426 156.202128 
L 336.086426 156.202128 
L 340.341857 153.942021 
L 340.341857 153.942021 
L 345.261142 151.329333 
L 345.261142 151.329333 
L 346.862884 150.47863 
L 346.862884 150.47863 
L 347.039008 150.385089 
L 347.039008 150.385089 
L 350.589003 148.499647 
L 350.589003 148.499647 
L 351.281116 148.132058 
L 351.281116 148.132058 
L 351.621589 147.951229 
L 351.621589 147.951229 
L 351.897874 147.804491 
L 351.897874 147.804491 
L 351.993544 147.753679 
L 351.993544 147.753679 
L 354.488308 146.428682 
L 354.488308 146.428682 
L 355.20728 146.046828 
L 355.20728 146.046828 
L 355.357652 145.966964 
L 355.357652 145.966964 
L 355.503549 145.889476 
L 355.503549 145.889476 
L 356.707958 145.249802 
L 356.707958 145.249802 
L 358.777735 144.150519 
L 358.777735 144.150519 
L 359.39671 143.821775 
L 359.39671 143.821775 
L 360.11178 143.441993 
L 360.11178 143.441993 
L 360.290499 143.347074 
L 360.290499 143.347074 
L 362.023648 142.426579 
L 362.023648 142.426579 
L 362.458456 142.195648 
L 362.458456 142.195648 
L 362.612966 142.113586 
L 362.612966 142.113586 
L 365.428749 140.618092 
L 365.428749 140.618092 
L 367.365329 139.589552 
L 367.365329 139.589552 
L 367.73479 139.393328 
L 367.73479 139.393328 
L 369.280492 138.572388 
L 369.280492 138.572388 
L 369.488764 138.461772 
L 369.488764 138.461772 
L 370.341893 138.008666 
L 370.341893 138.008666 
L 372.18425 137.030169 
L 372.18425 137.030169 
L 374.061995 136.032878 
L 374.061995 136.032878 
L 375.830667 135.093517 
L 375.830667 135.093517 
L 376.293618 134.847638 
L 376.293618 134.847638 
L 379.234353 133.285781 
L 379.234353 133.285781 
L 379.38778 133.204294 
L 379.38778 133.204294 
L 380.061887 132.846268 
L 380.061887 132.846268 
L 380.711668 132.501162 
L 380.711668 132.501162 
L 381.047111 132.323005 
L 381.047111 132.323005 
L 381.353276 132.160397 
L 381.353276 132.160397 
L 383.432197 131.056259 
L 383.432197 131.056259 
L 384.100738 130.70119 
L 384.100738 130.70119 
L 384.418564 130.532388 
L 384.418564 130.532388 
L 388.823694 128.192775 
L 388.823694 128.192775 
L 390.373362 127.369729 
L 390.373362 127.369729 
L 395.985017 124.389316 
L 395.985017 124.389316 
L 398.487273 123.06034 
L 398.487273 123.06034 
" style="fill:none;stroke:#000000;stroke-linecap:square;stroke-width:1.5;"/>
   </g>
   <g id="patch_3">
    <path d="M 57.6 307.584 
L 57.6 41.472 
" style="fill:none;stroke:#000000;stroke-linecap:square;stroke-linejoin:miter;stroke-width:0.8;"/>
   </g>
   <g id="patch_4">
    <path d="M 414.72 307.584 
L 414.72 41.472 
" style="fill:none;stroke:#000000;stroke-linecap:square;stroke-linejoin:miter;stroke-width:0.8;"/>
   </g>
   <g id="patch_5">
    <path d="M 57.6 307.584 
L 414.72 307.584 
" style="fill:none;stroke:#000000;stroke-linecap:square;stroke-linejoin:miter;stroke-width:0.8;"/>
   </g>
   <g id="patch_6">
    <path d="M 57.6 41.472 
L 414.72 41.472 
" style="fill:none;stroke:#000000;stroke-linecap:square;stroke-linejoin:miter;stroke-width:0.8;"/>
   </g>
   <g id="text_15">
    <!-- R^2 = 0.28 -->
    <defs>
     <path d="M 44.390625 34.1875 
Q 47.5625 33.109375 50.5625 29.59375 
Q 53.5625 26.078125 56.59375 19.921875 
L 66.609375 0 
L 56 0 
L 46.6875 18.703125 
Q 43.0625 26.03125 39.671875 28.421875 
Q 36.28125 30.8125 30.421875 30.8125 
L 19.671875 30.8125 
L 19.671875 0 
L 9.8125 0 
L 9.8125 72.90625 
L 32.078125 72.90625 
Q 44.578125 72.90625 50.734375 67.671875 
Q 56.890625 62.453125 56.890625 51.90625 
Q 56.890625 45.015625 53.6875 40.46875 
Q 50.484375 35.9375 44.390625 34.1875 
z
M 19.671875 64.796875 
L 19.671875 38.921875 
L 32.078125 38.921875 
Q 39.203125 38.921875 42.84375 42.21875 
Q 46.484375 45.515625 46.484375 51.90625 
Q 46.484375 58.296875 42.84375 61.546875 
Q 39.203125 64.796875 32.078125 64.796875 
z
" id="DejaVuSans-52"/>
     <path d="M 46.6875 72.90625 
L 73.1875 45.703125 
L 63.375 45.703125 
L 41.890625 64.984375 
L 20.40625 45.703125 
L 10.59375 45.703125 
L 37.109375 72.90625 
z
" id="DejaVuSans-5e"/>
     <path d="M 10.59375 45.40625 
L 73.1875 45.40625 
L 73.1875 37.203125 
L 10.59375 37.203125 
z
M 10.59375 25.484375 
L 73.1875 25.484375 
L 73.1875 17.1875 
L 10.59375 17.1875 
z
" id="DejaVuSans-3d"/>
    </defs>
    <g transform="translate(268.625455 271.296)scale(0.16 -0.16)">
     <use xlink:href="#DejaVuSans-52"/>
     <use x="69.482422" xlink:href="#DejaVuSans-5e"/>
     <use x="153.271484" xlink:href="#DejaVuSans-32"/>
     <use x="216.894531" xlink:href="#DejaVuSans-20"/>
     <use x="248.681641" xlink:href="#DejaVuSans-3d"/>
     <use x="332.470703" xlink:href="#DejaVuSans-20"/>
     <use x="364.257812" xlink:href="#DejaVuSans-30"/>
     <use x="427.880859" xlink:href="#DejaVuSans-2e"/>
     <use x="459.667969" xlink:href="#DejaVuSans-32"/>
     <use x="523.291016" xlink:href="#DejaVuSans-38"/>
    </g>
   </g>
   <g id="text_16">
    <!-- crystals/softplus/l2w0001_model_0 -->
    <defs>
     <path d="M 48.78125 52.59375 
L 48.78125 44.1875 
Q 44.96875 46.296875 41.140625 47.34375 
Q 37.3125 48.390625 33.40625 48.390625 
Q 24.65625 48.390625 19.8125 42.84375 
Q 14.984375 37.3125 14.984375 27.296875 
Q 14.984375 17.28125 19.8125 11.734375 
Q 24.65625 6.203125 33.40625 6.203125 
Q 37.3125 6.203125 41.140625 7.25 
Q 44.96875 8.296875 48.78125 10.40625 
L 48.78125 2.09375 
Q 45.015625 0.34375 40.984375 -0.53125 
Q 36.96875 -1.421875 32.421875 -1.421875 
Q 20.0625 -1.421875 12.78125 6.34375 
Q 5.515625 14.109375 5.515625 27.296875 
Q 5.515625 40.671875 12.859375 48.328125 
Q 20.21875 56 33.015625 56 
Q 37.15625 56 41.109375 55.140625 
Q 45.0625 54.296875 48.78125 52.59375 
z
" id="DejaVuSans-63"/>
     <path d="M 9.421875 75.984375 
L 18.40625 75.984375 
L 18.40625 0 
L 9.421875 0 
z
" id="DejaVuSans-6c"/>
     <path d="M 25.390625 72.90625 
L 33.6875 72.90625 
L 8.296875 -9.28125 
L 0 -9.28125 
z
" id="DejaVuSans-2f"/>
     <path d="M 8.5 21.578125 
L 8.5 54.6875 
L 17.484375 54.6875 
L 17.484375 21.921875 
Q 17.484375 14.15625 20.5 10.265625 
Q 23.53125 6.390625 29.59375 6.390625 
Q 36.859375 6.390625 41.078125 11.03125 
Q 45.3125 15.671875 45.3125 23.6875 
L 45.3125 54.6875 
L 54.296875 54.6875 
L 54.296875 0 
L 45.3125 0 
L 45.3125 8.40625 
Q 42.046875 3.421875 37.71875 1 
Q 33.40625 -1.421875 27.6875 -1.421875 
Q 18.265625 -1.421875 13.375 4.4375 
Q 8.5 10.296875 8.5 21.578125 
z
M 31.109375 56 
z
" id="DejaVuSans-75"/>
     <path d="M 4.203125 54.6875 
L 13.1875 54.6875 
L 24.421875 12.015625 
L 35.59375 54.6875 
L 46.1875 54.6875 
L 57.421875 12.015625 
L 68.609375 54.6875 
L 77.59375 54.6875 
L 63.28125 0 
L 52.6875 0 
L 40.921875 44.828125 
L 29.109375 0 
L 18.5 0 
z
" id="DejaVuSans-77"/>
     <path d="M 50.984375 -16.609375 
L 50.984375 -23.578125 
L -0.984375 -23.578125 
L -0.984375 -16.609375 
z
" id="DejaVuSans-5f"/>
     <path d="M 52 44.1875 
Q 55.375 50.25 60.0625 53.125 
Q 64.75 56 71.09375 56 
Q 79.640625 56 84.28125 50.015625 
Q 88.921875 44.046875 88.921875 33.015625 
L 88.921875 0 
L 79.890625 0 
L 79.890625 32.71875 
Q 79.890625 40.578125 77.09375 44.375 
Q 74.3125 48.1875 68.609375 48.1875 
Q 61.625 48.1875 57.5625 43.546875 
Q 53.515625 38.921875 53.515625 30.90625 
L 53.515625 0 
L 44.484375 0 
L 44.484375 32.71875 
Q 44.484375 40.625 41.703125 44.40625 
Q 38.921875 48.1875 33.109375 48.1875 
Q 26.21875 48.1875 22.15625 43.53125 
Q 18.109375 38.875 18.109375 30.90625 
L 18.109375 0 
L 9.078125 0 
L 9.078125 54.6875 
L 18.109375 54.6875 
L 18.109375 46.1875 
Q 21.1875 51.21875 25.484375 53.609375 
Q 29.78125 56 35.6875 56 
Q 41.65625 56 45.828125 52.96875 
Q 50 49.953125 52 44.1875 
z
" id="DejaVuSans-6d"/>
     <path d="M 56.203125 29.59375 
L 56.203125 25.203125 
L 14.890625 25.203125 
Q 15.484375 15.921875 20.484375 11.0625 
Q 25.484375 6.203125 34.421875 6.203125 
Q 39.59375 6.203125 44.453125 7.46875 
Q 49.3125 8.734375 54.109375 11.28125 
L 54.109375 2.78125 
Q 49.265625 0.734375 44.1875 -0.34375 
Q 39.109375 -1.421875 33.890625 -1.421875 
Q 20.796875 -1.421875 13.15625 6.1875 
Q 5.515625 13.8125 5.515625 26.8125 
Q 5.515625 40.234375 12.765625 48.109375 
Q 20.015625 56 32.328125 56 
Q 43.359375 56 49.78125 48.890625 
Q 56.203125 41.796875 56.203125 29.59375 
z
M 47.21875 32.234375 
Q 47.125 39.59375 43.09375 43.984375 
Q 39.0625 48.390625 32.421875 48.390625 
Q 24.90625 48.390625 20.390625 44.140625 
Q 15.875 39.890625 15.1875 32.171875 
z
" id="DejaVuSans-65"/>
    </defs>
    <g transform="translate(67.947 35.472)scale(0.192 -0.192)">
     <use xlink:href="#DejaVuSans-63"/>
     <use x="54.980469" xlink:href="#DejaVuSans-72"/>
     <use x="96.09375" xlink:href="#DejaVuSans-79"/>
     <use x="155.273438" xlink:href="#DejaVuSans-73"/>
     <use x="207.373047" xlink:href="#DejaVuSans-74"/>
     <use x="246.582031" xlink:href="#DejaVuSans-61"/>
     <use x="307.861328" xlink:href="#DejaVuSans-6c"/>
     <use x="335.644531" xlink:href="#DejaVuSans-73"/>
     <use x="387.744141" xlink:href="#DejaVuSans-2f"/>
     <use x="421.435547" xlink:href="#DejaVuSans-73"/>
     <use x="473.535156" xlink:href="#DejaVuSans-6f"/>
     <use x="534.716797" xlink:href="#DejaVuSans-66"/>
     <use x="569.90625" xlink:href="#DejaVuSans-74"/>
     <use x="609.115234" xlink:href="#DejaVuSans-70"/>
     <use x="672.591797" xlink:href="#DejaVuSans-6c"/>
     <use x="700.375" xlink:href="#DejaVuSans-75"/>
     <use x="763.753906" xlink:href="#DejaVuSans-73"/>
     <use x="815.853516" xlink:href="#DejaVuSans-2f"/>
     <use x="849.544922" xlink:href="#DejaVuSans-6c"/>
     <use x="877.328125" xlink:href="#DejaVuSans-32"/>
     <use x="940.951172" xlink:href="#DejaVuSans-77"/>
     <use x="1022.738281" xlink:href="#DejaVuSans-30"/>
     <use x="1086.361328" xlink:href="#DejaVuSans-30"/>
     <use x="1149.984375" xlink:href="#DejaVuSans-30"/>
     <use x="1213.607422" xlink:href="#DejaVuSans-31"/>
     <use x="1277.230469" xlink:href="#DejaVuSans-5f"/>
     <use x="1327.230469" xlink:href="#DejaVuSans-6d"/>
     <use x="1424.642578" xlink:href="#DejaVuSans-6f"/>
     <use x="1485.824219" xlink:href="#DejaVuSans-64"/>
     <use x="1549.300781" xlink:href="#DejaVuSans-65"/>
     <use x="1610.824219" xlink:href="#DejaVuSans-6c"/>
     <use x="1638.607422" xlink:href="#DejaVuSans-5f"/>
     <use x="1688.607422" xlink:href="#DejaVuSans-30"/>
    </g>
   </g>
  </g>
 </g>
 <defs>
  <clipPath id="pe71663ddbe">
   <rect height="266.112" width="357.12" x="57.6" y="41.472"/>
  </clipPath>
 </defs>
</svg>
